
<svg width="159" height="254" viewBox="0 0 159 254" fill="none" xmlns="http://www.w3.org/2000/svg">
<path d="M136.146 42.835L12.8623 87.5453L24.8776 45.1283L146.141 0.715088L136.146 42.835Z" fill="url(#paint0_linear_63_109)"/>
<path d="M8.71925 143.603L55.1045 126.008L107.354 160.664L58.8366 176.755L8.71925 143.603Z" fill="#D9D9D9"/>
<path d="M20.9824 102.549L107.355 160.664L58.8369 176.659L8.7196 143.603L20.9824 102.549Z" fill="url(#paint1_linear_63_109)"/>
<path d="M71.0996 136.138L8.71966 143.603L20.9824 102.549L71.0996 136.138Z" fill="#D6A91E"/>
<path d="M37.0713 241.842H36.0746C36.0004 241.471 35.8661 241.128 35.6717 240.814C35.4809 240.496 35.2406 240.218 34.9507 239.982C34.6609 239.745 34.3323 239.561 33.9647 239.43C33.5971 239.299 33.1995 239.234 32.7719 239.234C32.0863 239.234 31.4607 239.413 30.8952 239.77C30.3333 240.126 29.8827 240.651 29.5434 241.344C29.2076 242.033 29.0398 242.878 29.0398 243.878C29.0398 244.885 29.2076 245.734 29.5434 246.423C29.8827 247.112 30.3333 247.635 30.8952 247.992C31.4607 248.345 32.0863 248.522 32.7719 248.522C33.1995 248.522 33.5971 248.457 33.9647 248.326C34.3323 248.195 34.6609 248.013 34.9507 247.78C35.2406 247.543 35.4809 247.266 35.6717 246.948C35.8661 246.629 36.0004 246.285 36.0746 245.914H37.0713C36.9829 246.412 36.8168 246.877 36.573 247.308C36.3326 247.736 36.0252 248.11 35.6505 248.432C35.2794 248.754 34.8518 249.004 34.3676 249.185C33.8834 249.365 33.3515 249.455 32.7719 249.455C31.8601 249.455 31.0507 249.227 30.3439 248.771C29.637 248.312 29.0822 247.665 28.6793 246.831C28.2799 245.997 28.0802 245.013 28.0802 243.878C28.0802 242.744 28.2799 241.759 28.6793 240.925C29.0822 240.091 29.637 239.446 30.3439 238.99C31.0507 238.531 31.8601 238.301 32.7719 238.301C33.3515 238.301 33.8834 238.391 34.3676 238.571C34.8518 238.748 35.2794 238.999 35.6505 239.324C36.0252 239.646 36.3326 240.02 36.573 240.448C36.8168 240.876 36.9829 241.34 37.0713 241.842ZM42.3686 249.476C41.6653 249.476 41.0433 249.298 40.5026 248.941C39.9654 248.584 39.5448 248.091 39.2409 247.462C38.9369 246.829 38.7849 246.099 38.7849 245.272C38.7849 244.438 38.9369 243.705 39.2409 243.072C39.5448 242.436 39.9654 241.941 40.5026 241.588C41.0433 241.231 41.6653 241.052 42.3686 241.052C43.072 241.052 43.6922 241.231 44.2294 241.588C44.7666 241.945 45.1872 242.44 45.4911 243.072C45.7986 243.705 45.9523 244.438 45.9523 245.272C45.9523 246.099 45.8004 246.829 45.4964 247.462C45.1925 248.091 44.7701 248.584 44.2294 248.941C43.6922 249.298 43.072 249.476 42.3686 249.476ZM42.3686 248.612C42.9341 248.612 43.413 248.46 43.8053 248.156C44.1976 247.852 44.4945 247.448 44.6959 246.942C44.9009 246.437 45.0034 245.88 45.0034 245.272C45.0034 244.664 44.9009 244.106 44.6959 243.597C44.4945 243.088 44.1976 242.68 43.8053 242.372C43.413 242.065 42.9341 241.911 42.3686 241.911C41.8067 241.911 41.3278 242.065 40.932 242.372C40.5397 242.68 40.241 243.088 40.0361 243.597C39.8346 244.106 39.7339 244.664 39.7339 245.272C39.7339 245.88 39.8346 246.437 40.0361 246.942C40.241 247.448 40.5397 247.852 40.932 248.156C41.3243 248.46 41.8032 248.612 42.3686 248.612ZM50.9555 249.476C50.2875 249.476 49.7026 249.3 49.2007 248.946C48.6989 248.593 48.3066 248.1 48.0238 247.467C47.7446 246.834 47.605 246.098 47.605 245.256C47.605 244.419 47.7446 243.685 48.0238 243.056C48.3066 242.424 48.7006 241.932 49.206 241.583C49.7114 241.229 50.2999 241.052 50.9714 241.052C51.4662 241.052 51.8779 241.141 52.2066 241.318C52.5353 241.491 52.7986 241.706 52.9965 241.964C53.1944 242.222 53.3482 242.473 53.4577 242.717H53.5425V238.45H54.4915V249.307H53.569V247.796H53.4577C53.3482 248.043 53.1926 248.298 52.9912 248.559C52.7897 248.817 52.5229 249.035 52.1907 249.211C51.862 249.388 51.4503 249.476 50.9555 249.476ZM51.0668 248.612C51.5934 248.612 52.0423 248.469 52.4134 248.183C52.7844 247.893 53.0672 247.495 53.2616 246.99C53.4595 246.481 53.5584 245.898 53.5584 245.241C53.5584 244.59 53.4612 244.016 53.2669 243.518C53.0725 243.016 52.7897 242.623 52.4187 242.341C52.0476 242.054 51.5969 241.911 51.0668 241.911C50.5225 241.911 50.0631 242.06 49.6885 242.357C49.3174 242.65 49.0346 243.048 48.8403 243.549C48.6494 244.051 48.554 244.615 48.554 245.241C48.554 245.873 48.6512 246.444 48.8456 246.953C49.0399 247.462 49.3227 247.866 49.6938 248.167C50.0684 248.464 50.5261 248.612 51.0668 248.612ZM60.4714 249.476C59.7115 249.476 59.0542 249.3 58.4993 248.946C57.9444 248.589 57.515 248.096 57.2111 247.467C56.9107 246.834 56.7604 246.106 56.7604 245.283C56.7604 244.463 56.9107 243.735 57.2111 243.099C57.515 242.459 57.9338 241.959 58.4675 241.598C59.0047 241.234 59.6249 241.052 60.3282 241.052C60.77 241.052 61.1959 241.134 61.6059 241.296C62.0158 241.455 62.3834 241.701 62.7085 242.033C63.0372 242.362 63.297 242.777 63.4878 243.279C63.6787 243.777 63.7741 244.368 63.7741 245.05V245.516H57.4125V244.684H62.8093C62.8093 244.161 62.7032 243.691 62.4912 243.274C62.2827 242.853 61.9911 242.521 61.6165 242.277C61.2454 242.033 60.816 241.911 60.3282 241.911C59.8122 241.911 59.3581 242.049 58.9658 242.325C58.5735 242.6 58.266 242.964 58.0434 243.417C57.8242 243.869 57.7129 244.364 57.7094 244.901V245.4C57.7094 246.046 57.8207 246.612 58.0434 247.096C58.2696 247.577 58.5894 247.949 59.0029 248.215C59.4164 248.48 59.9059 248.612 60.4714 248.612C60.8566 248.612 61.1941 248.552 61.4839 248.432C61.7773 248.312 62.0229 248.151 62.2208 247.949C62.4223 247.745 62.5742 247.52 62.6767 247.276L63.5727 247.568C63.449 247.911 63.2457 248.227 62.963 248.517C62.6838 248.807 62.3339 249.04 61.9133 249.217C61.4963 249.39 61.0157 249.476 60.4714 249.476ZM73.2595 241.164V241.985H69.3736V241.164H73.2595ZM70.5877 239.213H71.5366V247.181C71.5366 247.52 71.5949 247.787 71.7115 247.981C71.8282 248.172 71.9801 248.308 72.1675 248.39C72.3548 248.467 72.5544 248.506 72.7665 248.506C72.8902 248.506 72.9962 248.499 73.0846 248.485C73.1729 248.467 73.2507 248.45 73.3178 248.432L73.5193 249.285C73.4274 249.321 73.3143 249.353 73.18 249.381C73.0457 249.413 72.8796 249.429 72.6817 249.429C72.3353 249.429 72.0013 249.353 71.6797 249.201C71.3616 249.049 71.1001 248.822 70.8951 248.522C70.6901 248.222 70.5877 247.849 70.5877 247.403V239.213ZM76.5212 244.217V249.307H75.5775V238.45H76.5212V242.441H76.606C76.7968 242.021 77.092 241.685 77.4913 241.434C77.8942 241.183 78.4031 241.058 79.0181 241.058C79.5694 241.058 80.0536 241.171 80.4707 241.397C80.8877 241.623 81.2129 241.957 81.4461 242.399C81.6794 242.841 81.796 243.385 81.796 244.032V249.307H80.8471V244.09C80.8471 243.419 80.6598 242.89 80.2851 242.505C79.914 242.116 79.4122 241.922 78.7795 241.922C78.3448 241.922 77.9578 242.014 77.6186 242.198C77.2793 242.381 77.0107 242.646 76.8127 242.993C76.6184 243.336 76.5212 243.744 76.5212 244.217ZM87.5731 249.476C86.8133 249.476 86.1559 249.3 85.601 248.946C85.0462 248.589 84.6168 248.096 84.3128 247.467C84.0124 246.834 83.8622 246.106 83.8622 245.283C83.8622 244.463 84.0124 243.735 84.3128 243.099C84.6168 242.459 85.0356 241.959 85.5692 241.598C86.1064 241.234 86.7267 241.052 87.43 241.052C87.8718 241.052 88.2977 241.134 88.7076 241.296C89.1176 241.455 89.4851 241.701 89.8103 242.033C90.139 242.362 90.3987 242.777 90.5896 243.279C90.7804 243.777 90.8759 244.368 90.8759 245.05V245.516H84.5143V244.684H89.911C89.911 244.161 89.805 243.691 89.5929 243.274C89.3844 242.853 89.0929 242.521 88.7182 242.277C88.3471 242.033 87.9177 241.911 87.43 241.911C86.914 241.911 86.4599 242.049 86.0676 242.325C85.6753 242.6 85.3678 242.964 85.1451 243.417C84.926 243.869 84.8147 244.364 84.8111 244.901V245.4C84.8111 246.046 84.9225 246.612 85.1451 247.096C85.3713 247.577 85.6912 247.949 86.1047 248.215C86.5182 248.48 87.0077 248.612 87.5731 248.612C87.9584 248.612 88.2959 248.552 88.5857 248.432C88.879 248.312 89.1247 248.151 89.3226 247.949C89.524 247.745 89.676 247.52 89.7785 247.276L90.6744 247.568C90.5507 247.911 90.3475 248.227 90.0648 248.517C89.7856 248.807 89.4357 249.04 89.0151 249.217C88.5981 249.39 88.1174 249.476 87.5731 249.476ZM100.086 249.476C99.4176 249.476 98.8327 249.3 98.3309 248.946C97.829 248.593 97.4367 248.1 97.154 247.467C96.8748 246.834 96.7352 246.098 96.7352 245.256C96.7352 244.419 96.8748 243.685 97.154 243.056C97.4367 242.424 97.8308 241.932 98.3362 241.583C98.8416 241.229 99.43 241.052 100.102 241.052C100.596 241.052 101.008 241.141 101.337 241.318C101.665 241.491 101.929 241.706 102.127 241.964C102.325 242.222 102.478 242.473 102.588 242.717H102.673V238.45H103.622V249.307H102.699V247.796H102.588C102.478 248.043 102.323 248.298 102.121 248.559C101.92 248.817 101.653 249.035 101.321 249.211C100.992 249.388 100.58 249.476 100.086 249.476ZM100.197 248.612C100.724 248.612 101.172 248.469 101.543 248.183C101.915 247.893 102.197 247.495 102.392 246.99C102.59 246.481 102.689 245.898 102.689 245.241C102.689 244.59 102.591 244.016 102.397 243.518C102.203 243.016 101.92 242.623 101.549 242.341C101.178 242.054 100.727 241.911 100.197 241.911C99.6527 241.911 99.1932 242.06 98.8186 242.357C98.4475 242.65 98.1648 243.048 97.9704 243.549C97.7795 244.051 97.6841 244.615 97.6841 245.241C97.6841 245.873 97.7813 246.444 97.9757 246.953C98.1701 247.462 98.4528 247.866 98.8239 248.167C99.1985 248.464 99.6562 248.612 100.197 248.612ZM106.309 249.307V241.164H107.227V242.415H107.295C107.458 242.005 107.741 241.674 108.144 241.424C108.55 241.169 109.01 241.042 109.522 241.042C109.6 241.042 109.686 241.044 109.782 241.047C109.877 241.051 109.957 241.054 110.02 241.058V242.017C109.978 242.01 109.904 242 109.798 241.985C109.692 241.971 109.577 241.964 109.453 241.964C109.029 241.964 108.651 242.054 108.319 242.235C107.99 242.411 107.73 242.657 107.539 242.972C107.348 243.286 107.253 243.645 107.253 244.048V249.307H106.309ZM114.675 249.476C113.915 249.476 113.258 249.3 112.703 248.946C112.148 248.589 111.719 248.096 111.415 247.467C111.114 246.834 110.964 246.106 110.964 245.283C110.964 244.463 111.114 243.735 111.415 243.099C111.719 242.459 112.137 241.959 112.671 241.598C113.208 241.234 113.828 241.052 114.532 241.052C114.974 241.052 115.399 241.134 115.809 241.296C116.219 241.455 116.587 241.701 116.912 242.033C117.241 242.362 117.501 242.777 117.691 243.279C117.882 243.777 117.978 244.368 117.978 245.05V245.516H111.616V244.684H117.013C117.013 244.161 116.907 243.691 116.695 243.274C116.486 242.853 116.195 242.521 115.82 242.277C115.449 242.033 115.019 241.911 114.532 241.911C114.016 241.911 113.562 242.049 113.169 242.325C112.777 242.6 112.47 242.964 112.247 243.417C112.028 243.869 111.916 244.364 111.913 244.901V245.4C111.913 246.046 112.024 246.612 112.247 247.096C112.473 247.577 112.793 247.949 113.206 248.215C113.62 248.48 114.109 248.612 114.675 248.612C115.06 248.612 115.398 248.552 115.687 248.432C115.981 248.312 116.226 248.151 116.424 247.949C116.626 247.745 116.778 247.52 116.88 247.276L117.776 247.568C117.652 247.911 117.449 248.227 117.167 248.517C116.887 248.807 116.537 249.04 116.117 249.217C115.7 249.39 115.219 249.476 114.675 249.476ZM122.331 249.492C121.84 249.492 121.391 249.397 120.985 249.206C120.578 249.012 120.255 248.732 120.015 248.368C119.774 248.001 119.654 247.555 119.654 247.032C119.654 246.629 119.73 246.29 119.882 246.015C120.034 245.739 120.25 245.513 120.529 245.336C120.808 245.159 121.139 245.02 121.52 244.917C121.902 244.815 122.323 244.735 122.782 244.679C123.238 244.622 123.623 244.573 123.938 244.53C124.256 244.488 124.498 244.421 124.664 244.329C124.83 244.237 124.913 244.088 124.913 243.883V243.693C124.913 243.138 124.747 242.701 124.415 242.383C124.086 242.061 123.612 241.901 122.994 241.901C122.407 241.901 121.928 242.03 121.557 242.288C121.19 242.546 120.932 242.85 120.783 243.2L119.887 242.876C120.071 242.431 120.326 242.076 120.651 241.811C120.976 241.542 121.34 241.349 121.743 241.233C122.146 241.113 122.554 241.052 122.968 241.052C123.279 241.052 123.602 241.093 123.938 241.174C124.277 241.256 124.591 241.397 124.881 241.598C125.171 241.796 125.406 242.074 125.586 242.431C125.767 242.784 125.857 243.233 125.857 243.777V249.307H124.913V248.018H124.855C124.742 248.259 124.574 248.492 124.351 248.718C124.128 248.944 123.849 249.13 123.514 249.275C123.178 249.42 122.784 249.492 122.331 249.492ZM122.459 248.628C122.96 248.628 123.395 248.517 123.763 248.294C124.13 248.071 124.413 247.776 124.611 247.409C124.812 247.038 124.913 246.629 124.913 246.184V245.007C124.842 245.074 124.724 245.134 124.558 245.188C124.395 245.241 124.206 245.288 123.991 245.331C123.779 245.37 123.567 245.403 123.355 245.431C123.142 245.46 122.952 245.484 122.782 245.506C122.323 245.562 121.93 245.65 121.605 245.771C121.28 245.891 121.031 246.057 120.858 246.269C120.684 246.477 120.598 246.746 120.598 247.075C120.598 247.57 120.775 247.953 121.128 248.225C121.481 248.494 121.925 248.628 122.459 248.628ZM128.367 249.307V241.164H129.284V242.415H129.369C129.531 241.994 129.802 241.664 130.18 241.424C130.562 241.18 131.019 241.058 131.553 241.058C132.115 241.058 132.576 241.19 132.937 241.455C133.301 241.717 133.573 242.077 133.753 242.537H133.822C134.006 242.084 134.304 241.726 134.718 241.461C135.135 241.192 135.64 241.058 136.234 241.058C136.99 241.058 137.588 241.296 138.026 241.773C138.464 242.247 138.683 242.94 138.683 243.852V249.307H137.74V243.852C137.74 243.208 137.575 242.726 137.247 242.404C136.918 242.083 136.485 241.922 135.948 241.922C135.326 241.922 134.847 242.113 134.511 242.494C134.175 242.876 134.008 243.36 134.008 243.947V249.307H133.043V243.767C133.043 243.215 132.889 242.77 132.581 242.431C132.274 242.092 131.841 241.922 131.283 241.922C130.908 241.922 130.571 242.014 130.27 242.198C129.973 242.381 129.738 242.638 129.565 242.966C129.395 243.291 129.311 243.666 129.311 244.09V249.307H128.367Z" fill="#8F8F8F"/>
<path d="M14.9711 229.654V201.735H32.2838V205.362H19.1834V213.868H31.0433V217.48H19.1834V229.654H14.9711ZM49.4737 213.922V217.467H37.0959V213.922H49.4737ZM78.4213 210.814H74.1681C74.0045 209.906 73.7001 209.106 73.2548 208.415C72.8095 207.724 72.2642 207.138 71.6189 206.657C70.9737 206.175 70.2512 205.811 69.4515 205.566C68.6608 205.321 67.8202 205.198 66.9295 205.198C65.321 205.198 63.8805 205.602 62.6082 206.411C61.345 207.22 60.3453 208.406 59.6091 209.969C58.8821 211.532 58.5186 213.441 58.5186 215.695C58.5186 217.967 58.8821 219.884 59.6091 221.447C60.3453 223.01 61.3495 224.192 62.6218 224.992C63.8941 225.791 65.3255 226.191 66.9159 226.191C67.7974 226.191 68.6335 226.073 69.4242 225.837C70.2239 225.591 70.9464 225.232 71.5917 224.76C72.2369 224.287 72.7822 223.71 73.2275 223.029C73.6819 222.338 73.9955 221.547 74.1681 220.657L78.4213 220.67C78.1941 222.043 77.7533 223.306 77.099 224.46C76.4538 225.605 75.6222 226.596 74.6044 227.432C73.5956 228.259 72.4414 228.9 71.1418 229.354C69.8422 229.808 68.4245 230.036 66.8886 230.036C64.4712 230.036 62.3174 229.463 60.4271 228.318C58.5368 227.164 57.0463 225.514 55.9558 223.369C54.8743 221.225 54.3336 218.666 54.3336 215.695C54.3336 212.714 54.8788 210.155 55.9694 208.02C57.06 205.875 58.5504 204.23 60.4407 203.085C62.331 201.931 64.4803 201.354 66.8886 201.354C68.37 201.354 69.7514 201.567 71.0328 201.994C72.3233 202.413 73.482 203.03 74.5089 203.848C75.5359 204.657 76.3856 205.648 77.0581 206.82C77.7306 207.983 78.185 209.315 78.4213 210.814ZM91.9545 230.076C89.9915 230.076 88.2784 229.627 86.8152 228.727C85.3521 227.827 84.2161 226.568 83.4072 224.951C82.5984 223.333 82.194 221.443 82.194 219.28C82.194 217.108 82.5984 215.208 83.4072 213.582C84.2161 211.955 85.3521 210.692 86.8152 209.792C88.2784 208.892 89.9915 208.442 91.9545 208.442C93.9175 208.442 95.6306 208.892 97.0938 209.792C98.5569 210.692 99.6929 211.955 100.502 213.582C101.311 215.208 101.715 217.108 101.715 219.28C101.715 221.443 101.311 223.333 100.502 224.951C99.6929 226.568 98.5569 227.827 97.0938 228.727C95.6306 229.627 93.9175 230.076 91.9545 230.076ZM91.9681 226.655C93.2404 226.655 94.2947 226.319 95.1307 225.646C95.9668 224.973 96.5848 224.078 96.9847 222.96C97.3937 221.843 97.5981 220.611 97.5981 219.266C97.5981 217.93 97.3937 216.703 96.9847 215.586C96.5848 214.459 95.9668 213.554 95.1307 212.873C94.2947 212.191 93.2404 211.85 91.9681 211.85C90.6867 211.85 89.6234 212.191 88.7782 212.873C87.9421 213.554 87.3196 214.459 86.9106 215.586C86.5108 216.703 86.3108 217.93 86.3108 219.266C86.3108 220.611 86.5108 221.843 86.9106 222.96C87.3196 224.078 87.9421 224.973 88.7782 225.646C89.6234 226.319 90.6867 226.655 91.9681 226.655ZM114.103 230.063C112.413 230.063 110.904 229.631 109.577 228.768C108.26 227.895 107.223 226.655 106.469 225.046C105.724 223.429 105.351 221.488 105.351 219.225C105.351 216.962 105.728 215.027 106.483 213.418C107.246 211.81 108.291 210.578 109.618 209.724C110.945 208.87 112.449 208.442 114.13 208.442C115.43 208.442 116.475 208.661 117.266 209.097C118.065 209.524 118.683 210.024 119.12 210.596C119.565 211.169 119.91 211.673 120.156 212.109H120.401V201.735H124.477V229.654H120.497V226.396H120.156C119.91 226.841 119.556 227.35 119.092 227.923C118.638 228.495 118.011 228.995 117.211 229.422C116.411 229.849 115.375 230.063 114.103 230.063ZM115.003 226.587C116.175 226.587 117.166 226.278 117.975 225.66C118.793 225.033 119.41 224.165 119.829 223.056C120.256 221.947 120.469 220.657 120.469 219.184C120.469 217.73 120.26 216.458 119.842 215.367C119.424 214.277 118.811 213.427 118.002 212.818C117.193 212.209 116.193 211.905 115.003 211.905C113.776 211.905 112.754 212.223 111.936 212.859C111.118 213.495 110.5 214.363 110.082 215.463C109.673 216.563 109.468 217.803 109.468 219.184C109.468 220.584 109.677 221.843 110.095 222.96C110.513 224.078 111.131 224.964 111.949 225.619C112.776 226.264 113.794 226.587 115.003 226.587ZM139.319 230.076C137.256 230.076 135.479 229.636 133.989 228.754C132.507 227.863 131.362 226.614 130.554 225.005C129.754 223.388 129.354 221.493 129.354 219.321C129.354 217.176 129.754 215.286 130.554 213.65C131.362 212.014 132.489 210.737 133.934 209.819C135.388 208.901 137.088 208.442 139.033 208.442C140.214 208.442 141.359 208.638 142.468 209.029C143.577 209.419 144.572 210.033 145.453 210.869C146.335 211.705 147.03 212.791 147.539 214.127C148.048 215.454 148.302 217.067 148.302 218.966V220.411H131.658V217.358H144.308C144.308 216.285 144.09 215.336 143.654 214.509C143.218 213.673 142.604 213.014 141.814 212.532C141.032 212.05 140.114 211.81 139.06 211.81C137.915 211.81 136.915 212.091 136.061 212.655C135.216 213.209 134.561 213.936 134.098 214.836C133.643 215.726 133.416 216.694 133.416 217.739V220.125C133.416 221.525 133.662 222.715 134.152 223.697C134.652 224.678 135.347 225.428 136.238 225.946C137.129 226.455 138.169 226.709 139.36 226.709C140.132 226.709 140.837 226.6 141.473 226.382C142.109 226.155 142.659 225.819 143.122 225.373C143.586 224.928 143.94 224.378 144.186 223.724L148.043 224.419C147.734 225.555 147.18 226.55 146.38 227.405C145.59 228.25 144.594 228.909 143.395 229.381C142.204 229.845 140.846 230.076 139.319 230.076Z" fill="#374141"/>
<path d="M115.352 105.215L128.148 62.0288L20.9824 102.549L8.7196 143.603L115.352 105.215Z" fill="url(#paint2_linear_63_109)"/>
<path d="M121.217 84.9548L128.148 62.0288L20.9823 102.549L18.3165 111.613L121.217 84.9548Z" fill="url(#paint3_linear_63_109)"/>
<defs>
<linearGradient id="paint0_linear_63_109" x1="13.5181" y1="75.8911" x2="147.342" y2="12.4447" gradientUnits="userSpaceOnUse">
<stop stop-color="#2DB656"/>
<stop offset="1" stop-color="#74DC65"/>
</linearGradient>
<linearGradient id="paint1_linear_63_109" x1="28.9798" y1="126.008" x2="73.7655" y2="165.462" gradientUnits="userSpaceOnUse">
<stop offset="0.0652429" stop-color="#E3B525"/>
<stop offset="0.789675" stop-color="#FFC81B"/>
</linearGradient>
<linearGradient id="paint2_linear_63_109" x1="68.4339" y1="78.0237" x2="88.1609" y2="125.475" gradientUnits="userSpaceOnUse">
<stop offset="0.167047" stop-color="#1D8D2B"/>
<stop offset="0.43085" stop-color="#2DA150"/>
<stop offset="0.807736" stop-color="#2BB857"/>
</linearGradient>
<linearGradient id="paint3_linear_63_109" x1="68.4338" y1="78.0237" x2="88.1609" y2="125.475" gradientUnits="userSpaceOnUse">
<stop offset="0.0581062" stop-color="#218F2F"/>
</linearGradient>
</defs>
</svg>
