<svg width="25" height="25" viewBox="0 0 25 25" fill="none" xmlns="http://www.w3.org/2000/svg">
<rect width="25" height="25" rx="12.5" fill="#33BD64"/>
<path d="M12.512 6C10.4707 6 9.14847 6.89422 8.1104 8.48899C7.92209 8.77829 7.98015 9.17494 8.24283 9.38789L9.34608 10.2823C9.61137 10.4973 9.98884 10.4471 10.1965 10.1689C10.8372 9.31078 11.3124 8.81673 12.313 8.81673C13.0998 8.81673 14.073 9.35811 14.073 10.1738C14.073 10.7905 13.5969 11.1072 12.82 11.5728C11.9141 12.1159 10.7152 12.7917 10.7152 14.4824V14.75C10.7152 15.1124 10.99 15.4062 11.329 15.4062H13.1825C13.5215 15.4062 13.7963 15.1124 13.7963 14.75V14.5921C13.7963 13.4202 17 13.3714 17 10.2C17 7.81169 14.6829 6 12.512 6ZM12.2558 16.2118C11.2789 16.2118 10.4841 17.0615 10.4841 18.1059C10.4841 19.1503 11.2789 20 12.2558 20C13.2326 20 14.0274 19.1503 14.0274 18.1059C14.0274 17.0614 13.2326 16.2118 12.2558 16.2118Z" fill="white"/>
</svg>
