<svg width="492" height="492" viewBox="0 0 492 492" fill="none" xmlns="http://www.w3.org/2000/svg">
<circle cx="246" cy="246" r="246" fill="#19A941" fill-opacity="0.1"/>
<path d="M164.171 448.109C164.171 450.341 131.749 452.15 91.7535 452.15C51.7588 452.15 19.3367 450.341 19.3367 448.109C19.3367 445.878 51.7588 444.068 91.7535 444.068C131.749 444.068 164.171 445.878 164.171 448.109Z" fill="#B38D3E"/>
<path d="M122.601 302.546V441.436H88.2913L92.0166 336.735L79.2119 441.436H44.9182L71.2904 302.546H122.601Z" fill="#399B77"/>
<path d="M79.4426 215.272L78.7071 215.536C71.546 218.106 66.3674 224.392 65.2145 231.912L59.6658 268.097L75.0256 262.559L79.4426 215.272Z" fill="#C5C6C9"/>
<path d="M64.2289 238.339L59.6658 268.097L75.0256 262.559L77.0825 240.54L64.2289 238.339Z" fill="#C4787D"/>
<path d="M102.614 210.867L122.601 219.708V302.546H71.2905L79.4427 215.272L102.614 210.867Z" fill="white"/>
<path d="M91.3473 185.498C91.3473 185.498 91.1346 182.942 92.6829 181.302C94.2312 179.663 100.607 177.022 106.528 180.574C112.448 184.127 115.454 189.41 112.63 199.611C110.261 206.259 106.402 207.995 106.402 207.995L98.4396 196.787L91.3473 185.498Z" fill="#20606F"/>
<path d="M98.0805 229.083L86.2846 272.739C84.6875 278.649 80.5051 283.52 74.9048 285.994L72.7471 286.947L76.9751 241.684L98.0805 229.083Z" fill="#979A9F"/>
<path d="M122.601 279.277C122.601 279.277 107.25 280.556 107.25 302.546H122.601V279.277Z" fill="#979A9F"/>
<path d="M91.4178 185.085C91.4178 185.085 89.4482 196.288 89.6034 203.681C89.6236 204.67 90.4088 205.47 91.3947 205.537L98.0535 205.997L96.8157 213.323C96.4074 215.743 98.2722 217.95 100.727 217.95H101.911C103.971 217.95 105.689 216.373 105.863 214.32L107.286 197.605C107.286 197.605 92.8603 191.869 91.4178 185.085Z" fill="#F18C8D"/>
<path d="M110.353 197.424C110.353 199.336 108.803 200.886 106.892 200.886C104.98 200.886 103.43 199.336 103.43 197.424C103.43 195.513 104.98 193.963 106.892 193.963C108.803 193.963 110.353 195.513 110.353 197.424Z" fill="#F18C8D"/>
<path d="M93.591 195.237C93.5013 196.213 93.1444 196.98 92.7936 196.947C92.4429 196.915 92.2312 196.097 92.3209 195.12C92.4106 194.143 92.7674 193.377 93.1182 193.41C93.469 193.441 93.6807 194.26 93.591 195.237Z" fill="#20606F"/>
<path d="M92.3985 192.193L92.3895 192.137L92.3985 192.193L92.3895 192.137L92.3985 192.193C92.4146 192.191 92.5578 192.17 92.7604 192.17C92.9922 192.169 93.2997 192.198 93.5809 192.291C93.8642 192.386 94.1091 192.534 94.2926 192.778C94.4942 193.046 94.8732 193.1 95.1413 192.899C95.4084 192.699 95.4628 192.319 95.2623 192.051C94.8994 191.567 94.4125 191.289 93.9609 191.141C93.5083 190.992 93.0809 190.96 92.7604 190.959C92.4399 190.959 92.2262 190.993 92.202 190.997C91.8713 191.052 91.6486 191.364 91.703 191.694C91.7574 192.024 92.0689 192.247 92.3985 192.193Z" fill="#20606F"/>
<path d="M98.0536 205.997H101.804C101.804 205.997 99.4063 213.243 96.7109 213.947C98.0536 205.997 98.0536 205.997 98.0536 205.997Z" fill="#3F2B24"/>
<path d="M122.601 219.708L126.797 221.769C132.712 224.674 137.416 229.568 140.088 235.592L156.885 273.469C160.092 280.698 156.63 289.142 149.272 292.04L122.601 302.546H118.643C115.577 302.546 113.091 300.061 113.091 296.994V288.005C113.091 285.705 114.51 283.642 116.658 282.82L133.889 276.225L120.147 246.647C120.147 246.647 116.024 222.121 122.601 219.708Z" fill="#F18C8D"/>
<path d="M88.2914 441.436C88.2914 441.436 85.1993 440.957 83.7598 446.71C119.245 446.71 122.601 446.71 122.601 446.71V441.436H88.2914Z" fill="#3F2B24"/>
<path d="M44.7763 441.436C44.7763 441.436 41.6846 440.957 40.2446 446.71C75.7294 446.71 79.0861 446.71 79.0861 446.71V441.436H44.7763Z" fill="#3F2B24"/>
<path d="M140.088 235.592C137.416 229.568 132.712 224.674 126.797 221.769L122.601 219.708C116.024 222.121 120.147 246.647 120.147 246.647L124.905 256.888C129.963 253.824 137.734 249.962 146.013 248.953L140.088 235.592Z" fill="#C5C6C9"/>
<path d="M146.013 282.928C146.013 286.484 147.837 289.613 150.598 291.437C157.035 288.097 159.892 280.248 156.885 273.469L156.566 272.747C156.447 272.743 156.331 272.73 156.211 272.73C150.579 272.73 146.013 277.295 146.013 282.928Z" fill="#E66466"/>
<path d="M122.601 441.436H110.617V311.647L122.601 314.42V441.436Z" fill="#49C09C"/>
<path d="M79.3452 440.343L91.6304 339.89C91.6607 339.932 91.6939 339.979 91.7242 340.023L79.3452 440.343Z" fill="#2F7835"/>
<path d="M91.7241 340.023C91.6939 339.98 91.6606 339.932 91.6304 339.89L91.8169 338.364C91.9146 338.146 91.967 338.034 91.9701 338.029L91.7241 340.023Z" fill="#328549"/>
<path d="M79.2116 441.427C79.2116 441.427 79.2115 441.427 68.3735 441.427C74.4188 378.355 90.0991 342.176 91.8167 338.364L91.6302 339.89L79.345 440.343L79.2116 441.427ZM91.9699 338.029C91.9699 338.028 91.9699 338.028 91.9699 338.028V338.029Z" fill="#225737"/>
<path d="M110.617 311.647L91.9703 307.331V302.547H83.7598C83.7598 302.547 83.7212 303.629 83.7283 305.424L71.2905 302.547H110.617V311.647Z" fill="#225737"/>
<path d="M122.601 314.42L110.617 311.647V302.546H118.643H122.601V314.42Z" fill="#2A7450"/>
<path d="M91.97 338.028C91.9357 338.002 91.9014 337.975 91.8682 337.947L91.97 337.111V338.026V338.028Z" fill="#328549"/>
<path d="M91.97 338.028V338.026V338.028ZM91.8682 337.947C84.551 332.037 83.7576 312.768 83.728 305.424L91.97 307.331V337.111L91.8682 337.947Z" fill="#225737"/>
<path d="M91.9699 307.331L83.7279 305.424C83.7208 303.629 83.7594 302.546 83.7594 302.546H91.9699V307.331Z" fill="#143018"/>
<path d="M53.5552 395.951L59.2409 366.005L53.5552 395.951Z" fill="#8BA241"/>
<path d="M55.5251 396.092C54.8557 396.092 54.2013 396.033 53.5552 395.95L59.2409 366.005C65.8803 367.667 70.805 373.657 70.805 380.811C70.805 389.25 63.9639 396.092 55.5251 396.092Z" fill="#307F5F"/>
<path d="M90.5225 378.71L90.9892 365.581H90.9902L90.5225 378.71Z" fill="#8BA241"/>
<path d="M91.97 396.092C91.2695 396.092 90.585 396.028 89.9097 395.936L90.5225 378.71L90.9902 365.581C91.3158 365.559 91.6394 365.531 91.97 365.531C100.409 365.531 107.25 372.372 107.25 380.811C107.25 389.25 100.409 396.092 91.97 396.092Z" fill="#307F5F"/>
<path d="M122.601 302.546H118.643C118.35 302.546 118.061 302.524 117.78 302.48C115.124 302.066 113.091 299.767 113.091 296.994V288.005C113.091 285.705 114.51 283.642 116.658 282.82C116.658 282.82 122.601 284.203 122.601 302.546Z" fill="#F6B6B7"/>
<path d="M157.087 273.945C157.085 273.939 157.082 273.933 157.08 273.927C157.079 273.926 157.079 273.926 157.079 273.925C157.077 273.919 157.074 273.913 157.072 273.908C157.072 273.907 157.071 273.906 157.071 273.905C157.068 273.899 157.066 273.893 157.064 273.887C157.063 273.887 157.063 273.886 157.063 273.886C157.061 273.88 157.058 273.874 157.056 273.867C157.055 273.867 157.055 273.866 157.055 273.865C157.036 273.819 157.017 273.774 156.998 273.729C156.997 273.728 156.997 273.727 156.997 273.727C156.995 273.722 156.993 273.716 156.99 273.71C156.99 273.709 156.989 273.707 156.988 273.705C156.986 273.7 156.984 273.696 156.982 273.691C156.981 273.689 156.98 273.687 156.98 273.685C156.978 273.68 156.976 273.676 156.974 273.671C156.973 273.669 156.972 273.666 156.971 273.664C156.969 273.66 156.967 273.656 156.965 273.651C156.964 273.649 156.963 273.646 156.962 273.644C156.96 273.64 156.959 273.636 156.957 273.631C156.956 273.629 156.954 273.626 156.953 273.623C156.952 273.619 156.95 273.615 156.948 273.611C156.947 273.609 156.946 273.606 156.945 273.603C156.943 273.599 156.941 273.595 156.939 273.589C156.938 273.587 156.937 273.585 156.936 273.583C156.934 273.578 156.932 273.574 156.93 273.569C156.929 273.567 156.928 273.565 156.928 273.563C156.926 273.558 156.924 273.554 156.922 273.549C156.92 273.546 156.919 273.544 156.918 273.541C156.916 273.537 156.915 273.533 156.913 273.529C156.912 273.526 156.91 273.523 156.909 273.52C156.908 273.517 156.906 273.512 156.904 273.509C156.903 273.506 156.9 273.503 156.899 273.5C156.897 273.496 156.896 273.492 156.894 273.488C156.891 273.482 156.888 273.475 156.885 273.469L156.566 272.747L146.013 248.953L140.088 235.592L156.885 273.468C156.956 273.627 157.023 273.786 157.087 273.945ZM140.065 235.541C140.064 235.537 140.062 235.534 140.061 235.53C140.062 235.533 140.064 235.537 140.065 235.541ZM140.037 235.478C140.037 235.478 140.037 235.477 140.036 235.476C140.037 235.477 140.037 235.477 140.037 235.478Z" fill="#F6E0A7"/>
<path d="M147.374 277.835C143.723 272.53 139.877 265.438 135.587 258.015C134.613 256.331 133.795 254.519 133.108 252.63C137.005 250.943 141.431 249.511 146.013 248.953L156.566 272.747C156.447 272.743 156.331 272.73 156.211 272.73C152.433 272.73 149.136 274.783 147.374 277.835ZM157.087 273.945C157.085 273.939 157.082 273.933 157.08 273.927C157.082 273.933 157.085 273.939 157.087 273.945ZM157.079 273.925C157.077 273.919 157.074 273.913 157.072 273.908C157.074 273.913 157.077 273.919 157.079 273.925ZM157.071 273.905C157.068 273.899 157.066 273.893 157.064 273.887C157.066 273.893 157.068 273.899 157.071 273.905ZM157.063 273.886C157.06 273.88 157.057 273.874 157.055 273.867C157.057 273.874 157.06 273.88 157.063 273.886ZM157.054 273.865C157.035 273.819 157.017 273.774 156.998 273.729C157.017 273.774 157.035 273.819 157.054 273.865ZM156.997 273.727C156.995 273.722 156.993 273.717 156.99 273.71C156.993 273.717 156.995 273.722 156.997 273.727ZM156.988 273.705C156.986 273.7 156.984 273.696 156.982 273.691C156.984 273.696 156.986 273.7 156.988 273.705ZM156.98 273.685C156.977 273.68 156.976 273.676 156.974 273.671C156.976 273.676 156.978 273.68 156.98 273.685ZM156.971 273.664C156.969 273.66 156.967 273.656 156.965 273.651C156.967 273.656 156.969 273.66 156.971 273.664ZM156.962 273.644C156.96 273.64 156.959 273.635 156.957 273.631C156.959 273.636 156.96 273.64 156.962 273.644ZM156.953 273.623C156.952 273.619 156.95 273.615 156.948 273.611C156.95 273.615 156.952 273.619 156.953 273.623ZM156.945 273.603C156.943 273.599 156.941 273.595 156.939 273.589C156.941 273.595 156.943 273.599 156.945 273.603ZM156.936 273.583C156.933 273.578 156.931 273.574 156.929 273.569C156.931 273.574 156.933 273.578 156.936 273.583ZM156.927 273.563C156.925 273.559 156.923 273.553 156.921 273.549C156.923 273.554 156.925 273.558 156.927 273.563ZM156.917 273.541C156.915 273.537 156.914 273.533 156.912 273.529C156.914 273.533 156.915 273.537 156.917 273.541ZM156.908 273.52C156.906 273.517 156.905 273.513 156.903 273.509C156.905 273.512 156.907 273.517 156.908 273.52ZM156.899 273.5C156.897 273.496 156.896 273.493 156.894 273.488C156.896 273.492 156.897 273.496 156.899 273.5Z" fill="#F6B6B7"/>
<path d="M133.109 252.63C129.484 242.649 129.556 230.514 129.992 223.64C134.363 226.558 137.864 230.639 140.036 235.476C140.037 235.477 140.037 235.478 140.037 235.478C140.045 235.496 140.053 235.513 140.061 235.53C140.062 235.534 140.064 235.537 140.065 235.54C140.073 235.558 140.08 235.575 140.088 235.592L146.013 248.953C141.432 249.511 137.006 250.943 133.109 252.63Z" fill="#DDDDDD"/>
<path d="M157.103 273.984C157.101 273.981 157.1 273.979 157.099 273.976C157.1 273.979 157.101 273.981 157.103 273.984Z" fill="#F6B6B7"/>
<path d="M157.092 273.958C157.091 273.956 157.089 273.952 157.088 273.949V273.948C157.089 273.952 157.091 273.956 157.092 273.958Z" fill="#F6E0A7"/>
<path d="M157.094 273.964C157.092 273.959 157.09 273.954 157.088 273.949C157.089 273.952 157.091 273.956 157.092 273.959C157.093 273.961 157.094 273.963 157.094 273.964Z" fill="#F6B6B7"/>
<path d="M155.978 286.429C153.149 285.244 150.324 282.123 147.374 277.835C149.136 274.783 152.433 272.73 156.211 272.73C156.331 272.73 156.447 272.743 156.566 272.747L156.886 273.469C156.889 273.475 156.892 273.482 156.895 273.488C156.897 273.493 156.898 273.496 156.9 273.5C156.901 273.503 156.903 273.506 156.904 273.509C156.906 273.513 156.907 273.517 156.909 273.52C156.91 273.523 156.912 273.526 156.913 273.529C156.915 273.533 156.916 273.537 156.918 273.541C156.919 273.544 156.92 273.546 156.922 273.549C156.924 273.553 156.926 273.559 156.928 273.563C156.928 273.565 156.929 273.567 156.93 273.569C156.932 273.574 156.934 273.578 156.936 273.583C156.937 273.586 156.938 273.588 156.939 273.59C156.941 273.595 156.943 273.599 156.945 273.603C156.946 273.606 156.947 273.609 156.948 273.611C156.95 273.615 156.952 273.619 156.953 273.623C156.954 273.626 156.956 273.629 156.957 273.631C156.959 273.635 156.96 273.64 156.962 273.644C156.963 273.646 156.964 273.649 156.965 273.651C156.967 273.656 156.969 273.66 156.971 273.664C156.972 273.666 156.973 273.669 156.974 273.671C156.976 273.676 156.977 273.68 156.98 273.685C156.98 273.687 156.981 273.689 156.982 273.691C156.984 273.696 156.986 273.7 156.988 273.705C156.989 273.707 156.99 273.709 156.99 273.71C156.993 273.717 156.995 273.722 156.997 273.727C156.997 273.727 156.997 273.728 156.998 273.729C157.018 273.774 157.036 273.819 157.055 273.865C157.055 273.866 157.055 273.867 157.056 273.867C157.058 273.874 157.061 273.88 157.063 273.886C157.063 273.886 157.063 273.887 157.064 273.887C157.066 273.893 157.068 273.899 157.071 273.905C157.071 273.906 157.072 273.907 157.072 273.908C157.074 273.913 157.077 273.919 157.079 273.925C157.079 273.926 157.079 273.926 157.08 273.927C157.082 273.933 157.085 273.939 157.087 273.945C157.087 273.946 157.088 273.947 157.088 273.947V273.948C157.09 273.953 157.092 273.958 157.094 273.964C157.096 273.969 157.098 273.973 157.099 273.977C157.1 273.98 157.101 273.982 157.102 273.984C158.785 278.221 158.22 282.809 155.978 286.429Z" fill="#EF968A"/>
<path d="M89.5981 202.184C89.6576 197.777 90.3058 192.477 90.8118 188.958C90.3058 192.478 89.6576 197.779 89.5992 202.184C89.5981 202.184 89.5992 202.184 89.5981 202.184ZM93.3378 188.666C92.6473 187.846 92.0929 186.994 91.7391 186.12L91.7603 186.156C92.1131 187.009 92.6504 187.842 93.3237 188.643L93.3378 188.666Z" fill="#C48257"/>
<path d="M100.041 193.979C97.5907 192.513 95.0445 190.69 93.338 188.666L93.3239 188.643C93.3239 188.643 93.3239 188.644 93.3249 188.644L91.7605 186.155V186.156L91.7393 186.12C91.6002 185.779 91.4923 185.433 91.4177 185.085C91.4177 185.085 91.3925 185.229 91.3482 185.497C91.3442 185.456 91.1466 182.929 92.6828 181.302C93.5063 180.43 95.7017 179.283 98.4626 178.927C98.7237 179.865 100.603 186.93 100.041 193.979Z" fill="#99261F"/>
<path d="M95.0101 205.788L92.3056 205.6L92.5536 203.238C92.6201 202.61 92.3096 202.002 91.7623 201.686L91.7381 201.672C91.4851 201.527 91.2109 201.457 90.9408 201.457C90.4126 201.457 89.8995 201.72 89.5991 202.184C89.6576 197.779 90.3057 192.478 90.8117 188.958C91.0436 187.342 91.2462 186.102 91.348 185.498C91.3924 185.229 91.4176 185.085 91.4176 185.085C91.4921 185.433 91.6 185.779 91.7391 186.12C92.0929 186.994 92.6473 187.846 93.3378 188.666C95.0443 190.69 97.5905 192.513 100.041 193.979C99.6862 198.441 98.3526 202.898 95.0101 205.788ZM93.0969 193.409C92.7532 193.409 92.4084 194.163 92.3207 195.12C92.231 196.097 92.4427 196.915 92.7935 196.947C92.8005 196.947 92.8076 196.948 92.8146 196.948C93.1584 196.948 93.5031 196.193 93.5908 195.237C93.6805 194.26 93.4688 193.442 93.118 193.41C93.111 193.409 93.1039 193.409 93.0969 193.409ZM92.7683 192.171C92.9991 192.171 93.3025 192.199 93.5807 192.291C93.864 192.386 94.1089 192.534 94.2924 192.778C94.4113 192.937 94.5938 193.02 94.7782 193.02C94.9042 193.02 95.0322 192.981 95.1411 192.899C95.4082 192.699 95.4627 192.319 95.2621 192.052C94.8992 191.567 94.4123 191.29 93.9607 191.141C93.5081 190.992 93.0808 190.96 92.7602 190.959C92.4397 190.959 92.226 190.993 92.2018 190.997C91.8712 191.052 91.6484 191.364 91.7028 191.694C91.7512 191.99 92.0082 192.201 92.2996 192.201C92.3328 192.201 92.3651 192.199 92.3983 192.193C92.4185 192.19 92.5596 192.171 92.7582 192.171C92.7592 192.171 92.7592 192.171 92.7602 192.171C92.7632 192.171 92.7652 192.171 92.7683 192.171Z" fill="#BF5C65"/>
<path d="M92.8148 196.948C92.8077 196.948 92.8007 196.947 92.7936 196.947C92.4429 196.915 92.2312 196.096 92.3209 195.12C92.4086 194.163 92.7533 193.409 93.097 193.409C93.1041 193.409 93.1112 193.409 93.1182 193.41C93.469 193.441 93.6807 194.26 93.591 195.237C93.5033 196.193 93.1585 196.948 92.8148 196.948Z" fill="#99261F"/>
<path d="M94.7784 193.02C94.594 193.02 94.4115 192.936 94.2926 192.778C94.1091 192.534 93.8642 192.386 93.5809 192.291C93.3027 192.199 92.9993 192.17 92.7685 192.17C92.7654 192.17 92.7634 192.17 92.7604 192.17C92.7594 192.17 92.7594 192.17 92.7584 192.17C92.5598 192.17 92.4187 192.189 92.3985 192.192C92.3653 192.199 92.333 192.201 92.2997 192.201C92.0084 192.201 91.7514 191.99 91.703 191.694C91.6486 191.364 91.8713 191.051 92.202 190.997C92.2262 190.993 92.4399 190.959 92.7604 190.959C93.0809 190.96 93.5083 190.992 93.9609 191.141C94.4125 191.289 94.8994 191.566 95.2623 192.051C95.4628 192.318 95.4084 192.698 95.1413 192.899C95.0324 192.981 94.9044 193.02 94.7784 193.02Z" fill="#99261F"/>
<path d="M89.4875 202.385L60.6039 264.759C58.6171 269.051 59.863 274.145 63.6056 277.035L63.7748 277.166C69.0216 281.217 76.6811 279.22 79.2835 273.124L98.0807 229.083C99.4657 225.878 98.6825 222.148 96.1262 219.77L91.2898 215.272L92.5538 203.238C92.6203 202.61 92.3099 202.001 91.7625 201.686L91.7383 201.672C90.9239 201.202 89.8826 201.533 89.4875 202.385Z" fill="#F18C8D"/>
<path d="M77.8111 275.54C75.3033 269.922 69.6791 266.001 63.1294 266.001C62.0718 266.001 61.0398 266.11 60.0389 266.305C58.9489 270.221 60.3035 274.486 63.6055 277.035L63.7747 277.166C68.2462 280.618 74.4588 279.667 77.8111 275.54Z" fill="#E66466"/>
<path d="M106.696 180.675C106.695 180.675 106.695 180.675 106.695 180.675C106.695 180.675 106.695 180.675 106.696 180.675ZM106.641 180.643C106.64 180.642 106.639 180.641 106.638 180.64C106.639 180.641 106.64 180.642 106.641 180.643ZM106.613 180.625C106.612 180.625 106.61 180.624 106.609 180.623C106.61 180.624 106.612 180.625 106.613 180.625ZM106.586 180.608C106.585 180.608 106.584 180.607 106.583 180.606C106.584 180.607 106.585 180.608 106.586 180.608ZM106.558 180.592C106.556 180.591 106.554 180.589 106.552 180.588C106.554 180.589 106.556 180.591 106.558 180.592ZM106.528 180.574C106.52 180.569 106.513 180.565 106.505 180.56C106.513 180.565 106.52 180.569 106.528 180.574ZM106.495 180.554C106.492 180.552 106.487 180.55 106.483 180.547C106.487 180.55 106.492 180.552 106.495 180.554ZM106.469 180.539C106.467 180.538 106.465 180.537 106.463 180.536C106.465 180.537 106.467 180.538 106.469 180.539Z" fill="#F6E0A7"/>
<path d="M113.63 194.228C106.503 191.409 102.985 183.937 101.371 178.879C103.022 179.039 104.758 179.527 106.463 180.536C106.465 180.537 106.467 180.538 106.469 180.539C106.474 180.542 106.478 180.545 106.482 180.547C106.486 180.55 106.491 180.552 106.494 180.554C106.498 180.556 106.501 180.558 106.504 180.56C106.512 180.565 106.519 180.569 106.528 180.574C106.536 180.578 106.544 180.584 106.552 180.589C106.554 180.59 106.556 180.592 106.558 180.593C106.566 180.598 106.574 180.602 106.582 180.607C106.583 180.608 106.584 180.609 106.585 180.609C106.593 180.614 106.601 180.619 106.608 180.623C106.609 180.624 106.611 180.625 106.612 180.625C106.62 180.63 106.628 180.635 106.637 180.64C106.638 180.641 106.639 180.642 106.64 180.643C106.659 180.653 106.676 180.664 106.694 180.675C106.694 180.675 106.694 180.675 106.695 180.675C111.371 183.534 114.171 187.516 113.63 194.228Z" fill="#D44739"/>
<path d="M134.136 276.74L141.406 273.244L140.911 272.215L133.641 275.71" fill="#8A2B33"/>
<path d="M112.883 290.117L117.639 291.969L118.053 290.905L113.299 289.052" fill="#8A2B33"/>
<path d="M112.883 295.33L117.639 297.183L118.053 296.118L113.299 294.266" fill="#8A2B33"/>
<path d="M120.147 246.647C120.147 246.647 117.554 266.845 122.601 272.73C123.37 253.586 123.37 253.586 123.37 253.586L120.147 246.647Z" fill="#979A9F"/>
<path d="M89.5247 286.14C87.6932 286.139 87.3509 285.107 89.9097 283.361C98.0493 277.81 111.294 238.297 111.294 238.297C111.294 238.297 113.368 248.94 108.17 268.097C104.606 281.232 93.5204 286.14 89.5247 286.14Z" fill="#E6E6E7"/>
<path d="M82.499 265.589C73.0167 243.943 91.2895 215.272 91.2895 215.272L96.1259 219.77C97.8385 221.364 98.7548 223.564 98.7578 225.805C98.7588 226.91 98.5381 228.025 98.0804 229.083L82.499 265.589Z" fill="#F6B6B7"/>
<path d="M97.1535 141.017C104.797 141.017 109.965 146.293 109.965 152.43C109.965 158.46 105.013 163.519 97.1535 163.519C90.1559 163.519 84.8803 158.028 84.8803 152.43C84.8803 147.047 89.4019 141.017 97.1535 141.017ZM71.207 100.322C78.7437 91.6023 88.4327 86.4343 99.1997 86.4343C113.518 86.4343 124.822 93.9701 124.822 108.504C124.822 122.5 107.704 125.946 107.704 132.405V138.327H87.7874L87.6796 129.714C87.6796 119.809 104.797 114.211 104.797 108.29C104.797 104.198 100.599 103.23 96.8299 103.23C92.2012 103.23 86.4956 107.751 82.8344 112.058L71.207 100.322Z" fill="#B38D3E"/>
<path d="M99.6382 141.017C107.282 141.017 112.45 146.293 112.45 152.43C112.45 158.46 107.499 163.519 99.6382 163.519C92.6407 163.519 87.3658 158.028 87.3658 152.43C87.3658 147.047 91.8877 141.017 99.6382 141.017ZM73.6924 100.322C81.2288 91.6023 90.918 86.4343 101.684 86.4343C116.003 86.4343 127.308 93.9701 127.308 108.504C127.308 122.5 110.189 125.946 110.189 132.405V138.327H90.2719L90.164 129.714C90.164 119.809 107.282 114.211 107.282 108.29C107.282 104.198 103.084 103.23 99.3156 103.23C94.6859 103.23 88.9806 107.751 85.3195 112.058L73.6924 100.322Z" fill="#FFCB31"/>
<path d="M82.834 112.058H85.319L82.7896 109.504L82.834 112.058Z" fill="#B38D3E"/>
<path d="M169.836 96.0776C164.485 96.0776 160.451 91.8783 160.451 87.5973C160.451 83.4807 163.909 78.8701 169.836 78.8701C175.682 78.8701 179.634 82.9051 179.634 87.5973C179.634 92.2079 175.847 96.0776 169.836 96.0776Z" fill="#F9E6B7"/>
<path d="M166.296 63.3157C170.166 59.6163 175.681 56.7818 175.681 53.8425C175.681 50.7137 172.471 49.9728 169.589 49.9728C166.049 49.9728 161.685 53.4312 158.886 56.7243L149.995 47.7501C155.758 41.0822 163.167 37.1298 171.401 37.1298C182.35 37.1298 190.995 42.8926 190.995 54.0068C190.995 54.0159 190.995 54.0249 190.995 54.033C182.493 56.553 174.243 59.6637 166.296 63.3157Z" fill="#F6DA96"/>
<path d="M177.904 76.813H162.674L162.592 70.2267C162.592 67.5686 164.204 65.3158 166.296 63.3159C174.243 59.6639 182.493 56.5532 190.995 54.0332C190.974 64.7149 177.904 67.3489 177.904 72.2851V76.813Z" fill="#F9E6B7"/>
<path d="M325.55 152.686C320.811 152.686 317.239 148.968 317.239 145.176C317.239 141.532 320.301 137.448 325.55 137.448C330.727 137.448 334.227 141.021 334.227 145.176C334.227 149.259 330.873 152.686 325.55 152.686ZM332.696 135.626H319.208L319.135 129.793C319.135 123.086 330.727 119.295 330.727 115.285C330.727 112.514 327.883 111.858 325.331 111.858C322.197 111.858 318.333 114.92 315.854 117.836L307.98 109.89C313.084 103.985 319.645 100.485 326.936 100.485C336.633 100.485 344.288 105.588 344.288 115.43C344.288 124.909 332.696 127.242 332.696 131.616V135.626Z" fill="#F5DEA0"/>
<path d="M386.891 134.75C396.664 134.75 403.272 141.495 403.272 149.341C403.272 157.05 396.94 163.519 386.891 163.519C377.945 163.519 371.199 156.498 371.199 149.341C371.199 142.459 376.981 134.75 386.891 134.75ZM353.717 82.7178C363.353 71.5683 375.741 64.9608 389.507 64.9608C407.815 64.9608 422.268 74.5963 422.268 93.1788C422.268 111.074 400.381 115.479 400.381 123.738V131.308H374.916L374.777 120.297C374.777 107.633 396.664 100.475 396.664 92.9036C396.664 87.6731 391.296 86.4343 386.478 86.4343C380.559 86.4343 373.264 92.2162 368.583 97.7219L353.717 82.7178Z" fill="#B38D3E"/>
<path d="M390.069 134.75C399.841 134.75 406.45 141.495 406.45 149.341C406.45 157.05 400.118 163.519 390.069 163.519C381.122 163.519 374.376 156.498 374.376 149.341C374.376 142.459 380.158 134.75 390.069 134.75ZM356.895 82.7178C366.53 71.5683 378.918 64.9608 392.685 64.9608C410.992 64.9608 425.446 74.5963 425.446 93.1788C425.446 111.074 403.558 115.479 403.558 123.738V131.308H378.093L377.956 120.297C377.956 107.633 399.841 100.475 399.841 92.9036C399.841 87.6731 394.474 86.4343 389.656 86.4343C383.737 86.4343 376.442 92.2162 371.761 97.7219L356.895 82.7178Z" fill="#FFCB31"/>
<path d="M368.583 97.7217H371.761L368.527 94.4578L368.583 97.7217Z" fill="#B38D3E"/>
<path d="M462.904 448.265C462.904 450.411 431.731 452.15 393.277 452.15C354.821 452.15 323.648 450.411 323.648 448.265C323.648 446.12 354.821 444.38 393.277 444.38C431.731 444.38 462.904 446.12 462.904 448.265Z" fill="#B38D3E"/>
<path d="M406.911 295.076L427.376 358.632C430.003 366.788 428.084 375.726 422.341 382.085L376.546 432.796C376.546 432.796 376.414 447.318 364.796 449.255L358.02 405.688L400.093 366.478L406.911 295.076Z" fill="#979A9F"/>
<path d="M407.872 398.107C407.376 396.946 406.922 395.598 406.507 394.081C406.376 392.248 406.253 390.456 406.138 388.7C402.414 332.083 406.395 314.53 406.893 299.963C407.21 299.027 407.539 298.379 407.872 298.061C407.887 298.165 418.297 375.45 407.872 398.107Z" fill="#7A7578"/>
<path d="M374.478 296.424C374.478 296.424 363.345 319.522 373.026 384.388C382.707 449.255 382.707 449.255 382.707 449.255H424.792C424.792 449.255 421.504 434.731 409.851 432.312C399.618 331.414 407.491 314.227 406.911 295.076C384.16 292.898 374.478 296.424 374.478 296.424Z" fill="#E7E9EA"/>
<path d="M382.708 449.255H424.793C424.793 449.255 421.505 434.731 409.851 432.312H380.179C382.707 449.252 382.708 449.255 382.708 449.255Z" fill="#3F2B24"/>
<path d="M358.02 405.688L364.796 449.255C376.414 447.317 376.546 432.796 376.546 432.796L369.891 394.624L358.02 405.688Z" fill="#3F2B24"/>
<path d="M406.893 299.963C406.949 298.313 406.96 296.702 406.911 295.076C406.96 296.702 406.949 298.313 406.893 299.963C406.893 299.964 406.893 299.962 406.893 299.963Z" fill="#BEC0C2"/>
<path d="M406.138 388.7C402.414 332.083 406.395 314.531 406.893 299.963C406.893 299.962 406.893 299.964 406.893 299.963C406.395 314.531 402.414 332.083 406.138 388.7Z" fill="#ABA8A6"/>
<path d="M409.851 432.312C383.725 403.237 389.96 315.018 391.44 297.951C395.996 297.681 401.246 296.865 406.911 295.076C406.96 296.702 406.949 298.313 406.892 299.963C406.395 314.531 402.414 332.083 406.137 388.7C406.959 401.202 408.157 415.61 409.851 432.312Z" fill="#F1F1F2"/>
<path d="M410.015 432.346C410.014 432.346 410.014 432.346 410.014 432.346C410.014 432.346 410.014 432.346 410.015 432.346ZM409.978 432.339C409.975 432.337 409.971 432.337 409.968 432.337C409.972 432.337 409.975 432.337 409.978 432.339ZM409.94 432.33C409.936 432.329 409.932 432.328 409.929 432.327C409.933 432.328 409.936 432.329 409.94 432.33ZM409.9 432.321C409.896 432.321 409.893 432.32 409.889 432.319C409.893 432.32 409.896 432.321 409.9 432.321Z" fill="#EED45F"/>
<path d="M417.703 437.081C415.413 437.08 412.81 435.604 409.851 432.311C409.864 432.314 409.876 432.316 409.889 432.319C409.893 432.32 409.896 432.321 409.9 432.321C409.91 432.323 409.92 432.325 409.929 432.327C409.932 432.328 409.936 432.329 409.94 432.33C409.949 432.332 409.959 432.334 409.968 432.337C409.971 432.337 409.975 432.337 409.978 432.338C409.99 432.34 410.002 432.343 410.014 432.346C410.014 432.346 410.014 432.346 410.015 432.346C413.441 433.096 416.13 434.897 418.226 437.055C418.053 437.072 417.88 437.081 417.703 437.081Z" fill="#5D4035"/>
<path d="M403.474 193.104C403.474 193.104 398.169 189.094 391.705 190.49C385.242 191.885 376.52 199.91 375.647 218.4C374.776 236.889 377.915 243.169 381.579 243.169C385.242 243.169 394.487 223.809 394.487 223.809L398.237 205.84C398.237 205.84 403.566 195.892 403.474 193.104Z" fill="#399B77"/>
<path d="M375.545 221.142V221.141V221.142ZM375.547 221.086V221.084V221.086ZM375.55 220.969C375.55 220.967 375.55 220.964 375.55 220.962C375.55 220.965 375.55 220.966 375.55 220.969ZM375.552 220.917C375.552 220.908 375.552 220.901 375.552 220.893C375.552 220.9 375.552 220.908 375.552 220.917ZM375.553 220.861C375.553 220.853 375.554 220.845 375.554 220.837C375.554 220.845 375.553 220.853 375.553 220.861ZM375.555 220.805C375.555 220.798 375.555 220.79 375.555 220.782C375.555 220.79 375.555 220.798 375.555 220.805ZM375.556 220.753C375.557 220.743 375.557 220.733 375.557 220.723C375.557 220.734 375.557 220.742 375.556 220.753ZM375.558 220.701C375.558 220.69 375.559 220.681 375.559 220.671C375.559 220.68 375.558 220.691 375.558 220.701ZM375.56 220.646C375.561 220.586 375.563 220.525 375.565 220.464C375.563 220.524 375.561 220.587 375.56 220.646ZM375.566 220.458C375.566 220.443 375.567 220.427 375.567 220.412C375.567 220.428 375.566 220.442 375.566 220.458ZM375.567 220.406C375.568 220.391 375.568 220.377 375.569 220.363C375.568 220.377 375.568 220.392 375.567 220.406ZM375.569 220.349C375.57 220.335 375.57 220.32 375.571 220.306C375.57 220.321 375.57 220.334 375.569 220.349ZM375.571 220.304C375.584 219.908 375.599 219.506 375.616 219.099C375.599 219.507 375.584 219.908 375.571 220.304ZM375.616 219.097C375.619 219.062 375.62 219.028 375.622 218.992C375.62 219.028 375.619 219.062 375.616 219.097ZM375.622 218.988C375.625 218.92 375.628 218.85 375.631 218.782C375.628 218.85 375.625 218.92 375.622 218.988ZM375.631 218.776C375.632 218.761 375.632 218.746 375.633 218.732C375.632 218.746 375.632 218.761 375.631 218.776ZM375.634 218.721C375.634 218.708 375.635 218.694 375.635 218.681C375.635 218.694 375.634 218.709 375.634 218.721ZM375.636 218.661C375.637 218.65 375.637 218.637 375.638 218.625C375.637 218.637 375.637 218.65 375.636 218.661ZM375.639 218.605C375.639 218.593 375.64 218.582 375.64 218.571C375.64 218.582 375.639 218.594 375.639 218.605ZM375.642 218.542C375.642 218.533 375.642 218.524 375.643 218.514C375.642 218.524 375.642 218.533 375.642 218.542ZM375.645 218.478C375.645 218.471 375.645 218.465 375.645 218.458C375.645 218.465 375.645 218.471 375.645 218.478Z" fill="#328549"/>
<path d="M375.807 231.442C375.537 228.621 375.434 225.213 375.545 221.142V221.141C375.546 221.122 375.546 221.105 375.547 221.086V221.084C375.548 221.045 375.549 221.007 375.55 220.969C375.55 220.966 375.55 220.965 375.55 220.962C375.551 220.947 375.551 220.932 375.552 220.917C375.552 220.909 375.552 220.9 375.552 220.893C375.553 220.882 375.553 220.872 375.553 220.861C375.553 220.853 375.554 220.845 375.554 220.837C375.554 220.827 375.554 220.816 375.555 220.805C375.555 220.798 375.555 220.79 375.555 220.783C375.556 220.772 375.556 220.763 375.556 220.753C375.557 220.742 375.557 220.734 375.557 220.723C375.557 220.715 375.558 220.708 375.558 220.701C375.558 220.691 375.559 220.68 375.559 220.671C375.559 220.663 375.559 220.655 375.56 220.646C375.561 220.587 375.563 220.524 375.565 220.464C375.565 220.462 375.565 220.46 375.566 220.458C375.566 220.442 375.567 220.428 375.567 220.412C375.567 220.41 375.567 220.408 375.567 220.406C375.568 220.392 375.568 220.377 375.569 220.363C375.569 220.359 375.569 220.353 375.569 220.349C375.57 220.334 375.57 220.321 375.571 220.306C375.571 220.305 375.571 220.304 375.571 220.304C375.584 219.908 375.599 219.507 375.617 219.099C375.617 219.098 375.617 219.098 375.617 219.097C375.619 219.062 375.62 219.028 375.622 218.992C375.622 218.991 375.622 218.99 375.622 218.988C375.625 218.92 375.628 218.85 375.631 218.782C375.631 218.78 375.631 218.778 375.631 218.776C375.632 218.761 375.632 218.746 375.633 218.732C375.633 218.728 375.633 218.725 375.634 218.721C375.634 218.709 375.635 218.694 375.635 218.681C375.636 218.675 375.636 218.668 375.636 218.661C375.637 218.65 375.637 218.638 375.638 218.625C375.638 218.618 375.638 218.612 375.639 218.605C375.639 218.594 375.64 218.582 375.64 218.571C375.641 218.561 375.641 218.552 375.642 218.542C375.642 218.533 375.642 218.524 375.643 218.515C375.643 218.502 375.644 218.49 375.645 218.478C375.645 218.471 375.645 218.465 375.645 218.458C375.646 218.439 375.647 218.419 375.648 218.4C376.521 199.91 385.242 191.885 391.705 190.49C392.661 190.283 393.585 190.206 394.476 190.206C394.494 190.206 394.513 190.206 394.53 190.206C393.98 192.624 392.428 196.421 388.071 200.443C381.97 206.077 378.756 220.242 378.724 229.662L375.807 231.442Z" fill="#225737"/>
<path d="M391.705 221.739L373.026 233.14L374.478 296.424C374.478 296.424 388.517 300.885 406.911 295.076C405.701 259.981 405.701 259.981 405.701 259.981C405.701 259.981 410.3 254.917 409.816 243.169C409.332 231.421 405.323 224.07 405.323 224.07L398.237 221.668L391.705 221.739Z" fill="#20606F"/>
<path d="M373.026 233.139C373.026 233.139 379.077 234.806 379.077 244.852C379.077 254.898 379.077 275.211 379.077 275.211H420.949V278.414C420.949 283.727 416.642 288.035 411.328 288.035H371.246C367.683 288.035 364.796 285.147 364.796 281.585V244.277C364.796 244.277 365.765 236.261 373.026 233.139Z" fill="#F18C8D"/>
<path d="M374.015 275.653H379.077V274.771H374.015V275.653Z" fill="#8A2B33"/>
<path d="M377.203 236.799C375.426 233.801 373.026 233.14 373.026 233.14L391.705 221.739C391.705 222.446 391.705 223.138 391.705 223.809C391.705 224.917 391.869 225.897 392.152 226.764C389.356 228.488 382.458 232.822 377.203 236.799Z" fill="#9B2C24"/>
<path d="M365.659 284.799C365.122 283.867 364.806 282.792 364.796 281.642C364.796 281.641 364.796 281.639 364.796 281.638C364.796 281.63 364.796 281.623 364.796 281.616C364.796 281.614 364.796 281.612 364.796 281.61C364.796 281.602 364.796 281.593 364.796 281.585V244.277C364.796 244.277 365.765 236.261 373.026 233.14C373.026 233.14 375.426 233.801 377.203 236.799C373.874 239.318 371.206 241.692 370.657 243.169C369.292 246.842 371.066 275.12 365.659 284.799Z" fill="#C37678"/>
<path d="M403.474 193.104C403.474 193.104 410.536 200.217 407.887 214.928C400.238 216.105 400.238 216.105 400.238 216.105V233.14C400.238 233.14 391.705 231.806 391.705 223.809C391.705 215.811 391.705 204.681 391.705 204.681C391.705 204.681 401.121 200.701 403.474 193.104Z" fill="#F18C8D"/>
<path d="M403.241 202.531C403.232 202.53 403.047 202.518 402.74 202.518C401.816 202.522 399.801 202.608 398.092 203.456L398.557 204.386C399.987 203.665 401.896 203.554 402.74 203.559C402.88 203.559 402.992 203.561 403.067 203.564L403.176 203.568L403.241 202.531Z" fill="#3F2B24"/>
<path d="M400.237 216.105L395.708 216.83C395.708 216.83 397.801 222.764 400.767 223.809C400.237 216.105 400.237 216.105 400.237 216.105Z" fill="#3F2B24"/>
<path d="M394.487 208.108C394.487 210.42 392.612 212.294 390.3 212.294C387.989 212.294 386.114 210.42 386.114 208.108C386.114 205.795 387.989 203.922 390.3 203.922C392.612 203.922 394.487 205.795 394.487 208.108Z" fill="#F18C8D"/>
<path d="M403.298 199.048C403.278 199.045 402.676 198.94 401.834 198.94C400.727 198.945 399.187 199.106 398.001 200.036C397.776 200.214 397.739 200.541 397.917 200.767C398.096 200.991 398.422 201.029 398.648 200.85C399.499 200.163 400.836 199.974 401.834 199.979C402.211 199.979 402.538 200.004 402.767 200.028C402.882 200.039 402.973 200.051 403.033 200.06L403.119 200.073C403.402 200.123 403.671 199.933 403.721 199.65C403.77 199.368 403.581 199.097 403.298 199.048Z" fill="#399B77"/>
<path d="M379.077 241.993L385.128 275.211H379.077V241.993Z" fill="#2A1D19"/>
<path d="M405.984 268.211C405.701 259.982 405.701 259.981 405.701 259.981L405.984 268.211Z" fill="#F6E0A7"/>
<path d="M392.872 269.943C390.372 269.943 405.701 259.981 405.701 259.981C405.701 259.981 405.701 259.982 405.985 268.211C405.979 268.211 395.373 269.943 392.872 269.943Z" fill="#D44739"/>
<path d="M401.142 215.966C402.009 215.833 403.709 215.571 407.039 215.059C403.702 215.572 402.007 215.833 401.142 215.966Z" fill="#F5D894"/>
<path d="M396.189 202.112C395.838 197.518 396.203 193.078 396.535 190.353C400.611 190.95 403.475 193.104 403.475 193.104C402.729 195.51 401.275 197.553 399.637 199.222C399.068 199.387 398.503 199.642 398.001 200.036C397.776 200.214 397.739 200.541 397.917 200.767C397.923 200.773 397.928 200.779 397.933 200.785C397.345 201.273 396.757 201.715 396.189 202.112Z" fill="#40B890"/>
<path d="M401.142 215.966C397.881 212.624 396.584 207.27 396.188 202.112C396.757 201.715 397.345 201.273 397.932 200.785C398.034 200.902 398.179 200.963 398.324 200.963C398.438 200.963 398.552 200.926 398.648 200.85C399.487 200.172 400.798 199.979 401.792 199.979C401.805 199.979 401.819 199.979 401.833 199.979C402.21 199.979 402.538 200.004 402.767 200.028C402.882 200.039 402.972 200.051 403.033 200.06L403.119 200.073C403.149 200.078 403.179 200.08 403.209 200.08C403.457 200.08 403.677 199.903 403.72 199.65C403.77 199.368 403.581 199.097 403.298 199.048C403.278 199.045 402.676 198.94 401.833 198.94C401.195 198.943 400.412 198.998 399.637 199.222C401.275 197.553 402.728 195.51 403.474 193.104C403.474 193.104 408.478 198.145 408.482 208.515C408.482 209.56 408.432 210.66 408.321 211.813L407.875 211.419C407.652 211.222 407.381 211.129 407.114 211.129C406.68 211.129 406.254 211.374 406.059 211.814L406.05 211.834C405.92 212.127 405.918 212.462 406.045 212.758L407.04 215.059C403.709 215.571 402.01 215.833 401.142 215.966ZM402.739 202.519C401.816 202.523 399.801 202.608 398.092 203.456L398.557 204.386C399.961 203.677 401.829 203.558 402.694 203.558C402.709 203.558 402.724 203.558 402.739 203.559C402.88 203.559 402.991 203.561 403.067 203.564L403.176 203.568L403.24 202.531C403.231 202.53 403.047 202.519 402.739 202.519Z" fill="#F4A6A7"/>
<path d="M398.557 204.386L398.092 203.456C399.801 202.608 401.816 202.522 402.74 202.518C403.047 202.518 403.232 202.53 403.241 202.531L403.176 203.568L403.067 203.564C402.992 203.561 402.88 203.559 402.74 203.559C402.725 203.558 402.709 203.558 402.694 203.558C401.829 203.558 399.962 203.677 398.557 204.386Z" fill="#52382F"/>
<path d="M398.325 200.963C398.18 200.963 398.034 200.902 397.933 200.785C397.928 200.779 397.922 200.773 397.917 200.767C397.739 200.541 397.776 200.214 398.001 200.036C398.503 199.642 399.068 199.387 399.637 199.222C400.412 198.998 401.195 198.943 401.834 198.94C402.676 198.94 403.278 199.045 403.298 199.048C403.581 199.097 403.77 199.367 403.721 199.65C403.677 199.903 403.457 200.08 403.209 200.08C403.179 200.08 403.149 200.078 403.119 200.073L403.033 200.06C402.973 200.051 402.882 200.039 402.767 200.028C402.538 200.004 402.211 199.979 401.834 199.979C401.819 199.979 401.805 199.979 401.792 199.979C400.798 199.979 399.487 200.172 398.648 200.85C398.552 200.926 398.439 200.963 398.325 200.963Z" fill="#40B890"/>
<path d="M392.872 213.285C392.872 214.476 391.908 215.442 390.716 215.442C389.526 215.442 388.56 214.476 388.56 213.285C388.56 212.095 389.526 211.129 390.716 211.129C391.908 211.129 392.872 212.095 392.872 213.285Z" fill="#3F2B24"/>
<path d="M414.038 435.889C414.038 436.547 413.505 437.081 412.846 437.081H394.468C393.81 437.081 393.276 436.547 393.276 435.889C393.276 435.229 393.81 434.696 394.468 434.696H412.846C413.505 434.696 414.038 435.229 414.038 435.889Z" fill="#F0B844"/>
<path d="M389.502 432.312H388.439C381.512 399.716 379.766 366.258 379.765 340.773C379.765 317.701 381.197 301.164 381.521 297.73C381.855 297.767 382.201 297.8 382.556 297.832C382.551 297.879 382.547 297.929 382.542 297.981C382.493 298.513 382.421 299.304 382.337 300.334C382.166 302.393 381.939 305.411 381.713 309.24C381.259 316.897 380.805 327.8 380.805 340.773C380.805 366.266 382.559 399.755 389.502 432.312Z" fill="#918888"/>
<path d="M388.98 434.808C388.797 433.977 388.616 433.144 388.439 432.311H389.502C389.664 433.07 389.828 433.826 389.996 434.584L388.98 434.808Z" fill="#3F2B24"/>
<path d="M382.556 297.832C382.201 297.8 381.855 297.767 381.521 297.73C381.561 297.296 381.585 297.071 381.585 297.069L382.62 297.176C382.62 297.176 382.597 297.398 382.556 297.832Z" fill="#7D2F27"/>
<path d="M408.167 206.253L406.251 206.732C406.251 206.732 408.108 207.947 408.167 206.253Z" fill="#3F2B24"/>
<path d="M405.684 215.268C405.684 215.268 405.684 212.276 406.059 211.814C407.04 215.059 407.04 215.059 407.04 215.059L405.684 215.268Z" fill="#E66466"/>
<path d="M405.323 224.07C406.797 221.493 408.482 218.4 408.482 218.4L406.045 212.758C405.918 212.463 405.92 212.127 406.05 211.834L406.059 211.814C406.374 211.102 407.292 210.902 407.875 211.419L416.099 218.704C417.022 219.523 417.695 220.586 418.041 221.77L431.302 267.247C432.473 271.262 430.315 275.494 426.379 276.904L426.228 276.958C421.932 278.499 417.228 276.09 415.964 271.706L404.418 231.666C403.683 229.116 404.006 226.374 405.323 224.07Z" fill="#F18C8D"/>
<path d="M431.596 269.968C430.153 268.87 428.359 268.211 426.407 268.211C422.238 268.211 418.767 271.185 417.991 275.126C420.079 277.194 423.25 278.026 426.228 276.958L426.379 276.904C429.425 275.812 431.397 273.03 431.596 269.968Z" fill="#E66466"/>
<path d="M431.327 267.338C431.327 267.336 431.328 267.335 431.327 267.334C431.328 267.335 431.327 267.336 431.327 267.338ZM431.321 267.316C431.32 267.312 431.318 267.307 431.317 267.302C431.319 267.307 431.32 267.312 431.321 267.316ZM431.315 267.293C431.313 267.286 431.311 267.28 431.309 267.273C431.311 267.28 431.313 267.286 431.315 267.293ZM431.308 267.27C431.306 267.263 431.304 267.255 431.302 267.247C431.304 267.255 431.306 267.263 431.308 267.27Z" fill="#EED45F"/>
<path d="M418.025 221.715C417.674 220.553 417.008 219.51 416.099 218.704C417.008 219.509 417.674 220.553 418.025 221.715Z" fill="#F6E0A7"/>
<path d="M431.587 270.111C431.586 270.111 431.585 270.11 431.584 270.109C431.588 270.062 431.592 270.015 431.595 269.968C431.273 269.723 430.933 269.499 430.577 269.299C426.275 265.716 420.222 259.035 416.098 247.661C409.067 228.268 416.098 218.704 416.098 218.704C417.008 219.51 417.674 220.553 418.025 221.715C418.03 221.734 418.036 221.752 418.041 221.77L431.302 267.247C431.304 267.255 431.306 267.263 431.308 267.27C431.309 267.271 431.309 267.272 431.309 267.273C431.311 267.28 431.313 267.286 431.315 267.293C431.316 267.297 431.316 267.299 431.317 267.302C431.318 267.307 431.32 267.312 431.321 267.316C431.323 267.322 431.325 267.328 431.326 267.334C431.327 267.335 431.327 267.336 431.327 267.338C431.586 268.264 431.663 269.201 431.587 270.111Z" fill="#F6B6B7"/>
<path d="M431.585 270.109C431.262 269.859 430.925 269.59 430.578 269.299C430.933 269.499 431.273 269.723 431.596 269.968C431.593 270.015 431.589 270.063 431.585 270.109Z" fill="#EF968A"/>
<path d="M360.693 352.702C360.693 352.702 352.183 369.429 338.473 365.465C341.957 351.624 360.693 352.702 360.693 352.702Z" fill="#4EC292"/>
<path d="M338.472 365.465C324.736 361.589 326.345 342.891 326.345 342.891C326.345 342.891 342.03 351.438 338.755 364.477C338.652 364.797 338.557 365.127 338.472 365.465Z" fill="#328549"/>
<path d="M338.473 365.465C338.557 365.127 338.652 364.797 338.755 364.477C338.673 364.803 338.578 365.133 338.473 365.465Z" fill="#2A704A"/>
<path d="M353.788 378.019C353.788 378.019 342.329 392.881 329.589 386.447C335.575 373.491 353.788 378.019 353.788 378.019Z" fill="#4EC292"/>
<path d="M329.589 386.447C325.055 384.194 322.764 380.467 321.695 376.593C323.124 372.621 324.281 368.757 325.023 365.167C328.723 369.367 333.874 377.239 330.05 385.529C329.889 385.825 329.735 386.132 329.589 386.447Z" fill="#328549"/>
<path d="M329.589 386.447C329.735 386.132 329.889 385.825 330.05 385.529C329.908 385.834 329.755 386.141 329.589 386.447Z" fill="#2A704A"/>
<path d="M343.095 400.673C343.095 400.673 329.299 413.396 317.823 404.91C325.905 393.146 343.095 400.673 343.095 400.673Z" fill="#4EC292"/>
<path d="M317.823 404.91C317.503 404.676 317.198 404.436 316.906 404.189C317.581 403.903 318.253 403.611 318.923 403.317C318.769 403.573 318.605 403.828 318.431 404.081C318.223 404.346 318.02 404.622 317.823 404.91Z" fill="#2F7835"/>
<path d="M316.906 404.189C314.639 402.268 313.253 399.979 312.468 397.58C314.445 393.653 316.4 389.542 318.182 385.421C320.632 390.169 322.692 397.059 318.923 403.317C318.253 403.611 317.581 403.903 316.906 404.189Z" fill="#328549"/>
<path d="M317.823 404.91C318.02 404.622 318.223 404.346 318.432 404.081C318.241 404.359 318.038 404.635 317.823 404.91Z" fill="#2A704A"/>
<path d="M294.364 430.05C294.413 430.013 304.936 422.168 316.416 407.673C327.893 393.179 340.337 372.02 344.144 345.365C344.223 344.806 343.834 344.287 343.275 344.207C342.715 344.127 342.197 344.517 342.118 345.076C338.382 371.254 326.138 392.099 314.811 406.402C309.149 413.552 303.719 419.064 299.711 422.783C297.707 424.642 296.058 426.054 294.913 426.997C294.341 427.47 293.895 427.825 293.594 428.061C293.442 428.179 293.327 428.267 293.252 428.326L293.141 428.409C292.687 428.747 292.594 429.388 292.931 429.842C293.269 430.294 293.91 430.388 294.364 430.05Z" fill="#4EC292"/>
<path d="M346.026 323.677C346.026 323.677 353.77 340.772 342.108 349C333.479 337.632 346.026 323.677 346.026 323.677Z" fill="#4EC292"/>
<path d="M255.735 447.391C255.735 447.391 266.087 353.68 306.935 345.219C347.783 336.758 311.753 400.239 300.433 419.475C289.112 438.712 311.294 422.971 324.653 412.743C330.128 408.551 333.702 419.16 324.524 429.77C315.889 439.751 295.97 449.733 255.735 447.391Z" fill="#4EC292"/>
<path d="M306.935 345.219C306.982 345.209 307.027 345.2 307.073 345.191C307.029 345.2 306.98 345.21 306.935 345.219Z" fill="#328549"/>
<path d="M260.389 447.605C258.866 447.549 257.321 447.483 255.735 447.391C255.735 447.391 255.881 446.066 256.209 443.715C276.275 437.872 288.276 421.814 288.276 403.407C288.276 402.092 288.214 400.786 288.093 399.494C290.566 418.536 290.457 443.049 261.049 447.518C260.827 447.551 260.61 447.574 260.389 447.605ZM287.464 395.226C285.867 387.283 281.962 379.998 276.2 374.106C283.712 359.597 293.729 347.955 306.935 345.219C306.981 345.21 307.029 345.2 307.073 345.191C309.542 344.687 311.727 344.448 313.653 344.448C315.692 344.448 317.44 344.716 318.923 345.22C318.874 345.247 289.271 361.872 285.638 379.182C285.334 382.477 286.446 388.283 287.483 395.18C287.477 395.197 287.471 395.21 287.464 395.226Z" fill="#2A704A"/>
<path d="M321.459 346.47C321.305 346.364 321.145 346.26 320.981 346.163C321.092 346.08 321.151 346.04 321.155 346.037L321.459 346.47Z" fill="#328549"/>
<path d="M287.814 397.217C287.743 396.748 287.664 396.281 287.579 395.817C287.546 395.604 287.515 395.391 287.483 395.18C301.7 361.151 319.07 347.58 320.982 346.163C321.145 346.26 321.305 346.364 321.46 346.47L321.777 346.922L321.701 346.976C321.649 347.014 321.569 347.074 321.464 347.153C321.253 347.314 320.938 347.559 320.532 347.893C319.721 348.561 318.538 349.586 317.073 351.005C314.14 353.842 310.068 358.259 305.532 364.556C301.887 369.618 297.942 375.893 294.047 383.543C293.616 383.696 293.185 383.856 292.752 384.022L293.141 385.032C293.205 385.007 293.27 384.982 293.335 384.957C291.466 388.718 289.612 392.799 287.814 397.217Z" fill="#2A704A"/>
<path d="M287.579 395.817C287.541 395.62 287.503 395.423 287.464 395.226C287.471 395.21 287.477 395.196 287.483 395.18C287.515 395.391 287.547 395.604 287.579 395.817Z" fill="#193D20"/>
<path d="M298.903 428.559C298.823 428.559 298.745 428.555 298.671 428.55C298.667 428.543 298.664 428.537 298.66 428.531C298.742 428.539 298.828 428.543 298.918 428.543C302.908 428.542 313.642 421.051 322.151 414.643C313.638 421.054 302.892 428.559 298.903 428.559Z" fill="#2F7835"/>
<path d="M303.123 430.881C301.219 430.881 299.664 430.192 298.67 428.549C298.745 428.555 298.823 428.559 298.902 428.559C302.892 428.559 313.637 421.054 322.151 414.643C323.011 413.996 323.848 413.359 324.653 412.743C325.492 412.101 326.286 411.806 326.995 411.806C328.347 411.806 329.395 412.874 329.872 414.638C324.57 419.383 310.911 430.881 303.123 430.881Z" fill="#2A704A"/>
<path d="M320.03 381.348C320.029 381.348 319.983 381.343 319.888 381.333C319.958 381.159 320.026 380.989 320.095 380.815L320.03 381.348Z" fill="#328549"/>
<path d="M293.335 384.958C293.572 384.481 293.81 384.009 294.047 383.543C302.301 380.609 310.196 380.042 315.102 380.041C318.23 380.041 320.143 380.272 320.16 380.274L320.095 380.816C320.026 380.989 319.958 381.159 319.888 381.333C319.839 381.328 319.776 381.321 319.7 381.314C319.479 381.292 319.15 381.264 318.726 381.236C317.876 381.18 316.639 381.122 315.102 381.122C315.099 381.122 315.095 381.122 315.092 381.122C310.055 381.122 301.8 381.739 293.335 384.958Z" fill="#2A704A"/>
<path d="M293.141 385.032L292.751 384.022C293.185 383.856 293.615 383.696 294.047 383.543C293.81 384.009 293.572 384.481 293.335 384.957C293.27 384.982 293.205 385.007 293.141 385.032Z" fill="#193D20"/>
<path d="M143.778 326.9C143.778 326.9 150.85 347.846 167.507 345.558C165.801 328.832 143.778 326.9 143.778 326.9Z" fill="#4EC292"/>
<path d="M167.507 345.558C167.465 345.149 167.411 344.748 167.347 344.358C165.748 328.602 185.483 321.309 185.483 321.309C185.483 321.309 184.178 343.377 167.507 345.558Z" fill="#328549"/>
<path d="M167.506 345.558C167.439 345.152 167.386 344.752 167.346 344.358C167.411 344.748 167.465 345.149 167.506 345.558Z" fill="#2A704A"/>
<path d="M147.518 357.585C147.518 357.585 158.345 376.859 174.291 371.528C169.518 355.407 147.518 357.585 147.518 357.585Z" fill="#4EC292"/>
<path d="M174.291 371.528C174.174 371.135 174.047 370.751 173.91 370.379C169.423 355.191 187.468 344.371 187.468 344.371C187.468 344.371 190.269 366.299 174.291 371.528Z" fill="#328549"/>
<path d="M174.291 371.528C174.149 371.143 174.023 370.759 173.91 370.379C174.047 370.751 174.174 371.135 174.291 371.528Z" fill="#2A704A"/>
<path d="M156.126 385.811C156.126 385.811 170.043 402.988 184.864 395.05C177.446 379.962 156.126 385.811 156.126 385.811Z" fill="#4EC292"/>
<path d="M183.728 392.704C178.261 378.957 193.282 366.062 193.282 366.062C193.282 366.062 194.278 369.325 194.585 373.765C189.306 379.271 185.628 385.885 183.728 392.704Z" fill="#328549"/>
<path d="M209.635 426.642L209.52 426.527C208.303 425.281 197.582 414.08 187.188 395.673C176.79 377.263 166.726 351.666 166.728 321.603C166.728 321.459 166.728 321.315 166.729 321.172C166.731 320.506 166.192 319.965 165.527 319.963C164.861 319.96 164.319 320.498 164.317 321.163C164.316 321.31 164.316 321.457 164.316 321.603C164.318 353.202 175.223 379.873 186.109 398.641C196.999 417.411 207.879 428.295 207.93 428.348C208.4 428.819 209.163 428.819 209.635 428.348C210.106 427.876 210.106 427.113 209.635 426.642Z" fill="#4EC292"/>
<path d="M165.813 295.563C165.813 295.563 153.878 314.172 166.07 325.748C178.065 313.965 165.813 295.563 165.813 295.563Z" fill="#4EC292"/>
<path d="M313.217 448.109C313.217 450.341 280.794 452.15 240.799 452.15C200.804 452.15 168.381 450.341 168.381 448.109C168.381 445.878 200.804 444.068 240.799 444.068C280.794 444.068 313.217 445.878 313.217 448.109Z" fill="#B38D3E"/>
<path d="M229.437 359.511C258.839 359.511 278.717 379.805 278.717 403.407C278.717 426.599 259.668 446.061 229.437 446.061C202.522 446.061 182.23 424.941 182.23 403.407C182.23 382.703 199.623 359.511 229.437 359.511ZM129.636 202.978C158.625 169.436 195.894 149.558 237.307 149.558C292.384 149.558 335.865 178.546 335.865 234.451C335.865 288.286 270.019 301.537 270.019 326.384V349.159H193.411L192.996 316.03C192.996 277.933 258.839 256.399 258.839 233.623C258.839 217.887 242.688 214.16 228.194 214.16C210.388 214.16 188.442 231.552 174.36 248.118L129.636 202.978Z" fill="#9B7838"/>
<path d="M238.995 359.511C268.397 359.511 288.276 379.805 288.276 403.407C288.276 426.599 269.227 446.061 238.995 446.061C212.079 446.061 191.788 424.941 191.788 403.407C191.788 382.703 209.181 359.511 238.995 359.511ZM139.195 202.978C168.184 169.436 205.453 149.558 246.865 149.558C301.942 149.558 345.423 178.546 345.423 234.451C345.423 288.286 279.578 301.537 279.578 326.384V349.159H202.969L202.554 316.03C202.554 277.933 268.397 256.399 268.397 233.623C268.397 217.887 252.247 214.16 237.753 214.16C219.947 214.16 198.001 231.552 183.919 248.118L139.195 202.978Z" fill="#EED45F"/>
<path d="M174.36 248.117H183.919L174.188 238.298L174.36 248.117Z" fill="#9B7838"/>
<path d="M185.324 165.278C186.403 163.123 187.511 161.084 188.571 159.234C196.24 156.086 204.156 153.666 212.283 152.035L209.011 155.307C200.857 157.842 192.948 161.186 185.324 165.278Z" fill="#825721"/>
<path d="M196.001 229.7C192.95 224.476 182.755 206.483 179.054 193.184C176.851 185.267 180.831 174.257 185.324 165.278C192.948 161.185 200.857 157.842 209.011 155.307L197.928 166.391L195.705 168.614C192.201 172.118 190.265 176.849 190.262 181.74C190.261 182.54 190.313 183.344 190.417 184.149L190.518 184.929L191.143 189.735L196.265 229.15C196.173 229.332 196.086 229.516 196.001 229.7Z" fill="#C9AF71"/>
<path d="M258.333 229.088C258.329 229.085 258.327 229.084 258.327 229.084L258.329 229.075C258.33 229.08 258.332 229.084 258.333 229.088Z" fill="#C79342"/>
<path d="M267.731 237.66C262.763 233.338 258.511 229.259 258.334 229.088C258.333 229.083 258.331 229.079 258.33 229.074L260.922 219.371C262.375 220.33 263.666 221.451 264.75 222.751L263.346 226.4L267.925 229.227C268.233 230.576 268.397 232.039 268.397 233.623C268.397 234.971 268.166 236.317 267.731 237.66Z" fill="#825721"/>
<path d="M280.979 246.683C279.926 246.683 278.752 246.314 277.453 245.421C274.531 243.412 270.978 240.484 267.731 237.66C268.165 236.317 268.397 234.971 268.397 233.623C268.397 232.039 268.233 230.576 267.924 229.228L287.206 241.134C286.079 243.567 284.038 246.683 280.979 246.683ZM264.749 222.751C263.666 221.451 262.374 220.33 260.922 219.371L270.712 182.726L237.504 162.505H244.797L244.859 162.516L254.197 164.104V166.222C254.197 170.367 261.175 172.866 265.777 174.064C266.048 174.134 266.319 174.168 266.583 174.168C268.156 174.168 269.531 172.984 269.712 171.376L281.896 178.135L268.388 213.284L264.749 222.751Z" fill="#C9AF71"/>
<path d="M244.797 143.54V162.505L257.665 164.693L281.896 178.135L263.346 226.4L287.95 241.594C290.885 243.406 294.631 241.228 294.551 237.779C294.478 234.672 294.048 230.893 292.796 227.011L309.334 184.359C313.133 174.561 308.945 163.472 299.615 158.633L266.982 141.707L244.797 143.54Z" fill="#20606F"/>
<path d="M263.346 226.4L287.95 241.594C290.885 243.406 294.631 241.228 294.551 237.779C294.478 234.672 294.048 230.893 292.796 227.011C292.796 227.011 279.376 224.196 268.388 213.284L263.346 226.4Z" fill="#399B77"/>
<path d="M244.797 162.505H237.504L217.647 186.077L224.674 233.732L199.389 245.084C196.94 246.184 194.175 244.465 194.038 241.784C193.856 238.191 194.155 233.368 196.265 229.15L190.416 184.149C189.673 178.43 191.627 172.692 195.704 168.614L222.611 141.707L244.797 143.539V162.505Z" fill="#20606F"/>
<path d="M224.674 233.732L222.198 216.936C209.335 230.992 196.265 229.15 196.265 229.15C194.155 233.368 193.856 238.191 194.038 241.784C194.175 244.465 196.94 246.184 199.39 245.084L224.674 233.732Z" fill="#399B77"/>
<path d="M309.334 184.359C309.337 184.35 309.341 184.34 309.345 184.332C309.341 184.341 309.337 184.35 309.334 184.359ZM309.348 184.323C309.35 184.317 309.352 184.311 309.355 184.304C309.353 184.31 309.35 184.318 309.348 184.323ZM309.359 184.293C309.361 184.288 309.364 184.282 309.366 184.277C309.363 184.282 309.361 184.287 309.359 184.293ZM309.369 184.267C309.372 184.261 309.374 184.255 309.376 184.248C309.374 184.255 309.372 184.261 309.369 184.267ZM309.38 184.238C309.382 184.232 309.385 184.226 309.387 184.22C309.385 184.226 309.382 184.232 309.38 184.238ZM309.391 184.21C309.393 184.204 309.395 184.199 309.397 184.193C309.395 184.199 309.393 184.204 309.391 184.21ZM309.402 184.182C309.405 184.176 309.406 184.171 309.409 184.165C309.407 184.17 309.404 184.176 309.402 184.182ZM309.412 184.155C309.414 184.149 309.417 184.143 309.419 184.137C309.417 184.143 309.415 184.149 309.412 184.155ZM309.423 184.127C309.425 184.12 309.428 184.113 309.43 184.108C309.428 184.114 309.425 184.12 309.423 184.127ZM309.433 184.099C309.435 184.093 309.437 184.087 309.44 184.081C309.437 184.087 309.435 184.093 309.433 184.099ZM309.444 184.07C309.45 184.052 309.457 184.035 309.463 184.017C309.457 184.034 309.45 184.053 309.444 184.07ZM309.469 184.002C309.47 183.997 309.472 183.992 309.474 183.988C309.472 183.992 309.47 183.997 309.469 184.002ZM309.478 183.975C309.48 183.97 309.482 183.966 309.483 183.961C309.482 183.966 309.48 183.97 309.478 183.975ZM309.489 183.946C309.49 183.942 309.492 183.938 309.493 183.934C309.492 183.937 309.49 183.943 309.489 183.946ZM309.499 183.917C309.5 183.914 309.502 183.911 309.503 183.908C309.501 183.911 309.501 183.914 309.499 183.917ZM309.509 183.889C309.51 183.887 309.512 183.884 309.512 183.881C309.512 183.883 309.51 183.887 309.509 183.889ZM309.519 183.861C309.52 183.859 309.521 183.857 309.522 183.854C309.521 183.856 309.52 183.859 309.519 183.861ZM309.53 183.833C309.531 183.832 309.531 183.83 309.532 183.829C309.531 183.831 309.531 183.831 309.53 183.833Z" fill="#FAFBFB"/>
<path d="M309.141 184.857C302.588 183.238 297.721 177.336 297.721 170.282C297.721 166.291 299.288 162.674 301.825 159.983C309.421 165.221 312.688 174.984 309.532 183.829C309.531 183.83 309.531 183.832 309.53 183.833C309.528 183.84 309.525 183.847 309.523 183.854C309.522 183.857 309.521 183.86 309.52 183.862C309.518 183.868 309.516 183.875 309.513 183.881C309.513 183.884 309.511 183.887 309.51 183.889C309.508 183.896 309.506 183.901 309.504 183.908C309.503 183.911 309.501 183.914 309.5 183.917C309.498 183.923 309.496 183.928 309.494 183.934C309.493 183.938 309.491 183.942 309.49 183.946C309.488 183.951 309.486 183.956 309.484 183.961C309.483 183.966 309.481 183.97 309.479 183.975C309.478 183.979 309.475 183.985 309.474 183.989C309.472 183.993 309.47 183.998 309.469 184.002C309.467 184.007 309.465 184.012 309.463 184.017C309.457 184.035 309.45 184.052 309.444 184.07C309.442 184.074 309.441 184.077 309.44 184.081C309.437 184.087 309.435 184.093 309.433 184.099C309.432 184.101 309.431 184.105 309.43 184.108C309.428 184.114 309.425 184.121 309.423 184.127C309.422 184.13 309.42 184.133 309.419 184.137C309.417 184.143 309.414 184.149 309.412 184.155C309.411 184.159 309.41 184.161 309.409 184.165C309.406 184.171 309.405 184.176 309.402 184.182C309.401 184.186 309.399 184.189 309.398 184.193C309.396 184.199 309.394 184.204 309.392 184.21C309.39 184.214 309.389 184.217 309.388 184.22C309.386 184.226 309.383 184.232 309.381 184.239C309.38 184.242 309.378 184.246 309.377 184.249C309.375 184.255 309.373 184.261 309.37 184.267C309.369 184.27 309.368 184.274 309.367 184.277C309.365 184.282 309.362 184.288 309.36 184.293C309.359 184.297 309.357 184.301 309.356 184.304C309.353 184.311 309.35 184.317 309.348 184.323C309.347 184.326 309.346 184.329 309.345 184.332C309.341 184.34 309.337 184.35 309.334 184.359L309.141 184.857Z" fill="#164B57"/>
<path d="M191.143 189.735L190.518 184.929L191.143 189.735Z" fill="#CEBA88"/>
<path d="M191.143 189.735L190.518 184.929C194.863 184.261 199.046 182.65 203.013 180.407C201.544 185.653 196.811 189.53 191.143 189.735Z" fill="#164B57"/>
<path d="M266.982 141.707L247.27 143.335C245.523 149.84 245.009 158.146 244.859 162.516L257.665 164.693L272.765 173.07C276.071 162.505 280.692 155.099 284.145 150.61L266.982 141.707Z" fill="#2A1D19"/>
<path d="M293.753 230.689C293.505 229.484 293.197 228.255 292.796 227.011C292.796 227.011 286.467 225.682 278.942 221.317C280.021 224.359 283.387 228.961 293.753 230.689Z" fill="#2A1D19"/>
<path d="M209.941 226.256C202.169 229.975 196.265 229.15 196.265 229.15C195.522 230.635 195.013 232.195 194.661 233.75C199.283 233.448 206.36 231.992 209.941 226.256Z" fill="#2A1D19"/>
<path d="M190.518 184.929L190.416 184.149C190.313 183.344 190.261 182.54 190.262 181.74C190.261 182.54 190.313 183.344 190.416 184.149L190.518 184.929Z" fill="#CEBA88"/>
<path d="M203.014 180.407C203.322 179.306 203.487 178.146 203.487 176.948C203.487 172.565 201.284 168.701 197.928 166.391L222.611 141.707C222.611 141.707 227.402 142.845 236.516 143.328C231.115 152.636 218.772 171.499 203.014 180.407Z" fill="#164B57"/>
<path d="M190.518 184.929L190.416 184.149C190.312 183.344 190.261 182.54 190.262 181.74C190.265 176.849 192.2 172.118 195.704 168.614C191.627 172.692 189.673 178.43 190.416 184.149L190.518 184.929Z" fill="#D3C39A"/>
<path d="M190.518 184.929L190.416 184.149C189.673 178.43 191.627 172.692 195.704 168.614L197.928 166.391C201.284 168.701 203.487 172.565 203.487 176.948C203.487 178.146 203.322 179.306 203.013 180.407C199.046 182.65 194.863 184.261 190.518 184.929Z" fill="#164B57"/>
<path d="M222.611 72.0581C222.611 72.0581 214.976 75.2656 210.851 84.8879C206.727 94.5103 200.402 114.948 200.402 114.948L222.611 106.424V72.0581Z" fill="#C4787D"/>
<path d="M244.797 63.3519L222.611 72.058V141.707C222.611 141.707 230.325 143.539 244.797 143.539C259.268 143.539 266.982 141.707 266.982 141.707V72.058L244.797 63.3519Z" fill="#399B77"/>
<path d="M222.611 72.0582C222.611 72.0582 214.975 75.2657 210.85 84.888C209.603 87.8001 208.153 91.7031 206.739 95.7291C210.951 96.6766 217.56 98.6543 222.611 102.412V72.0582Z" fill="#2F765B"/>
<path d="M222.611 126.586V114.051L245.811 78.9398C245.877 78.838 245.943 78.7362 246.006 78.6334L222.611 126.586Z" fill="#225737"/>
<path d="M254.198 153.111C254.198 149.739 254.753 146.397 255.522 143.176C256.026 143.14 256.516 143.103 256.988 143.064C255.162 146.097 254.198 149.57 254.198 153.111Z" fill="#0D120C"/>
<path d="M255.522 143.177C256.837 137.673 258.777 132.524 259.631 128.187C260.955 121.466 259.691 92.4308 259.633 91.1305C259.737 92.6405 259.88 93.594 259.88 93.594L266.982 126.586L257.023 143.005C257.011 143.024 256.999 143.044 256.988 143.064C256.516 143.103 256.026 143.14 255.522 143.177Z" fill="#225737"/>
<path d="M266.982 72.0581L267.095 72.1085C274.015 75.2151 278.861 81.6492 279.939 89.1578L285.002 125.406C285.641 129.985 284.484 134.634 281.772 138.376L269.732 154.995V171.015C269.732 173.084 267.78 174.585 265.778 174.064C261.175 172.866 254.198 170.367 254.198 166.221V153.111C254.198 149.548 255.174 146.052 257.023 143.005L266.982 126.586L259.88 93.594C259.88 93.594 257.131 75.2655 266.982 72.0581Z" fill="#F18C8D"/>
<path d="M281.897 103.175L279.939 89.1579C278.862 81.6493 274.015 75.2152 267.095 72.1086L266.982 72.0582C257.131 75.2656 259.88 93.5941 259.88 93.5941L262.398 105.286C266.398 103.831 273.384 102.071 281.897 103.175Z" fill="#4EC292"/>
<path d="M278.438 130.71C278.438 133.662 279.876 136.272 282.084 137.899C284.561 134.241 285.615 129.795 285.002 125.407L284.559 122.233C281.004 123.414 278.438 126.759 278.438 130.71Z" fill="#E66466"/>
<path d="M267.368 126.833L271.098 121.028L270.327 120.532L266.597 126.338" fill="#8A2B33"/>
<path d="M244.846 70.5107H244.74C241.84 70.5107 239.49 68.1601 239.49 65.2611V56.5288H250.096V65.2611C250.096 68.1601 247.745 70.5107 244.846 70.5107Z" fill="#F18C8D"/>
<path d="M252.392 49.2218C252.392 49.2218 253.729 47.6886 253.729 44.8249C253.729 41.9602 254.32 36.0684 250.096 33.6139C245.873 31.1584 237.445 27.3946 238.754 30.5032C240.062 33.6139 239.081 33.2047 236.217 33.122C233.352 33.0404 233.927 42.9248 236.217 46.7885C238.507 50.6532 252.392 49.2218 252.392 49.2218Z" fill="#3F2B24"/>
<path d="M239.49 49.6121C239.49 51.1715 238.354 52.4355 236.953 52.4355C235.552 52.4355 234.417 51.1715 234.417 49.6121C234.417 48.0527 235.552 46.7887 236.953 46.7887C238.354 46.7887 239.49 48.0527 239.49 49.6121Z" fill="#F18C8D"/>
<path d="M250.096 49.6121C250.096 51.1715 251.232 52.4355 252.633 52.4355C254.034 52.4355 255.17 51.1715 255.17 49.6121C255.17 48.0527 254.034 46.7887 252.633 46.7887C251.232 46.7887 250.096 48.0527 250.096 49.6121Z" fill="#F18C8D"/>
<path d="M244.87 61.0588H244.718C240.563 61.0588 237.195 57.6901 237.195 53.5351V42.8554C237.195 39.8344 239.643 37.385 242.665 37.385H246.922C249.943 37.385 252.392 39.8344 252.392 42.8554V53.5351C252.392 57.6901 249.024 61.0588 244.87 61.0588Z" fill="#F18C8D"/>
<path d="M239.49 56.5289V65.2612C239.49 65.4064 239.5 65.5495 239.512 65.6917C246.4 65.6544 250.096 58.939 250.096 58.939L244.235 56.5289H239.49Z" fill="#8A2B33"/>
<path d="M241.945 46.3795C241.945 46.9671 241.688 47.4429 241.372 47.4429C241.055 47.4429 240.799 46.9671 240.799 46.3795C240.799 45.7918 241.055 45.316 241.372 45.316C241.688 45.316 241.945 45.7918 241.945 46.3795Z" fill="#3F2B24"/>
<path d="M243.043 42.4471C243.01 42.434 242.13 42.0066 241.015 42.0026C240.458 42.0016 239.832 42.1155 239.251 42.4693C239.035 42.6013 238.967 42.8836 239.099 43.0993C239.231 43.316 239.513 43.3835 239.729 43.2515C240.13 43.0065 240.578 42.9188 241.015 42.9188C241.451 42.9178 241.868 43.0075 242.171 43.0993C242.323 43.1446 242.447 43.191 242.529 43.2242L242.623 43.2626L242.648 43.2746C242.876 43.3835 243.149 43.2867 243.259 43.0579C243.368 42.8301 243.271 42.5559 243.043 42.4471Z" fill="#3F2B24"/>
<path d="M247.642 46.3795C247.642 46.9671 247.898 47.4429 248.214 47.4429C248.531 47.4429 248.788 46.9671 248.788 46.3795C248.788 45.7918 248.531 45.316 248.214 45.316C247.898 45.316 247.642 45.7918 247.642 46.3795Z" fill="#3F2B24"/>
<path d="M246.939 43.2746L246.964 43.2626C247.104 43.1991 247.809 42.9158 248.572 42.9188C249.009 42.9188 249.456 43.0065 249.857 43.2515C250.073 43.3835 250.355 43.316 250.487 43.0993C250.619 42.8836 250.552 42.6013 250.335 42.4693C249.754 42.1155 249.128 42.0026 248.572 42.0026C247.456 42.0066 246.577 42.434 246.544 42.4471C246.315 42.5569 246.218 42.8301 246.328 43.0579C246.437 43.2867 246.711 43.3835 246.939 43.2746Z" fill="#3F2B24"/>
<path d="M248.214 52.1894C244.793 51.6582 246.169 51.6582 244.793 51.6582C243.418 51.6582 244.793 51.6582 241.372 52.1894C237.951 52.7216 237.195 46.7886 237.195 46.7886V53.5351C237.195 57.6901 240.563 61.0588 244.718 61.0588H244.793H244.87C249.024 61.0588 252.392 57.6901 252.392 53.5351V46.7886C252.392 46.7886 251.635 52.7216 248.214 52.1894Z" fill="#3F2B24"/>
<path d="M201.052 113.881L241.794 57.3513C242.306 56.6407 243.322 56.5308 243.975 57.1165L243.996 57.1346C244.472 57.562 244.619 58.2495 244.357 58.8351L241.809 64.5233L244.17 66.6037C247.718 69.7306 248.418 74.9944 245.811 78.9397L215.925 124.169C212.977 128.631 206.8 129.529 202.704 126.093L202.562 125.974C198.968 122.96 198.31 117.685 201.052 113.881Z" fill="#F18C8D"/>
<path d="M202.259 116.046C201.413 116.046 200.594 116.158 199.806 116.349C198.705 119.735 199.697 123.572 202.562 125.974L202.703 126.093C205.606 128.527 209.548 128.776 212.65 127.134C212.664 126.913 212.684 126.695 212.684 126.471C212.684 120.713 208.017 116.046 202.259 116.046Z" fill="#E66466"/>
<path d="M259.069 171.893H259.986V159.983H259.069V171.893Z" fill="#8A2B33"/>
<path d="M279.939 89.1577C279.937 89.1436 279.935 89.1315 279.933 89.1184C279.935 89.1315 279.937 89.1446 279.939 89.1577ZM279.932 89.1073C279.93 89.0962 279.929 89.0861 279.927 89.0751C279.929 89.0861 279.93 89.0972 279.932 89.1073ZM279.926 89.067C279.924 89.0539 279.922 89.0408 279.92 89.0277C279.922 89.0408 279.924 89.0539 279.926 89.067ZM279.919 89.0196C279.917 89.0095 279.916 88.9985 279.914 88.9884C279.916 88.9985 279.917 89.0095 279.919 89.0196ZM279.912 88.9763C279.911 88.9642 279.909 88.9531 279.907 88.942C279.909 88.9531 279.911 88.9642 279.912 88.9763ZM279.906 88.936C279.905 88.9239 279.903 88.9118 279.901 88.9007C279.903 88.9118 279.905 88.9239 279.906 88.936ZM279.897 88.8835C279.896 88.8765 279.895 88.8704 279.894 88.8634C279.895 88.8704 279.896 88.8765 279.897 88.8835ZM279.891 88.8432C279.891 88.8422 279.891 88.8412 279.891 88.8402C279.891 88.8412 279.891 88.8422 279.891 88.8432ZM279.882 88.7827C279.881 88.7817 279.881 88.7797 279.881 88.7787C279.881 88.7797 279.881 88.7817 279.882 88.7827Z" fill="#F6E0A7"/>
<path d="M269.732 154.995C269.732 154.995 277.275 136.605 273.02 110.794C272.57 108.065 272.216 105.496 271.941 103.08C273.383 102.922 274.917 102.828 276.531 102.828C278.236 102.828 280.03 102.933 281.896 103.175L279.939 89.1579L285.002 125.407L284.559 122.233C281.004 123.414 278.438 126.759 278.438 130.71C278.438 133.662 279.876 136.272 282.084 137.899C284.535 134.276 285.594 129.883 285.019 125.536C285.123 126.316 285.173 127.097 285.174 127.876C285.175 131.626 283.996 135.306 281.771 138.376L269.732 154.995ZM285.019 125.533C285.018 125.525 285.017 125.518 285.016 125.51C285.017 125.518 285.018 125.525 285.019 125.533ZM285.014 125.499C285.014 125.494 285.013 125.49 285.013 125.486C285.013 125.49 285.014 125.495 285.014 125.499ZM285.01 125.469C285.01 125.466 285.01 125.463 285.009 125.459C285.009 125.462 285.01 125.466 285.01 125.469ZM285.007 125.445C285.007 125.441 285.006 125.437 285.005 125.433C285.006 125.437 285.007 125.441 285.007 125.445Z" fill="#F6B6B7"/>
<path d="M281.896 103.175C280.03 102.933 278.236 102.828 276.531 102.828C274.917 102.828 273.383 102.922 271.941 103.08C270.258 88.2818 271.58 79.3248 272.436 75.5105C276.358 78.8772 279.039 83.5523 279.881 88.7788C279.881 88.7798 279.881 88.7818 279.882 88.7828C279.885 88.802 279.888 88.8211 279.892 88.8403C279.892 88.8413 279.892 88.8423 279.892 88.8433C279.893 88.8503 279.894 88.8564 279.895 88.8634C279.896 88.8705 279.897 88.8766 279.898 88.8836C279.899 88.8897 279.9 88.8947 279.901 88.9008C279.903 88.9118 279.905 88.9239 279.906 88.936C279.907 88.9381 279.907 88.9401 279.907 88.9421C279.909 88.9532 279.911 88.9643 279.912 88.9764C279.913 88.9804 279.914 88.9844 279.914 88.9885C279.916 88.9985 279.917 89.0096 279.919 89.0197C279.919 89.0227 279.92 89.0247 279.92 89.0278C279.922 89.0409 279.924 89.054 279.926 89.0671C279.926 89.0701 279.927 89.0721 279.927 89.0751C279.929 89.0862 279.93 89.0963 279.932 89.1074C279.932 89.1114 279.933 89.1144 279.933 89.1185C279.935 89.1316 279.937 89.1437 279.939 89.1578L281.896 103.175Z" fill="#68CBB0"/>
<path d="M282.084 137.899C279.876 136.272 278.438 133.662 278.438 130.71C278.438 126.759 281.004 123.414 284.559 122.233L285.002 125.407C285.003 125.416 285.004 125.424 285.005 125.433C285.006 125.437 285.007 125.441 285.007 125.445C285.008 125.45 285.008 125.454 285.009 125.459C285.01 125.463 285.01 125.466 285.01 125.469C285.011 125.475 285.012 125.48 285.013 125.486C285.013 125.49 285.014 125.494 285.014 125.499C285.015 125.503 285.016 125.507 285.016 125.51C285.017 125.518 285.018 125.525 285.019 125.533C285.019 125.534 285.019 125.535 285.019 125.536C285.594 129.883 284.535 134.276 282.084 137.899Z" fill="#EF968A"/>
<path d="M252.39 53.6985C252.39 53.6955 252.39 53.6924 252.39 53.6904C252.39 53.6924 252.39 53.6955 252.39 53.6985ZM252.39 53.6753C252.391 53.6703 252.391 53.6662 252.391 53.6612C252.391 53.6652 252.391 53.6703 252.39 53.6753ZM252.391 53.6511C252.391 53.6471 252.391 53.643 252.391 53.638C252.391 53.642 252.391 53.6471 252.391 53.6511ZM252.391 53.6319C252.391 53.6249 252.391 53.6189 252.391 53.6118C252.391 53.6189 252.391 53.6249 252.391 53.6319ZM252.391 53.6047C252.391 53.5987 252.392 53.5927 252.392 53.5866C252.392 53.5927 252.391 53.5987 252.391 53.6047ZM252.392 53.5836C252.392 53.5765 252.392 53.5695 252.392 53.5624C252.392 53.5695 252.392 53.5765 252.392 53.5836ZM252.392 53.5574C252.392 53.5503 252.392 53.5432 252.392 53.5352V52.4223V53.5352C252.392 53.5432 252.392 53.5503 252.392 53.5574ZM255.17 49.6121C255.17 49.607 255.17 49.6009 255.17 49.5959C255.17 49.6009 255.17 49.607 255.17 49.6121ZM255.17 49.5899C255.17 49.5868 255.17 49.5828 255.17 49.5788C255.17 49.5828 255.17 49.5868 255.17 49.5899ZM255.169 49.5717C255.169 49.5687 255.169 49.5657 255.169 49.5627C255.169 49.5657 255.169 49.5687 255.169 49.5717ZM255.169 49.5546C255.169 49.5526 255.169 49.5495 255.169 49.5475C255.169 49.5495 255.169 49.5526 255.169 49.5546ZM255.169 49.5274V49.5254C255.169 49.5254 255.169 49.5264 255.169 49.5274ZM255.168 49.5123C255.168 49.5113 255.168 49.5113 255.168 49.5103C255.168 49.5113 255.168 49.5113 255.168 49.5123Z" fill="#F6E0A7"/>
<path d="M253.729 44.8462C253.729 44.8452 253.729 44.8441 253.729 44.8431C253.729 44.8441 253.729 44.8452 253.729 44.8462ZM253.757 42.5782C253.757 39.8425 253.463 36.3054 250.98 34.2319C253.463 36.3054 253.757 39.8425 253.757 42.5782Z" fill="#EED45F"/>
<path d="M253.457 46.9407C253.199 46.8419 252.921 46.7885 252.633 46.7885C252.551 46.7885 252.472 46.7935 252.392 46.8016V46.7885V42.8553C252.392 40.4905 250.891 38.4765 248.791 37.7125C249.446 36.7135 249.771 35.016 249.934 33.5201L250.096 33.6139C250.418 33.8004 250.712 34.007 250.98 34.2318C253.463 36.3053 253.757 39.8424 253.757 42.5781C253.757 43.4268 253.729 44.1979 253.729 44.8249C253.729 44.831 253.729 44.837 253.729 44.843C253.729 44.844 253.729 44.8451 253.729 44.8461C253.727 45.6575 253.613 46.349 253.457 46.9407Z" fill="#5D4035"/>
<path d="M252.634 52.4355L252.393 52.4083V52.4224V46.8018C252.472 46.7938 252.552 46.7887 252.634 46.7887C252.922 46.7887 253.199 46.8421 253.457 46.9409C253.456 46.9449 253.455 46.949 253.454 46.953C254.423 47.324 255.13 48.3179 255.169 49.5103C255.169 49.5113 255.169 49.5113 255.169 49.5123C255.169 49.5164 255.169 49.5204 255.17 49.5254V49.5275C255.17 49.5345 255.17 49.5405 255.17 49.5476C255.17 49.5496 255.17 49.5527 255.17 49.5547C255.17 49.5577 255.17 49.5597 255.17 49.5627C255.17 49.5658 255.17 49.5688 255.17 49.5718C255.17 49.5748 255.171 49.5768 255.171 49.5788C255.171 49.5829 255.171 49.5869 255.171 49.5899C255.171 49.5919 255.171 49.594 255.171 49.596C255.171 49.601 255.171 49.6071 255.171 49.6121C255.171 51.1715 254.035 52.4355 252.634 52.4355Z" fill="#F6B6B7"/>
<path d="M248.641 52.2236C248.504 52.2236 248.362 52.2125 248.214 52.1893C247.616 52.0966 247.163 52.02 246.817 51.9565C246.786 48.9396 247.155 45.7018 247.596 43.0498C247.873 42.9792 248.21 42.9188 248.562 42.9188C248.565 42.9188 248.569 42.9188 248.572 42.9188C249.01 42.9188 249.456 43.0065 249.857 43.2514C249.932 43.2978 250.015 43.3189 250.096 43.3189C250.251 43.3189 250.402 43.2413 250.487 43.0992C250.619 42.8835 250.552 42.6013 250.335 42.4692C249.755 42.1154 249.129 42.0025 248.572 42.0025C248.284 42.0035 248.012 42.0327 247.766 42.0751C248.15 39.9694 248.557 38.3546 248.788 37.7185C248.789 37.7165 248.79 37.7145 248.791 37.7125C250.892 38.4765 252.393 40.4905 252.393 42.8553V46.7885C252.393 46.7885 251.699 52.2236 248.641 52.2236ZM248.214 45.3158C247.898 45.3158 247.642 45.7916 247.642 46.3793C247.642 46.9669 247.898 47.4427 248.214 47.4427C248.531 47.4427 248.788 46.9669 248.788 46.3793C248.788 45.7916 248.531 45.3158 248.214 45.3158Z" fill="#F6B6B7"/>
<path d="M248.214 47.4429C247.898 47.4429 247.642 46.9671 247.642 46.3795C247.642 45.7918 247.898 45.316 248.214 45.316C248.531 45.316 248.788 45.7918 248.788 46.3795C248.788 46.9671 248.531 47.4429 248.214 47.4429Z" fill="#5D4035"/>
<path d="M250.096 43.3191C250.014 43.3191 249.932 43.2979 249.857 43.2516C249.456 43.0066 249.009 42.9189 248.572 42.9189C248.569 42.9189 248.565 42.9189 248.562 42.9189C248.21 42.9189 247.872 42.9794 247.596 43.05C247.652 42.7153 247.708 42.3897 247.766 42.0752C248.011 42.0329 248.284 42.0037 248.572 42.0027C249.128 42.0027 249.754 42.1156 250.335 42.4694C250.552 42.6014 250.619 42.8837 250.487 43.0994C250.401 43.2415 250.25 43.3191 250.096 43.3191Z" fill="#5D4035"/>
<path d="M248.76 59.9641C247.359 58.2465 246.852 55.2326 246.817 51.9566C247.163 52.0201 247.615 52.0966 248.214 52.1894C248.361 52.2126 248.503 52.2237 248.64 52.2237C251.699 52.2237 252.392 46.7885 252.392 46.7885V46.8016V52.4222V53.5351C252.392 53.5431 252.392 53.5502 252.392 53.5573C252.392 53.5593 252.392 53.5603 252.392 53.5623C252.392 53.5693 252.392 53.5764 252.392 53.5834C252.392 53.5845 252.392 53.5855 252.392 53.5865C252.392 53.5925 252.391 53.5986 252.391 53.6046C252.391 53.6066 252.391 53.6097 252.391 53.6117C252.391 53.6188 252.391 53.6248 252.391 53.6318C252.391 53.6338 252.391 53.6359 252.391 53.6379C252.391 53.6429 252.391 53.6469 252.391 53.651C252.391 53.655 252.391 53.658 252.391 53.6611C252.391 53.6661 252.391 53.6701 252.39 53.6752C252.39 53.6802 252.39 53.6853 252.39 53.6903C252.39 53.6923 252.39 53.6953 252.39 53.6984C252.334 56.3585 250.891 58.6719 248.76 59.9641Z" fill="#5D4035"/>
<path d="M218.165 120.78L222.611 114.051L218.165 120.78Z" fill="#F6E0A7"/>
<path d="M246.006 78.6333C247.595 76.0175 247.783 72.8786 246.697 70.1752C247.783 72.8786 247.595 76.0175 246.006 78.6333Z" fill="#49C09C"/>
<path d="M222.611 114.051L245.811 78.9396C245.877 78.8378 245.943 78.736 246.006 78.6332C245.943 78.736 245.877 78.8378 245.811 78.9396L222.611 114.051Z" fill="#2E8252"/>
<path d="M246.697 70.1753C246.206 68.9536 245.454 67.8206 244.454 66.865C245.454 67.8206 246.206 68.9536 246.697 70.1753Z" fill="#F6B6B7"/>
<path d="M218.165 120.78C216.849 101.609 244.17 66.6038 244.17 66.6038C244.267 66.6895 244.362 66.7772 244.454 66.8649C245.454 67.8205 246.206 68.9535 246.697 70.1752C247.783 72.8786 247.595 76.0175 246.006 78.6333C245.943 78.7361 245.878 78.8379 245.811 78.9397L222.611 114.051L218.165 120.78Z" fill="#F6B6B7"/>
<path d="M247.865 103.445C244.471 110.812 230.053 124.248 222.611 130.886V141.707C247.715 134.628 252.492 93.4054 247.865 103.445Z" fill="#4EC292"/>
<path d="M245.293 155.479H244.797V154.471H245.389C245.355 154.811 245.323 155.148 245.293 155.479Z" fill="#7D2A23"/>
<path d="M214.174 223.581L209.413 184.687L237.283 154.471H244.797V155.479H237.725L210.47 185.027L215.144 223.202C214.99 223.309 214.839 223.414 214.687 223.518L214.174 223.581Z" fill="#7D2A23"/>
<path d="M214.687 223.518C214.839 223.414 214.99 223.309 215.144 223.202L215.175 223.459L214.687 223.518Z" fill="#306652"/>
<path d="M247.642 155.479H245.293C245.323 155.148 245.355 154.811 245.389 154.471H247.642V155.479Z" fill="#2A1D19"/>
<path d="M274.3 218.122L273.819 217.948C273.681 217.845 273.542 217.741 273.404 217.636L289.145 174.38L275.404 165.85C275.537 165.534 275.671 165.221 275.806 164.913L290.372 173.956L274.3 218.122Z" fill="#7D2A23"/>
<path d="M273.819 217.948L273.353 217.778L273.404 217.637C273.542 217.741 273.681 217.845 273.819 217.948Z" fill="#306652"/>
<path d="M275.404 165.851L272.014 163.746H272.015L272.546 162.89L275.806 164.913C275.671 165.222 275.537 165.534 275.404 165.851Z" fill="#2A1D19"/>
</svg>
