<svg width="25" height="25" viewBox="0 0 25 25" fill="none" xmlns="http://www.w3.org/2000/svg">
<rect width="25" height="25" rx="12.5" fill="#33BD64"/>
<path d="M12.5 4C7.80444 4 4 7.80444 4 12.5C4 17.1956 7.80444 21 12.5 21C17.1956 21 21 17.1956 21 12.5C21 7.80444 17.1956 4 12.5 4ZM14.4571 15.9994L11.4341 13.8024C11.3278 13.7236 11.2661 13.6002 11.2661 13.47V7.70161C11.2661 7.4754 11.4512 7.29032 11.6774 7.29032H13.3226C13.5488 7.29032 13.7339 7.4754 13.7339 7.70161V12.4212L15.9103 14.0046C16.0954 14.1383 16.1331 14.3954 15.9994 14.5804L15.0329 15.9103C14.8992 16.0919 14.6421 16.1331 14.4571 15.9994Z" fill="white"/>
</svg>
