
<svg width="159" height="186" viewBox="0 0 159 186" fill="none" xmlns="http://www.w3.org/2000/svg">
<path d="M136.146 42.835L12.8623 87.5453L24.8776 45.1283L146.141 0.715088L136.146 42.835Z" fill="url(#paint0_linear_63_109)"/>
<path d="M8.71925 143.603L55.1045 126.008L107.354 160.664L58.8366 176.755L8.71925 143.603Z" fill="#D9D9D9"/>
<path d="M20.9824 102.549L107.355 160.664L58.8369 176.659L8.7196 143.603L20.9824 102.549Z" fill="url(#paint1_linear_63_109)"/>
<path d="M71.0996 136.138L8.71966 143.603L20.9824 102.549L71.0996 136.138Z" fill="#D6A91E"/>
<path d="M115.352 105.215L128.148 62.0288L20.9824 102.549L8.7196 143.603L115.352 105.215Z" fill="url(#paint2_linear_63_109)"/>
<path d="M121.217 84.9548L128.148 62.0288L20.9823 102.549L18.3165 111.613L121.217 84.9548Z" fill="url(#paint3_linear_63_109)"/>
<defs>
<linearGradient id="paint0_linear_63_109" x1="13.5181" y1="75.8911" x2="147.342" y2="12.4447" gradientUnits="userSpaceOnUse">
<stop stop-color="#2DB656"/>
<stop offset="1" stop-color="#74DC65"/>
</linearGradient>
<linearGradient id="paint1_linear_63_109" x1="28.9798" y1="126.008" x2="73.7655" y2="165.462" gradientUnits="userSpaceOnUse">
<stop offset="0.0652429" stop-color="#E3B525"/>
<stop offset="0.789675" stop-color="#FFC81B"/>
</linearGradient>
<linearGradient id="paint2_linear_63_109" x1="68.4339" y1="78.0237" x2="88.1609" y2="125.475" gradientUnits="userSpaceOnUse">
<stop offset="0.167047" stop-color="#1D8D2B"/>
<stop offset="0.43085" stop-color="#2DA150"/>
<stop offset="0.807736" stop-color="#2BB857"/>
</linearGradient>
<linearGradient id="paint3_linear_63_109" x1="68.4338" y1="78.0237" x2="88.1609" y2="125.475" gradientUnits="userSpaceOnUse">
<stop offset="0.0581062" stop-color="#218F2F"/>
</linearGradient>
</defs>
</svg>
