<svg width="93" height="35" viewBox="0 0 93 35" fill="none" xmlns="http://www.w3.org/2000/svg">
<path d="M24.6023 7.64222L2.23381 15.7545L4.41386 8.05832L26.4158 0L24.6023 7.64222Z" fill="url(#paint0_linear_63_379)"/>
<path d="M1.48206 25.9254L9.89818 22.7331L19.3784 29.021L10.5753 31.9406L1.48206 25.9254Z" fill="#D9D9D9"/>
<path d="M3.70688 18.4768L19.3783 29.0211L10.5752 31.9232L1.48193 25.9256L3.70688 18.4768Z" fill="url(#paint1_linear_63_379)"/>
<path d="M12.8003 24.5712L1.48205 25.9255L3.707 18.4768L12.8003 24.5712Z" fill="#D6A91E"/>
<path d="M20.8293 18.9605L23.151 11.1248L3.70688 18.4768L1.48193 25.9255L20.8293 18.9605Z" fill="url(#paint2_linear_63_379)"/>
<path d="M21.8936 15.2844L23.1512 11.1248L3.70707 18.4768L3.22339 20.1213L21.8936 15.2844Z" fill="url(#paint3_linear_63_379)"/>
<path d="M31.594 11.9872H39.2924V13.832H33.5452V17.557H38.7248V19.4018H33.5452V24.6877H31.594V11.9872ZM41.0442 18.373H46.8623V20.0049H41.0442V18.373ZM55.3966 24.9716C54.1667 24.9716 53.0433 24.6818 52.0263 24.1024C51.0212 23.5229 50.2288 22.7247 49.6494 21.7077C49.07 20.6907 48.7802 19.5673 48.7802 18.3375C48.7802 17.1076 49.07 15.9842 49.6494 14.9672C50.2288 13.9502 51.0212 13.152 52.0263 12.5726C53.0433 11.9931 54.1667 11.7034 55.3966 11.7034C57.3005 11.7034 58.8673 12.3952 60.0972 13.7788L58.7313 15.1091C58.2938 14.5888 57.803 14.1986 57.2591 13.9384C56.7269 13.6783 56.112 13.5482 55.4143 13.5482C54.5511 13.5482 53.7647 13.7492 53.0551 14.1513C52.3456 14.5415 51.7839 15.1032 51.37 15.8364C50.9561 16.5577 50.7492 17.3914 50.7492 18.3375C50.7492 19.2835 50.9561 20.1231 51.37 20.8563C51.7839 21.5777 52.3456 22.1394 53.0551 22.5414C53.7647 22.9317 54.5511 23.1268 55.4143 23.1268C56.857 23.1268 58.0691 22.5296 59.0506 21.3352L60.452 22.6833C59.837 23.4047 59.0979 23.9664 58.2347 24.3685C57.3714 24.7705 56.4254 24.9716 55.3966 24.9716ZM68.6574 24.3507C67.9479 24.7646 67.1378 24.9716 66.2272 24.9716C65.3167 24.9716 64.5007 24.7646 63.7794 24.3507C63.058 23.925 62.4963 23.3456 62.0943 22.6124C61.6922 21.8792 61.4912 21.0632 61.4912 20.1645C61.4912 19.2658 61.6922 18.4498 62.0943 17.7166C62.4963 16.9835 63.058 16.4099 63.7794 15.996C64.5007 15.5703 65.3167 15.3575 66.2272 15.3575C67.126 15.3575 67.936 15.5703 68.6574 15.996C69.3787 16.4218 69.9404 17.0012 70.3425 17.7344C70.7446 18.4676 70.9456 19.2776 70.9456 20.1645C70.9456 21.0632 70.7446 21.8792 70.3425 22.6124C69.9404 23.3456 69.3787 23.925 68.6574 24.3507ZM64.8082 22.843C65.2457 23.0913 65.7188 23.2155 66.2272 23.2155C66.7357 23.2155 67.2028 23.0913 67.6286 22.843C68.0543 22.5946 68.3972 22.2399 68.6574 21.7787C68.9175 21.3175 69.0476 20.7794 69.0476 20.1645C69.0476 19.5496 68.9175 19.0115 68.6574 18.5503C68.3972 18.0891 68.0543 17.7344 67.6286 17.486C67.2028 17.2377 66.7357 17.1135 66.2272 17.1135C65.7188 17.1135 65.2457 17.2377 64.8082 17.486C64.3825 17.7344 64.0395 18.0891 63.7794 18.5503C63.5192 19.0115 63.3891 19.5496 63.3891 20.1645C63.3891 20.7794 63.5192 21.3175 63.7794 21.7787C64.0395 22.2399 64.3825 22.5946 64.8082 22.843ZM76.5769 24.9716C75.761 24.9716 75.0219 24.7705 74.3596 24.3685C73.6974 23.9546 73.1771 23.381 72.7987 22.6479C72.4203 21.9147 72.2311 21.0869 72.2311 20.1645C72.2311 19.2421 72.4203 18.4203 72.7987 17.6989C73.1771 16.9657 73.6974 16.3922 74.3596 15.9783C75.0219 15.5644 75.761 15.3575 76.5769 15.3575C77.2391 15.3575 77.8245 15.5053 78.333 15.8009C78.8415 16.0847 79.2258 16.4395 79.486 16.8652H79.5924L79.486 15.6058V11.9872H81.384V24.6877H79.5924V23.4815H79.486C79.2258 23.8954 78.8415 24.2502 78.333 24.5458C77.8245 24.8296 77.2391 24.9716 76.5769 24.9716ZM75.5126 22.843C75.9383 23.0913 76.3877 23.2155 76.8607 23.2155C77.3337 23.2155 77.7772 23.0913 78.1911 22.843C78.6168 22.5828 78.9538 22.2221 79.2022 21.7609C79.4623 21.2998 79.5924 20.7676 79.5924 20.1645C79.5924 19.5614 79.4623 19.0293 79.2022 18.5681C78.9538 18.1069 78.6168 17.7521 78.1911 17.5038C77.7772 17.2436 77.3337 17.1135 76.8607 17.1135C76.3877 17.1135 75.9383 17.2436 75.5126 17.5038C75.0987 17.7521 74.7617 18.1069 74.5016 18.5681C74.2532 19.0293 74.1291 19.5614 74.1291 20.1645C74.1291 20.7676 74.2532 21.2998 74.5016 21.7609C74.7617 22.2221 75.0987 22.5828 75.5126 22.843ZM87.6868 24.9716C86.8118 24.9716 86.0195 24.7646 85.3099 24.3507C84.6122 23.9368 84.0623 23.3692 83.6603 22.6479C83.27 21.9147 83.0749 21.0928 83.0749 20.1822C83.0749 19.319 83.2641 18.5208 83.6425 17.7876C84.0328 17.0426 84.5708 16.4513 85.2567 16.0138C85.9426 15.5762 86.7172 15.3575 87.5804 15.3575C88.491 15.3575 89.2774 15.5585 89.9396 15.9606C90.6018 16.3508 91.1044 16.8948 91.4473 17.5925C91.8021 18.2902 91.9795 19.0825 91.9795 19.9694C91.9795 20.2059 91.9677 20.4069 91.944 20.5725H84.9552C85.0379 21.4357 85.3454 22.1039 85.8775 22.5769C86.4097 23.0381 87.0305 23.2687 87.7401 23.2687C88.3195 23.2687 88.8162 23.1386 89.2301 22.8785C89.644 22.6065 89.9751 22.2517 90.2234 21.8142L91.8021 22.5769C91.3882 23.3219 90.8383 23.9073 90.1524 24.333C89.4666 24.7587 88.6447 24.9716 87.6868 24.9716ZM90.0815 19.1357C90.0578 18.8046 89.9514 18.4735 89.7622 18.1424C89.573 17.8112 89.2951 17.5393 88.9285 17.3264C88.5737 17.1017 88.1303 16.9894 87.5981 16.9894C86.9596 16.9894 86.4156 17.1845 85.9662 17.5747C85.5287 17.965 85.2271 18.4853 85.0616 19.1357H90.0815Z" fill="#374141"/>
<defs>
<linearGradient id="paint0_linear_63_379" x1="2.3528" y1="13.6399" x2="26.6338" y2="2.12821" gradientUnits="userSpaceOnUse">
<stop stop-color="#2DB656"/>
<stop offset="1" stop-color="#74DC65"/>
</linearGradient>
<linearGradient id="paint1_linear_63_379" x1="5.15794" y1="22.7332" x2="13.2838" y2="29.8918" gradientUnits="userSpaceOnUse">
<stop offset="0.0652429" stop-color="#E3B525"/>
<stop offset="0.789675" stop-color="#FFC81B"/>
</linearGradient>
<linearGradient id="paint2_linear_63_379" x1="12.3165" y1="14.0269" x2="15.8957" y2="22.6365" gradientUnits="userSpaceOnUse">
<stop offset="0.167047" stop-color="#1D8D2B"/>
<stop offset="0.43085" stop-color="#2DA150"/>
<stop offset="0.807736" stop-color="#2BB857"/>
</linearGradient>
<linearGradient id="paint3_linear_63_379" x1="12.3167" y1="14.0269" x2="15.8959" y2="22.6365" gradientUnits="userSpaceOnUse">
<stop offset="0.0581062" stop-color="#218F2F"/>
</linearGradient>
</defs>
</svg>
