
<svg width="686" height="449" viewBox="0 0 686 449" fill="none" xmlns="http://www.w3.org/2000/svg">
<path d="M67.4358 383.084C66.6007 382.877 65.7666 382.658 64.9325 382.425L64.658 383.446C65.5024 383.681 66.3459 383.902 67.1893 384.111L67.4358 383.084Z" fill="#E8F6EC"/>
<path d="M61.4609 381.392C59.824 380.871 58.1922 380.305 56.5709 379.694L56.21 380.686C57.848 381.303 59.4964 381.876 61.151 382.401L61.4609 381.392ZM53.2029 378.352C51.6133 377.685 50.0374 376.975 48.4795 376.221L48.033 377.176C49.6072 377.938 51.2001 378.656 52.8064 379.33L53.2029 378.352ZM45.2425 374.579C43.7157 373.767 42.2102 372.913 40.7306 372.018L40.1989 372.927C41.6951 373.833 43.2173 374.696 44.761 375.516L45.2425 374.579ZM37.6602 370.075C36.2139 369.118 34.7973 368.119 33.4157 367.082L32.7978 367.932C34.1969 368.984 35.6301 369.993 37.0931 370.961L37.6602 370.075ZM30.5553 364.833C29.2134 363.729 27.9098 362.585 26.6492 361.401L25.9439 362.178C27.2216 363.379 28.5423 364.538 29.9016 365.655L30.5553 364.833ZM24.0557 358.844C22.8471 357.593 21.686 356.302 20.5774 354.972L19.7844 355.656C20.9097 357.006 22.0882 358.316 23.3138 359.586L24.0557 358.844ZM18.3166 352.111C17.2539 350.69 16.2699 349.258 15.3623 347.817L14.4865 348.389C15.4095 349.854 16.4097 351.309 17.4891 352.752L18.3166 352.111ZM13.509 344.673C12.6572 343.122 11.8897 341.562 11.2036 339.994L10.2533 340.424C10.9525 342.022 11.7342 343.611 12.6015 345.189L13.509 344.673ZM9.84834 336.599C9.24867 334.942 8.73637 333.276 8.30737 331.607L7.30117 331.874C7.7387 333.577 8.26109 335.275 8.87209 336.965L9.84834 336.599ZM7.51686 328.033C7.19592 326.308 6.96067 324.58 6.80758 322.851L5.77206 322.946C5.92806 324.709 6.16767 326.47 6.49475 328.23L7.51686 328.033ZM6.60437 319.193C6.59469 318.758 6.5898 318.324 6.5898 317.89C6.5898 316.58 6.63452 315.27 6.72261 313.964L5.68511 313.892C5.59526 315.222 5.5498 316.555 5.5498 317.89C5.5498 318.332 5.55469 318.774 5.56478 319.218L6.60437 319.193ZM7.07934 310.322C7.30034 308.597 7.59403 306.878 7.9572 305.165L6.9408 304.942C6.5715 306.682 6.27292 308.43 6.04786 310.184L7.07934 310.322ZM8.81437 301.601C9.26531 299.924 9.78125 298.254 10.3577 296.598L9.37752 296.244C8.79252 297.925 8.2692 299.619 7.81139 301.323L8.81437 301.601ZM11.6443 293.165C12.2919 291.554 12.9952 289.955 13.7511 288.372L12.816 287.909C12.0502 289.513 11.3376 291.132 10.6816 292.764L11.6443 293.165ZM15.3997 285.099C16.2126 283.565 17.0738 282.047 17.9802 280.547L17.0946 279.992C16.1781 281.509 15.3067 283.045 14.4844 284.598L15.3997 285.099ZM19.9331 277.449C20.8853 275.998 21.8786 274.567 22.9101 273.157L22.076 272.525C21.0341 273.949 20.0301 275.395 19.0681 276.862L19.9331 277.449ZM25.1172 270.246C26.1902 268.88 27.298 267.536 28.4379 266.217L27.6567 265.519C26.5062 266.85 25.3878 268.206 24.3047 269.586L25.1172 270.246ZM30.8706 263.491C32.0491 262.212 33.2573 260.958 34.4914 259.733L33.7651 258.975C32.5199 260.212 31.3007 261.476 30.1117 262.768L30.8706 263.491ZM37.1239 257.198C38.3972 256.01 39.6947 254.85 41.0134 253.721L40.3438 252.912C39.0138 254.049 37.7048 255.219 36.4203 256.419L37.1239 257.198ZM43.8263 251.388C45.1843 250.296 46.5619 249.238 47.955 248.215L47.3464 247.357C45.9408 248.39 44.5514 249.457 43.1816 250.559L43.8263 251.388ZM50.9247 246.106C52.362 245.118 53.8139 244.168 55.2761 243.26L54.7342 242.357C53.2577 243.274 51.7928 244.233 50.3425 245.23L50.9247 246.106ZM58.3961 241.391C59.9093 240.519 61.4308 239.692 62.9565 238.911L62.4895 237.966C60.9472 238.755 59.4111 239.59 57.8833 240.471L58.3961 241.391ZM66.2189 237.317C67.3421 236.793 68.4674 236.296 69.5927 235.825C70.0565 235.631 70.5193 235.437 70.9811 235.241L70.5807 234.264C70.121 234.459 69.6593 234.654 69.1975 234.846C68.0597 235.322 66.922 235.826 65.7852 236.355L66.2189 237.317ZM74.3372 233.788C75.9388 233.081 77.5237 232.357 79.0879 231.61L78.6459 230.652C77.0932 231.394 75.5165 232.114 73.9222 232.818L74.3372 233.788ZM82.3722 229.991C83.9385 229.193 85.4777 228.368 86.9857 227.51L86.4781 226.587C84.9857 227.436 83.4601 228.254 81.9063 229.045L82.3722 229.991ZM90.1421 225.632C91.6386 224.7 93.0988 223.729 94.5153 222.711L93.9152 221.847C92.5185 222.85 91.0781 223.808 89.5992 224.73L90.1421 225.632ZM97.4512 220.481C98.825 219.377 100.15 218.221 101.42 217.004L100.706 216.234C99.4604 217.427 98.1584 218.565 96.8064 219.65L97.4512 220.481ZM104.006 214.357C105.19 213.06 106.314 211.699 107.374 210.268L106.543 209.632C105.506 211.033 104.405 212.366 103.244 213.637L104.006 214.357ZM109.471 207.202C110.402 205.727 111.268 204.183 112.063 202.564L111.133 202.091C110.354 203.677 109.507 205.187 108.596 206.631L109.471 207.202ZM113.584 199.165C114.234 197.56 114.819 195.888 115.337 194.141L114.342 193.836C113.833 195.549 113.259 197.19 112.622 198.762L113.584 199.165ZM116.278 190.528C116.661 188.77 116.924 187.008 117.081 185.242L116.045 185.147C115.892 186.869 115.636 188.587 115.262 190.299L116.278 190.528ZM117.261 181.504C117.262 181.363 117.263 181.223 117.263 181.082C117.263 179.448 117.182 177.813 117.032 176.178L115.998 176.275C116.144 177.882 116.223 179.483 116.223 181.082C116.223 181.219 116.222 181.357 116.221 181.496L117.261 181.504ZM116.58 172.476C116.317 170.735 115.984 168.994 115.596 167.255L114.582 167.489C114.965 169.207 115.292 170.923 115.552 172.637L116.58 172.476ZM114.716 163.645C114.268 161.945 113.776 160.247 113.253 158.553L112.261 158.869C112.78 160.551 113.268 162.236 113.712 163.919L114.716 163.645ZM112.12 155.024C111.566 153.354 110.989 151.687 110.402 150.024L109.424 150.382C110.009 152.04 110.583 153.7 111.135 155.363L112.12 155.024ZM109.161 146.542C108.564 144.88 107.965 143.224 107.377 141.575L106.399 141.935C106.988 143.587 107.587 145.244 108.184 146.905L109.161 146.542ZM106.153 138.094C105.574 136.421 105.016 134.755 104.491 133.101L103.501 133.425C104.029 135.092 104.591 136.766 105.171 138.446L106.153 138.094ZM103.425 129.577C102.936 127.872 102.493 126.177 102.11 124.496L101.097 124.734C101.485 126.438 101.934 128.152 102.427 129.874L103.425 129.577ZM101.385 120.899C101.082 119.151 100.851 117.419 100.692 115.705L99.657 115.805C99.8182 117.548 100.053 119.307 100.362 121.083L101.385 120.899ZM100.457 112.045C100.432 111.314 100.419 110.587 100.419 109.864C100.419 108.839 100.444 107.821 100.495 106.809L99.4563 106.756C99.4053 107.785 99.3793 108.821 99.3793 109.864C99.3793 110.6 99.3918 111.34 99.4178 112.082L100.457 112.045ZM100.787 103.158C100.981 101.41 101.249 99.6869 101.588 97.9898L100.569 97.7793C100.224 99.506 99.9503 101.26 99.7537 103.04L100.787 103.158ZM102.415 94.4244C102.863 92.7316 103.382 91.0673 103.97 89.4348L102.993 89.0709C102.395 90.733 101.867 92.4258 101.411 94.1493L102.415 94.4244ZM105.311 86.0291C105.999 84.4263 106.753 82.8562 107.57 81.321L106.655 80.8174C105.825 82.378 105.058 83.9745 104.359 85.6059L105.311 86.0291ZM109.377 78.1491C110.28 76.6648 111.242 75.2174 112.261 73.8092L111.423 73.1819C110.388 74.6133 109.41 76.0839 108.493 77.5927L109.377 78.1491ZM114.474 70.9167C115.563 69.5698 116.704 68.2643 117.894 66.9989L117.144 66.2668C115.935 67.5511 114.777 68.8768 113.671 70.2438L114.474 70.9167ZM120.453 64.4174C121.7 63.2218 122.993 62.0686 124.327 60.9598L123.669 60.1399C122.316 61.2645 121.005 62.4347 119.74 63.6471L120.453 64.4174ZM127.173 58.7095C128.551 57.6726 129.969 56.6823 131.421 55.7375L130.861 54.8467C129.39 55.8031 127.952 56.8082 126.556 57.8588L127.173 58.7095ZM134.504 53.8342C135.99 52.9645 137.509 52.1414 139.055 51.368L138.597 50.4189C137.029 51.2019 135.491 52.0356 133.985 52.918L134.504 53.8342ZM142.329 49.8243C143.902 49.1261 145.5 48.4786 147.121 47.883L146.767 46.8874C145.126 47.4915 143.507 48.1475 141.913 48.8553L142.329 49.8243ZM150.541 46.7128C152.18 46.1933 153.839 45.7267 155.512 45.3152L155.268 44.2868C153.572 44.7036 151.892 45.1766 150.232 45.7024L150.541 46.7128ZM159.039 44.5322C160.724 44.199 162.422 43.9207 164.131 43.6996L163.999 42.6501C162.268 42.8744 160.547 43.1558 158.84 43.4933L159.039 44.5322ZM167.719 43.3198C169.43 43.179 171.148 43.0966 172.87 43.0722L172.856 42.0142C171.11 42.0385 169.368 42.1232 167.636 42.265L167.719 43.3198ZM176.488 43.0881C178.254 43.1198 179.974 43.1844 181.654 43.2817L181.713 42.2258C180.019 42.1274 178.285 42.0618 176.507 42.0301L176.488 43.0881ZM185.261 43.5452C187.014 43.7018 188.723 43.8953 190.394 44.126L190.533 43.0775C188.846 42.8447 187.121 42.649 185.352 42.4914L185.261 43.5452ZM193.965 44.6857C195.688 44.9883 197.372 45.3321 199.024 45.7172L199.257 44.6857C197.585 44.2963 195.883 43.9482 194.142 43.6425L193.965 44.6857ZM202.528 46.607C204.201 47.0683 205.845 47.573 207.468 48.121L207.795 47.1159C206.155 46.5615 204.492 46.0516 202.8 45.5861L202.528 46.607ZM210.876 49.3451C212.483 49.9577 214.076 50.6147 215.66 51.313L216.074 50.3428C214.474 49.6371 212.866 48.9737 211.241 48.3537L210.876 49.3451ZM218.952 52.8333C220.495 53.575 222.034 54.3579 223.577 55.18L224.06 54.2436C222.505 53.4142 220.953 52.6249 219.397 51.8769L218.952 52.8333ZM226.764 56.9299C228.249 57.7689 229.742 58.6439 231.251 59.5537L231.782 58.6439C230.265 57.7287 228.763 56.8495 227.268 56.0042L226.764 56.9299ZM234.354 61.4624C235.797 62.3659 237.258 63.3012 238.741 64.2661L239.302 63.3752C237.815 62.4072 236.348 61.4687 234.899 60.5609L234.354 61.4624ZM241.789 66.272C243.207 67.2147 244.649 68.1838 246.117 69.1805L246.693 68.3002C245.224 67.3025 243.779 66.3313 242.357 65.3865L241.789 66.272ZM249.134 71.2372C250.541 72.2 251.973 73.185 253.436 74.1933L254.019 73.3173C252.557 72.309 251.123 71.3229 249.715 70.3591L249.134 71.2372ZM256.443 76.268C257.847 77.2372 259.279 78.2253 260.742 79.2325L261.325 78.3565C259.863 77.3493 258.432 76.3611 257.028 75.392L256.443 76.268ZM263.754 81.3041C264.991 82.1526 266.249 83.0138 267.531 83.8877C267.711 84.0094 267.891 84.1311 268.071 84.2527L268.643 83.3693C268.465 83.2498 268.287 83.1292 268.11 83.0085C266.829 82.1357 265.571 81.2745 264.336 80.427L263.754 81.3041ZM271.163 86.2397C272.623 87.139 274.135 88.0182 275.695 88.8783L276.19 87.9483C274.643 87.0956 273.147 86.2249 271.702 85.3351L271.163 86.2397ZM278.932 90.5997C280.461 91.3826 282.029 92.1486 283.635 92.8945L284.068 91.9328C282.473 91.1911 280.917 90.4315 279.4 89.6549L278.932 90.5997ZM286.973 94.3969C288.551 95.0846 290.16 95.7543 291.798 96.406L292.178 95.421C290.549 94.7724 288.949 94.107 287.383 93.4245L286.973 94.3969ZM295.21 97.7221C296.824 98.3263 298.463 98.9135 300.125 99.4826L300.457 98.4807C298.805 97.9136 297.174 97.3296 295.569 96.7297L295.21 97.7221ZM303.592 100.636C305.235 101.166 306.898 101.679 308.577 102.174L308.868 101.159C307.195 100.665 305.541 100.154 303.907 99.6276L303.592 100.636ZM312.087 103.179C313.754 103.641 315.434 104.086 317.128 104.514L317.379 103.487C315.693 103.061 314.02 102.619 312.361 102.158L312.087 103.179ZM320.674 105.38C322.356 105.778 324.049 106.159 325.752 106.522L325.965 105.486C324.27 105.124 322.584 104.745 320.909 104.349L320.674 105.38ZM329.319 107.255C331.019 107.591 332.725 107.91 334.438 108.211L334.615 107.169C332.909 106.869 331.21 106.551 329.518 106.216L329.319 107.255ZM338.032 108.816C339.746 109.092 341.464 109.35 343.184 109.59L343.326 108.541C341.613 108.303 339.902 108.046 338.195 107.771L338.032 108.816ZM346.803 110.066C348.529 110.281 350.256 110.476 351.982 110.654L352.086 109.601C350.368 109.425 348.648 109.23 346.928 109.016L346.803 110.066ZM355.619 110.998C357.357 111.149 359.09 111.281 360.82 111.393L360.886 110.337C359.164 110.226 357.438 110.094 355.707 109.944L355.619 110.998ZM364.461 111.598C366.203 111.682 367.94 111.746 369.667 111.788L369.692 110.73C367.973 110.688 366.244 110.626 364.51 110.542L364.461 111.598ZM373.312 111.845C373.782 111.849 374.252 111.85 374.72 111.85C375.993 111.85 377.261 111.838 378.522 111.814L378.502 110.756C377.248 110.78 375.987 110.792 374.72 110.792C374.254 110.792 373.787 110.791 373.319 110.787L373.312 111.845ZM382.167 111.709C383.917 111.641 385.653 111.549 387.37 111.432L387.301 110.376C385.594 110.492 383.868 110.584 382.127 110.651L382.167 111.709ZM391.008 111.144C391.501 111.099 391.992 111.052 392.48 111.003C393.736 110.878 394.971 110.742 396.187 110.595L396.065 109.544C394.856 109.69 393.627 109.826 392.379 109.951C391.893 109.999 391.405 110.046 390.915 110.09L391.008 111.144ZM399.802 110.12C401.556 109.87 403.269 109.597 404.946 109.303L404.77 108.261C403.104 108.553 401.401 108.824 399.657 109.072L399.802 110.12ZM408.532 108.631C410.268 108.284 411.964 107.913 413.624 107.52L413.388 106.49C411.74 106.88 410.055 107.248 408.331 107.593L408.532 108.631ZM417.164 106.633C418.874 106.181 420.545 105.705 422.181 105.206L421.882 104.193C420.259 104.688 418.6 105.16 416.903 105.608L417.164 106.633ZM425.661 104.096C427.334 103.537 428.972 102.955 430.579 102.351L430.218 101.358C428.623 101.958 426.997 102.536 425.336 103.09L425.661 104.096ZM433.983 101.022C435.612 100.362 437.212 99.6794 438.786 98.9769L438.369 98.0078C436.805 98.705 435.216 99.3832 433.598 100.039L433.983 101.022ZM442.109 97.4513C443.692 96.7033 445.253 95.9362 446.798 95.1523L446.334 94.2054C444.797 94.9851 443.245 95.7479 441.67 96.4917L442.109 97.4513ZM450.048 93.4669C451.589 92.6512 453.117 91.8206 454.638 90.9774L454.14 90.0485C452.624 90.8896 451.102 91.7169 449.568 92.5284L450.048 93.4669ZM457.821 89.1904C459.329 88.3345 460.832 87.468 462.34 86.593L461.825 85.6736C460.32 86.5486 458.818 87.413 457.314 88.2668L457.821 89.1904ZM465.495 84.7542C466.986 83.8814 468.485 83.0033 469.995 82.1198L469.477 81.2025C467.965 82.0859 466.467 82.9652 464.977 83.8369L465.495 84.7542ZM473.147 80.2831C474.635 79.4198 476.139 78.5544 477.664 77.6878L477.156 76.7642C475.628 77.6328 474.123 78.5004 472.632 79.3648L473.147 80.2831ZM480.84 75.8998C482.338 75.0651 483.857 74.2324 485.404 73.4008L484.919 72.4656C483.366 73.2993 481.841 74.1351 480.34 74.972L480.84 75.8998ZM488.622 71.6985C490.139 70.9082 491.682 70.1221 493.257 69.3413L492.801 68.3902C491.22 69.1741 489.671 69.9634 488.149 70.7569L488.623 71.6985H488.622ZM496.528 67.749C497.789 67.147 499.07 66.5492 500.373 65.9557C500.662 65.8245 500.951 65.6944 501.243 65.5653L500.828 64.5951C500.533 64.7263 500.24 64.8575 499.949 64.9908C498.64 65.5865 497.352 66.1874 496.086 66.7915L496.528 67.749ZM504.584 64.1529C506.172 63.5138 507.79 62.9076 509.435 62.3363L509.099 61.3354C507.439 61.912 505.805 62.5235 504.202 63.1689L504.584 64.1529ZM512.877 61.2042C514.516 60.6943 516.176 60.2181 517.855 59.7791L517.596 58.7549C515.902 59.1982 514.227 59.6775 512.573 60.1917L512.877 61.2042ZM521.374 58.92C523.05 58.5381 524.741 58.1921 526.444 57.8863L526.263 56.8442C524.545 57.1531 522.838 57.5023 521.147 57.8863L521.374 58.92ZM530.018 57.3013C531.722 57.0505 533.434 56.8389 535.151 56.6686L535.05 55.6159C533.316 55.7873 531.589 56.0009 529.869 56.2538L530.018 57.3013ZM538.759 56.3702C540.48 56.2581 542.203 56.1861 543.925 56.1586L543.909 55.1006C542.17 55.1292 540.429 55.2001 538.692 55.3143L538.759 56.3702ZM547.543 56.166C549.27 56.201 550.992 56.2803 552.706 56.4073L552.782 55.3524C551.048 55.2244 549.308 55.143 547.564 55.1081L547.543 56.166ZM556.309 56.7448C558.025 56.9405 559.73 57.1849 561.422 57.48L561.598 56.4369C559.886 56.1385 558.16 55.8909 556.424 55.6941L556.309 56.7448ZM564.972 58.1794C566.659 58.5497 568.329 58.974 569.978 59.4532L570.264 58.4354C568.592 57.9498 566.9 57.5203 565.191 57.1447L564.972 58.1794ZM573.427 60.5461C575.06 61.1079 576.669 61.7269 578.249 62.4051L578.653 61.4306C577.048 60.7419 575.417 60.1134 573.761 59.5432L573.427 60.5461ZM581.535 63.9212C583.08 64.6861 584.594 65.5113 586.073 66.4001L586.603 65.4891C585.099 64.5856 583.56 63.7466 581.99 62.97L581.535 63.9212ZM589.124 68.3552C589.539 68.6398 589.952 68.9287 590.36 69.2238C591.37 69.9518 592.327 70.705 593.233 71.4837L593.904 70.6754C592.975 69.8777 591.995 69.1054 590.962 68.3605C590.545 68.0611 590.126 67.7659 589.704 67.4771L589.124 68.3552ZM595.87 73.9563C597.097 75.2132 598.215 76.524 599.235 77.8825L600.061 77.2403C599.015 75.8459 597.867 74.5001 596.609 73.2104L595.87 73.9563ZM601.28 80.8799C602.194 82.3579 603.011 83.8856 603.739 85.4557L604.68 85.0039C603.935 83.3968 603.098 81.832 602.16 80.3159L601.279 80.8799H601.28ZM605.144 88.8201C605.75 90.441 606.275 92.0999 606.732 93.7917L607.734 93.5124C607.271 91.7899 606.735 90.0982 606.116 88.4445L605.144 88.8201ZM607.581 97.3561C607.936 99.0531 608.231 100.778 608.474 102.524L609.504 102.376C609.257 100.607 608.959 98.8595 608.598 97.136L607.581 97.3561ZM608.91 106.177C609.083 107.909 609.214 109.657 609.312 111.419L610.351 111.359C610.252 109.583 610.119 107.819 609.945 106.07L608.91 106.177ZM609.471 115.102C609.527 116.852 609.557 118.61 609.568 120.373L610.608 120.367C610.597 118.596 610.567 116.829 610.511 115.068L609.471 115.102ZM609.57 124.066C609.561 125.828 609.541 127.589 609.517 129.348L610.557 129.362C610.581 127.603 610.601 125.839 610.61 124.072L609.57 124.066ZM609.466 133.047C609.442 134.82 609.422 136.585 609.413 138.337L610.453 138.342C610.462 136.595 610.482 134.833 610.506 133.061L609.466 133.047ZM609.416 142.043C609.429 143.829 609.462 145.597 609.523 147.342L610.563 147.304C610.502 145.571 610.469 143.813 610.456 142.035L609.416 142.043ZM609.705 151.053C609.8 152.532 609.921 153.991 610.076 155.427C610.109 155.733 610.144 156.04 610.182 156.346L611.213 156.217C611.177 155.915 611.143 155.614 611.11 155.311C610.956 153.892 610.837 152.449 610.743 150.985L609.705 151.053ZM610.728 160.033C611.039 161.785 611.421 163.521 611.885 165.233L612.888 164.952C612.432 163.273 612.057 161.568 611.752 159.846L610.728 160.033ZM612.985 168.798C613.569 170.473 614.241 172.119 615.009 173.727L615.944 173.263C615.193 171.693 614.537 170.084 613.966 168.444L612.985 168.798ZM616.749 177.018C617.639 178.573 618.565 180.072 619.522 181.518L620.384 180.927C619.44 179.499 618.527 178.021 617.649 176.486L616.749 177.018ZM621.629 184.555C622.676 185.996 623.755 187.384 624.859 188.727L625.657 188.048C624.565 186.721 623.5 185.35 622.465 183.927L621.629 184.555ZM627.257 191.53C628.435 192.853 629.636 194.131 630.855 195.373L631.59 194.625C630.383 193.395 629.194 192.13 628.029 190.82L627.257 191.53ZM633.472 197.961C634.743 199.181 636.03 200.368 637.326 201.53L638.013 200.735C636.726 199.581 635.447 198.402 634.187 197.191L633.472 197.961ZM640.084 203.955C641.411 205.103 642.745 206.231 644.078 207.346L644.739 206.528C643.409 205.416 642.079 204.291 640.757 203.149L640.084 203.955ZM646.896 209.688C648.244 210.805 649.587 211.915 650.92 213.027L651.58 212.208C650.245 211.095 648.9 209.984 647.552 208.868L646.896 209.688ZM653.724 215.387C655.056 216.52 656.371 217.66 657.665 218.818L658.351 218.023C657.05 216.858 655.727 215.712 654.392 214.575L653.724 215.387ZM660.359 221.287C661.625 222.479 662.866 223.694 664.073 224.941L664.814 224.2C663.594 222.939 662.342 221.712 661.065 220.51L660.359 221.287ZM666.553 227.606C667.704 228.897 668.819 230.225 669.889 231.599L670.704 230.942C669.618 229.548 668.488 228.201 667.322 226.895L666.553 227.606ZM672.053 234.531C673.035 235.938 673.972 237.397 674.858 238.913L675.752 238.374C674.851 236.831 673.899 235.349 672.901 233.918L672.053 234.531ZM676.603 242.115C677.375 243.634 678.097 245.212 678.764 246.855L679.725 246.45C679.047 244.78 678.312 243.175 677.527 241.629L676.603 242.115ZM680.042 250.276C680.59 251.882 681.088 253.549 681.532 255.281L682.539 255.013C682.087 253.254 681.581 251.562 681.024 249.929L680.042 250.276ZM682.351 258.849C682.689 260.509 682.981 262.228 683.222 264.009L684.253 263.865C684.008 262.061 683.713 260.319 683.37 258.634L682.351 258.849ZM683.638 267.655C683.795 269.346 683.909 271.089 683.979 272.89L685.018 272.849C684.948 271.029 684.832 269.266 684.673 267.555L683.638 267.655ZM684.058 276.569C684.059 276.746 684.059 276.924 684.059 277.102C684.059 278.691 683.965 280.242 683.782 281.758L684.815 281.887C685.002 280.328 685.099 278.733 685.099 277.102C685.099 276.922 685.099 276.743 685.098 276.564L684.058 276.569ZM683.174 285.338C682.799 287.043 682.308 288.699 681.71 290.31L682.683 290.683C683.298 289.028 683.802 287.323 684.189 285.57L683.174 285.338ZM680.29 293.643C679.543 295.193 678.695 296.699 677.751 298.161L678.621 298.741C679.587 297.244 680.458 295.7 681.224 294.108L680.29 293.643ZM675.663 301.132C674.626 302.491 673.507 303.81 672.311 305.091L673.065 305.82C674.283 304.516 675.426 303.169 676.485 301.781L675.663 301.132ZM669.75 307.668C668.51 308.842 667.205 309.981 665.841 311.086L666.49 311.914C667.872 310.793 669.197 309.636 670.458 308.443L669.75 307.668ZM662.964 313.308C661.585 314.32 660.158 315.303 658.687 316.255L659.245 317.148C660.732 316.185 662.176 315.191 663.572 314.165L662.964 313.308ZM655.597 318.174C654.125 319.053 652.615 319.904 651.073 320.728L651.558 321.665C653.112 320.833 654.635 319.974 656.124 319.086L655.597 318.174ZM647.841 322.397C646.301 323.164 644.735 323.906 643.146 324.623L643.569 325.59C645.167 324.867 646.746 324.12 648.299 323.347L647.841 322.397ZM639.814 326.081C638.227 326.753 636.624 327.402 635.006 328.029L635.377 329.018C637.003 328.387 638.616 327.735 640.214 327.057L639.814 326.081ZM631.604 329.309C629.975 329.902 628.337 330.475 626.695 331.026L627.02 332.031C628.671 331.477 630.317 330.902 631.955 330.304L631.604 329.309ZM623.237 332.154C621.579 332.679 619.92 333.182 618.265 333.666L618.552 334.683C620.214 334.198 621.881 333.691 623.546 333.164L623.237 332.154ZM614.765 334.66C613.082 335.125 611.406 335.568 609.742 335.992L609.993 337.018C611.665 336.593 613.347 336.147 615.037 335.681L614.765 334.659V334.66ZM606.211 336.866C604.504 337.276 602.814 337.665 601.146 338.035L601.368 339.069C603.041 338.698 604.737 338.307 606.45 337.896L606.211 336.866ZM597.589 338.799C595.86 339.16 594.158 339.499 592.492 339.817L592.685 340.857C594.356 340.537 596.063 340.198 597.798 339.836L597.589 338.799ZM588.916 340.478C587.157 340.793 585.446 341.083 583.792 341.351L583.955 342.396C585.615 342.128 587.331 341.836 589.096 341.52L588.916 340.478Z" fill="#E8F6EC"/>
<path d="M579.617 341.996C578.741 342.125 577.885 342.249 577.051 342.365L577.192 343.413C578.029 343.297 578.888 343.174 579.768 343.043L579.617 341.996Z" fill="#E8F6EC"/>
<path d="M56.9141 161.162H71.7475V160.104H56.9141V161.162Z" fill="#E8F6EC"/>
<path d="M71.7476 169.556H86.5814V168.498H71.7476V169.556Z" fill="#E8F6EC"/>
<path d="M509.578 95.2412H524.411V94.1832H509.578V95.2412Z" fill="#E8F6EC"/>
<path d="M500.163 103.634H514.997V102.576H500.163V103.634Z" fill="#E8F6EC"/>
<path d="M522.768 99.6309H542.926V98.5729H522.768V99.6309Z" fill="#E8F6EC"/>
<path d="M652.13 274.116H662.803V273.058H652.13V274.116Z" fill="#E8F6EC"/>
<path d="M642.452 265.818H657.285V264.76H642.452V265.818Z" fill="#E8F6EC"/>
<path d="M161.678 54.5029H176.511V53.4449H161.678V54.5029Z" fill="#E8F6EC"/>
<path d="M137.515 236.351H161.905V235.293H137.515V236.351Z" fill="#E8F6EC"/>
<path d="M167.059 236.351H179.719V235.293H167.059V236.351Z" fill="#E8F6EC"/>
<path d="M452.012 204.177H451.492C451.492 205.378 451.015 206.46 450.242 207.247C449.468 208.034 448.404 208.518 447.225 208.519C446.045 208.518 444.981 208.034 444.207 207.247C443.433 206.46 442.957 205.378 442.957 204.177C442.957 202.976 443.433 201.895 444.207 201.108C444.981 200.321 446.045 199.836 447.225 199.836C448.404 199.836 449.468 200.321 450.242 201.108C451.015 201.895 451.492 202.976 451.492 204.177H452.012H452.532C452.532 201.195 450.156 198.778 447.225 198.778C444.292 198.778 441.917 201.195 441.917 204.177C441.917 207.16 444.292 209.576 447.225 209.577C450.156 209.576 452.532 207.16 452.532 204.177H452.012Z" fill="#E8F6EC"/>
<path d="M640.175 170.475H639.655C639.655 171.674 639.178 172.757 638.405 173.544C637.631 174.331 636.568 174.816 635.387 174.816C634.207 174.816 633.144 174.331 632.37 173.544C631.596 172.757 631.12 171.675 631.12 170.475C631.12 169.274 631.596 168.191 632.37 167.404C633.144 166.618 634.207 166.133 635.387 166.133C636.568 166.133 637.631 166.618 638.405 167.404C639.178 168.191 639.655 169.274 639.655 170.475H640.175H640.695C640.695 167.492 638.319 165.076 635.387 165.075C632.455 165.075 630.08 167.492 630.08 170.475C630.08 173.456 632.455 175.874 635.387 175.874C638.319 175.874 640.695 173.457 640.695 170.475H640.175Z" fill="#E8F6EC"/>
<path d="M462.437 65.4733H461.917C461.916 66.6731 461.44 67.7554 460.666 68.5426C459.892 69.3297 458.828 69.8143 457.649 69.8143C456.47 69.8143 455.406 69.3297 454.632 68.5426C453.858 67.7554 453.382 66.6731 453.381 65.4733C453.382 64.2725 453.858 63.1902 454.632 62.403C455.406 61.6169 456.469 61.1324 457.649 61.1324C458.829 61.1324 459.892 61.6169 460.667 62.403C461.44 63.1902 461.916 64.2725 461.917 65.4733H462.437H462.957C462.956 62.4908 460.58 60.0744 457.649 60.0744C454.718 60.0744 452.342 62.4908 452.342 65.4733C452.342 68.4548 454.718 70.8723 457.649 70.8723C460.58 70.8723 462.956 68.4548 462.957 65.4733H462.437Z" fill="#E8F6EC"/>
<path d="M555.982 72.7661H555.462C555.46 73.8125 554.628 74.6589 553.601 74.661C552.572 74.6589 551.74 73.8125 551.739 72.7661C551.74 71.7208 552.572 70.8744 553.601 70.8723C554.628 70.8744 555.46 71.7208 555.462 72.7661H555.982H556.502C556.501 71.1357 555.203 69.8143 553.601 69.8143C551.998 69.8143 550.699 71.1357 550.699 72.7661C550.699 74.3975 551.998 75.7179 553.601 75.719C555.203 75.7179 556.501 74.3975 556.502 72.7661H555.982Z" fill="#E8F6EC"/>
<path d="M410.361 254.819H409.841C409.839 255.865 409.007 256.711 407.98 256.713C406.952 256.711 406.12 255.865 406.118 254.819C406.12 253.774 406.952 252.928 407.98 252.926C409.007 252.928 409.839 253.774 409.841 254.819H410.361H410.881C410.881 253.189 409.582 251.868 407.98 251.868C406.377 251.868 405.079 253.189 405.078 254.819C405.079 256.45 406.377 257.771 407.98 257.771C409.582 257.771 410.881 256.45 410.881 254.819H410.361Z" fill="#E8F6EC"/>
<path d="M133.604 81.025H133.084C133.083 82.0703 132.251 82.9167 131.222 82.9188C130.195 82.9167 129.363 82.0703 129.361 81.025C129.363 79.9786 130.195 79.1322 131.222 79.1301C132.251 79.1322 133.083 79.9786 133.084 81.025H133.604H134.124C134.124 79.3946 132.826 78.0732 131.222 78.0721C129.62 78.0732 128.322 79.3935 128.321 81.025C128.322 82.6553 129.62 83.9768 131.222 83.9768C132.826 83.9768 134.124 82.6553 134.124 81.025H133.604Z" fill="#E8F6EC"/>
<path d="M25.9559 232.433H25.4359C25.4338 233.479 24.6022 234.325 23.574 234.327C22.5463 234.325 21.7143 233.479 21.7126 232.433C21.7143 231.387 22.5467 230.54 23.574 230.538C24.6018 230.54 25.4338 231.387 25.4359 232.433H25.9559H26.4759C26.4755 230.803 25.1775 229.48 23.574 229.48C21.9709 229.48 20.673 230.803 20.6726 232.433C20.673 234.064 21.9714 235.384 23.574 235.385C25.177 235.384 26.4755 234.064 26.4759 232.433H25.9559Z" fill="#E8F6EC"/>
<path d="M143.276 182.795H142.756C142.754 183.841 141.922 184.688 140.894 184.69C139.866 184.688 139.034 183.841 139.033 182.795C139.034 181.75 139.866 180.903 140.894 180.901C141.922 180.903 142.754 181.75 142.756 182.795H143.276H143.796C143.796 181.165 142.497 179.844 140.894 179.843C139.292 179.843 137.993 181.165 137.993 182.795C137.993 184.426 139.292 185.747 140.894 185.748C142.497 185.747 143.796 184.426 143.796 182.795H143.276Z" fill="#E8F6EC"/>
<path d="M69.261 113.345H70.301V107.61H69.261V113.345Z" fill="#E8F6EC"/>
<path d="M66.9626 111.007H72.5994V109.949H66.9626V111.007Z" fill="#E8F6EC"/>
<path d="M399.023 36.845H400.063V31.1107H399.023V36.845Z" fill="#E8F6EC"/>
<path d="M396.725 34.5068H402.362V33.4488H396.725V34.5068Z" fill="#E8F6EC"/>
<path d="M576.431 125.528H577.471V119.793H576.431V125.528Z" fill="#E8F6EC"/>
<path d="M574.132 123.189H579.769V122.131H574.132V123.189Z" fill="#E8F6EC"/>
<path d="M668.59 202.174H669.63V196.44H668.59V202.174Z" fill="#E8F6EC"/>
<path d="M666.292 199.836H671.928V198.778H666.292V199.836Z" fill="#E8F6EC"/>
<path d="M641.932 302.83H642.972V297.096H641.932V302.83Z" fill="#E8F6EC"/>
<path d="M639.633 300.492H645.27V299.434H639.633V300.492Z" fill="#E8F6EC"/>
<path d="M434.921 226.909C425.55 224.139 420.161 214.167 422.884 204.633C425.606 195.1 435.411 189.619 444.781 192.389C454.151 195.159 459.54 205.132 456.817 214.665C454.094 224.198 444.291 229.679 434.921 226.909ZM433.165 233.055C420.457 229.299 413.15 215.775 416.843 202.847C420.535 189.92 433.83 182.487 446.537 186.243C459.243 189.999 466.551 203.524 462.858 216.451C459.166 229.378 445.872 236.811 433.165 233.055ZM481.108 233.546C482.908 230.323 484.381 226.843 485.444 223.127C486.505 219.41 487.093 215.67 487.271 211.966L477.255 210.555C477.337 207.117 476.952 203.731 476.153 200.472L485.638 196.867C483.657 189.552 480.006 182.794 474.996 177.173L466.922 183.388C464.645 180.955 462.042 178.81 459.143 177.038L463.342 167.678C460.173 165.846 456.753 164.348 453.099 163.267C449.445 162.187 445.769 161.588 442.128 161.407L440.741 171.598C437.362 171.514 434.033 171.906 430.829 172.718L427.287 163.069C420.097 165.084 413.453 168.8 407.927 173.895L414.037 182.109C411.646 184.425 409.536 187.074 407.794 190.022L398.594 185.752C396.792 188.976 395.32 192.454 394.258 196.171C393.196 199.888 392.607 203.629 392.429 207.332L402.447 208.743C402.365 212.181 402.749 215.567 403.549 218.826L394.063 222.431C396.044 229.746 399.695 236.504 404.706 242.125L412.779 235.91C415.056 238.343 417.66 240.489 420.557 242.26L416.36 251.62C419.529 253.452 422.949 254.952 426.602 256.031C430.255 257.111 433.932 257.71 437.573 257.891L438.96 247.699C442.339 247.785 445.669 247.392 448.872 246.58L452.415 256.229C459.605 254.215 466.249 250.499 471.774 245.403L465.664 237.189C468.056 234.873 470.165 232.225 471.906 229.276L481.108 233.546Z" fill="#C1DAC8"/>
<path d="M471.036 145.906C465.818 147.672 460.182 144.801 458.447 139.493C456.711 134.186 459.533 128.452 464.749 126.686C469.967 124.92 475.604 127.791 477.339 133.099C479.075 138.406 476.254 144.14 471.036 145.906ZM491.247 134.238C491.09 132.414 490.73 130.58 490.137 128.766C489.544 126.953 488.752 125.265 487.803 123.709L483.343 125.993C482.429 124.572 481.339 123.307 480.116 122.21L482.978 118.039C480.157 115.632 476.809 113.927 473.224 113.071L471.656 117.901C470.06 117.562 468.41 117.432 466.744 117.54L465.869 112.538C464.077 112.697 462.274 113.064 460.491 113.667C458.71 114.271 457.05 115.076 455.52 116.042L457.766 120.578C456.37 121.508 455.124 122.617 454.046 123.861L449.947 120.951C447.58 123.821 445.904 127.226 445.063 130.874L449.811 132.468C449.478 134.092 449.351 135.77 449.455 137.465L444.539 138.354C444.696 140.178 445.056 142.012 445.648 143.826C446.241 145.639 447.034 147.327 447.982 148.883L452.443 146.599C453.357 148.02 454.447 149.285 455.67 150.382L452.809 154.553C455.63 156.961 458.976 158.665 462.563 159.521L464.129 154.691C465.727 155.031 467.376 155.16 469.041 155.053L469.916 160.054C471.709 159.895 473.512 159.529 475.295 158.926C477.077 158.321 478.736 157.516 480.266 156.551L478.021 152.014C479.417 151.084 480.661 149.975 481.74 148.731L485.838 151.641C488.206 148.772 489.882 145.366 490.722 141.719L485.974 140.124C486.309 138.501 486.436 136.823 486.33 135.128L491.247 134.238Z" fill="#C1DAC8"/>
<path d="M214.677 117.814C206.693 120.516 198.066 116.123 195.409 108C192.753 99.8763 197.071 91.1002 205.056 88.3981C213.041 85.6949 221.667 90.0888 224.324 98.2121C226.981 106.335 222.662 115.11 214.677 117.814ZM245.611 99.9557C245.371 97.1647 244.818 94.3568 243.91 91.5816C243.004 88.8065 241.792 86.2229 240.339 83.8413L233.514 87.338C232.115 85.1628 230.447 83.2245 228.574 81.5465L232.953 75.1636C228.635 71.4786 223.513 68.8695 218.025 67.5608L215.626 74.952C213.184 74.4325 210.658 74.2347 208.108 74.3987L206.771 66.743C204.026 66.9874 201.267 67.5492 198.538 68.4717C195.81 69.3954 193.271 70.6279 190.931 72.1049L194.367 79.0496C192.23 80.4726 190.324 82.1697 188.675 84.0751L182.4 79.6188C178.778 84.0116 176.213 89.2233 174.926 94.8064L182.192 97.2472C181.682 99.7314 181.486 102.3 181.648 104.894L174.123 106.255C174.362 109.047 174.915 111.854 175.823 114.63C176.73 117.405 177.941 119.989 179.394 122.369L186.22 118.874C187.618 121.048 189.286 122.986 191.16 124.664L186.78 131.047C191.098 134.732 196.22 137.342 201.708 138.651L204.108 131.26C206.55 131.779 209.076 131.977 211.625 131.813L212.963 139.468C215.707 139.224 218.467 138.663 221.195 137.74C223.923 136.816 226.462 135.584 228.803 134.106L225.366 127.162C227.504 125.739 229.41 124.041 231.059 122.137L237.333 126.592C240.956 122.199 243.52 116.988 244.807 111.405L237.541 108.965C238.052 106.479 238.247 103.912 238.085 101.317L245.611 99.9557Z" fill="#C1DAC8"/>
<path d="M151.059 154.032C145.751 152.462 142.697 146.812 144.241 141.412C145.782 136.012 151.337 132.907 156.644 134.476C161.952 136.046 165.005 141.696 163.462 147.096C161.921 152.496 156.367 155.601 151.059 154.032ZM150.065 157.513C142.866 155.385 138.727 147.724 140.818 140.401C142.91 133.078 150.44 128.868 157.639 130.995C164.837 133.123 168.977 140.784 166.885 148.107C164.793 155.43 157.263 159.641 150.065 157.513ZM177.222 157.791C178.243 155.965 179.078 153.995 179.679 151.889C180.28 149.784 180.614 147.665 180.715 145.567L175.039 144.767C175.086 142.821 174.869 140.901 174.415 139.055L179.789 137.014C178.667 132.87 176.598 129.041 173.76 125.857L169.186 129.378C167.898 128 166.422 126.784 164.781 125.781L167.159 120.479C165.363 119.441 163.426 118.592 161.357 117.98C159.287 117.368 157.204 117.029 155.141 116.926L154.356 122.698C152.441 122.652 150.556 122.874 148.741 123.334L146.734 117.868C142.661 119.009 138.897 121.114 135.768 124L139.229 128.653C137.874 129.966 136.679 131.466 135.692 133.136L130.481 130.717C129.46 132.543 128.625 134.513 128.024 136.62C127.423 138.724 127.089 140.843 126.988 142.941L132.664 143.741C132.617 145.688 132.835 147.607 133.288 149.453L127.914 151.494C129.036 155.638 131.105 159.467 133.943 162.652L138.517 159.131C139.805 160.508 141.281 161.724 142.922 162.727L140.545 168.03C142.34 169.067 144.277 169.917 146.347 170.529C148.416 171.14 150.499 171.48 152.562 171.582L153.347 165.81C155.262 165.856 157.147 165.635 158.962 165.174L160.968 170.641C165.042 169.499 168.806 167.395 171.935 164.509L168.475 159.855C169.829 158.542 171.024 157.042 172.011 155.373L177.222 157.791Z" fill="#C1DAC8"/>
<path d="M308.084 447.895C311.251 441.247 327.763 412.15 345.172 402.537C347.384 401.317 349.718 400.183 352.224 399.944C354.731 399.704 357.465 400.512 358.982 402.558C360.365 404.421 360.518 406.966 360.12 409.266C356.958 427.468 336.58 434.437 326.628 447.895" fill="#E8F6EC"/>
<path d="M308.084 447.787C308.084 447.787 324.465 414.892 340.459 395.294C348.031 386.019 353.231 368.836 345.27 363.685C333.751 356.237 322.431 372.831 317.246 381.069C309.403 393.529 303.633 407.319 299.184 421.366C298.539 423.4 292.664 447.787 292.548 447.787H296.52H308.084Z" fill="#E8F6EC"/>
<path d="M339.002 372.778C323.833 392.294 311.294 421.094 302.954 447.625L303.944 447.948C312.254 421.5 324.776 392.776 339.817 373.435L339.002 372.778Z" fill="white"/>
<path d="M273.735 447.787C273.735 447.787 271.833 397.171 249.819 373.771C243.871 367.449 234.119 360.878 226.117 359.078C215.746 356.745 216.028 369.152 217.906 377.192C220.34 387.61 228.708 394.105 234.744 401.865C245.849 416.142 252.477 425.568 260.585 447.787" fill="#4EC292"/>
<path d="M280.353 447.787C286.297 436.723 284.206 389.422 281.226 374.606C279.155 364.308 274.904 354.26 269.092 346.037C263.824 338.585 248.082 322.16 238.818 328.835C233.459 332.696 241.575 346.6 243.716 350.775C250.659 364.312 256.163 378.784 260.465 393.67C265.442 410.89 269.205 428.987 270.551 447.097C270.569 447.327 270.583 447.557 270.599 447.787" fill="#E8F6EC"/>
<path d="M281.44 447.787C279.481 421.3 280.736 380.653 292.472 357.692C305.781 331.657 323.13 319.636 325.648 329.782C332.952 359.213 303.644 438.368 295.39 447.787" fill="#4EC292"/>
<path d="M222.912 367.963C246.444 384.642 262.75 416.345 265.773 447.837L266.808 447.735C263.744 415.953 247.351 384.016 223.507 367.095L222.912 367.963Z" fill="white"/>
<path d="M247.101 337.677C258.606 348.119 264.511 364.555 268.076 380.528C272.994 402.543 275.361 425.114 276.139 447.805L277.178 447.768C276.399 425.027 274.026 402.389 269.09 380.293C265.499 364.237 259.569 347.593 247.794 336.887L247.101 337.677Z" fill="white"/>
<path d="M317.695 340.71C303.356 374.226 291.247 410.464 289.219 447.757L290.257 447.816C292.272 410.718 304.331 374.592 318.649 341.132L317.695 340.71Z" fill="white"/>
<path d="M351.691 405.855C351.651 405.885 330.647 420.076 315.966 447.534L316.88 448.039C324.155 434.429 333.009 424.095 340.043 417.17C343.559 413.705 346.621 411.094 348.799 409.35C349.889 408.478 350.758 407.823 351.354 407.387C351.651 407.169 351.881 407.005 352.035 406.897C352.19 406.788 352.266 406.736 352.266 406.736L351.691 405.855Z" fill="white"/>
<path d="M566.252 447.702C569.362 405.869 565.897 364.841 581.562 325.2C586.007 313.949 596.138 296.201 610.149 295.595C631.788 294.657 618.538 338.885 614.618 355.436C612.097 366.078 608.338 376.665 604.433 386.843C597.508 404.888 587.096 430.118 579.226 447.702" fill="#4EC292"/>
<path d="M555.017 447.702C548.203 429.968 541.538 412.175 534.798 394.412C528.821 378.658 521.866 363.253 517.037 347.069C513.36 334.75 503.86 306.519 517.768 297.841C542.535 282.389 562.327 342.183 564.941 363.419C568.384 391.409 567.64 419.565 568.053 447.702" fill="#E8F6EC"/>
<path d="M535.336 447.702C535.336 447.702 520.863 428.893 514.336 420.072C499.753 400.369 481.776 378.97 484.459 356.822C485.077 351.725 486.913 346.051 491.948 343.035C495.025 341.192 498.848 340.68 502.345 341.02C514.194 342.167 524.809 359.672 530.139 368.646C540.578 386.221 556.744 447.702 556.744 447.702" fill="#4EC292"/>
<path d="M523.798 310.472C532.607 328.593 541.331 354.485 547.894 380.055C554.461 405.621 558.869 430.884 559.078 447.709L560.118 447.695C559.903 430.709 555.479 405.413 548.901 379.787C542.321 354.164 533.589 328.23 524.731 310.004L523.799 310.472" fill="white"/>
<path d="M496.34 352.225C504.109 367.408 515.898 391.337 525.744 411.469C530.667 421.535 535.104 430.652 538.311 437.251C539.914 440.551 541.21 443.223 542.104 445.069C543 446.914 543.492 447.933 543.494 447.935L544.427 447.468C544.426 447.466 512.813 382.126 497.263 351.736L496.34 352.225Z" fill="white"/>
<path d="M608.774 304.998C596.057 333.857 578.677 396.233 571.665 447.714L572.695 447.859C579.683 396.503 597.071 334.126 609.724 305.431L608.774 304.998Z" fill="white"/>
<path d="M579.837 447.702C579.837 447.702 587.07 414.918 592.077 396.308C597.522 376.071 615.333 345.099 634.055 336.298C638.364 334.273 643.559 332.881 647.728 335.192C650.276 336.606 652.011 339.229 652.951 342.022C656.138 351.489 640.548 381.385 635.188 389.775C624.69 406.204 609.654 432.308 597.734 447.702" fill="#E8F6EC"/>
<path d="M643.913 342.49C632.741 352.366 619.813 372.856 608.59 393.776C597.373 414.695 587.897 436.017 583.743 447.519L584.718 447.884C588.843 436.461 598.311 415.152 609.503 394.283C620.688 373.415 633.632 352.962 644.595 343.288L643.913 342.49Z" fill="white"/>
<path d="M99.5126 427.305C96.6775 412.016 92.0287 381.7 88.5021 363.096C86.7954 354.093 81.8554 343.096 78.7209 334.556C73.0009 318.971 59.1793 291.891 42.0397 293.338C20.7733 295.135 37.9598 334.028 43.3759 348.711C46.8578 358.15 51.5476 367.388 56.3401 376.234C64.8379 391.916 77.4365 413.754 86.8152 428.896" fill="#BDF2DC"/>
<path d="M111.789 410.807C106.599 396.998 108.001 379.435 108.019 364.821C108.05 338.518 117.028 301.541 133.865 284.28C140.805 277.164 152.288 269.253 159.748 280.13C166.813 290.429 158.645 318.425 156.072 330.454C151.032 354.01 126.897 397.639 119.925 420.447L111.789 410.807Z" fill="#4EC292"/>
<path d="M146.898 291.966C134.918 323.584 118.837 381.17 114.72 414.826L115.752 414.956C119.842 381.466 135.923 323.861 147.868 292.347L146.898 291.966Z" fill="white"/>
<path d="M43.3965 302.322C58.5115 327.049 80.7353 380.183 92.4738 426.368L93.4805 426.102C81.7035 379.791 59.4839 326.649 44.2796 301.763L43.3965 302.322Z" fill="white"/>
<path d="M100.118 393.877C106.496 383.257 114.062 348.787 115.788 336.466C118.215 319.143 118.476 300.84 114.26 283.775C111.415 272.26 98.3965 237.818 82.0613 253.351C74.3902 260.646 75.6143 300.4 76.5285 311.041C78.3173 331.882 88.9284 369.2 92.5705 389.788L100.118 393.877Z" fill="#E8F6EC"/>
<path d="M90.6226 262.423C93.598 270.304 95.5938 281.398 96.8345 293.892C98.0773 306.388 98.5713 320.289 98.5713 333.817C98.5713 357.269 97.0862 379.609 95.4638 391.563L96.4944 391.708C98.1262 379.674 99.6102 357.317 99.6102 333.817C99.6102 320.263 99.1162 306.331 97.8693 293.787C96.6213 281.239 94.6255 270.083 91.5929 262.043L90.6226 262.423Z" fill="white"/>
<path d="M0.437988 448.316H653.377V447.258H0.437988V448.316Z" fill="#6886CC"/>
<path d="M263.964 148.716C267.154 145.512 274.9 134.688 275.78 134.954C276.66 135.221 273.984 139.065 274.747 139.146C275.51 139.229 280.02 133.597 280.829 134.102C281.925 134.786 277.002 140.302 277.002 140.302C277.002 140.302 282.691 134.534 283.472 135.407C284.027 136.026 279.885 140.632 278.518 142.593C280.266 140.658 283.459 137.865 284.022 138.52C284.579 139.168 281.826 142.365 279.843 144.928C281.227 143.446 283.888 140.888 284.435 141.467C284.981 142.046 278.317 152.368 272.213 159.9" fill="#F6B6B7"/>
<path d="M223.334 188.253C250.486 164.652 268.704 143.073 268.704 143.073L278.902 150.002C278.902 150.002 261.787 176.995 239.386 200.223L223.334 188.253Z" fill="#F6B6B7"/>
<path d="M215.224 196.144C220.833 188.978 230.096 182.047 230.096 182.047L246.542 195.575L232.108 212.802" fill="#3143A0"/>
<path d="M243.559 318.859L234.852 435.502L245.153 442.174C245.153 442.174 216.841 443.673 215.921 442.73C215 441.786 217.083 435.326 217.083 435.326L212.356 318.582L243.559 318.859Z" fill="#F6B6B7"/>
<path d="M220.43 442.648L216.215 438.431L216.811 436.216L223.29 442.659L226.409 442.67L237.398 437.152L249.328 444.748C250.707 445.626 250.091 447.792 248.464 447.787L232.43 447.728L227.312 444.105L225.859 444.1L225.846 447.702L215.404 447.663L215.421 442.63L220.43 442.648Z" fill="#273148"/>
<path d="M220.691 318.237L195.01 435.502L205.313 442.174C205.313 442.174 177.001 443.673 176.08 442.73C175.16 441.786 177.241 435.326 177.241 435.326L184.747 318.237H220.691Z" fill="#F6B6B7"/>
<path d="M180.59 442.648L176.374 438.431L176.971 436.216L183.449 442.659L186.569 442.67L197.557 437.152L209.487 444.748C210.866 445.626 210.25 447.792 208.624 447.787L192.588 447.728L187.471 444.105L186.018 444.1L186.006 447.702L175.563 447.663L175.581 442.63L180.59 442.648Z" fill="#273148"/>
<path d="M193.692 257.747C179.564 283.041 179.592 330.097 179.592 330.097H245.081C245.081 330.097 244.179 288.766 236.865 265.479L193.692 257.747Z" fill="#1F244E"/>
<path d="M215.186 260.03L216.818 330.107L217.598 330.088L215.966 260.011" fill="#293A7B"/>
<path d="M229.705 262.821L229.67 262.906C229.286 263.798 225.799 271.346 215.478 274.072L215.674 274.839C221.344 273.343 225.037 270.42 227.304 267.87C229.571 265.32 230.417 263.144 230.43 263.113L229.705 262.821Z" fill="#293A7B"/>
<path d="M287.973 233.153C292.277 234.427 305.343 236.039 305.543 236.95C305.742 237.863 301.138 237.356 301.44 238.074C301.742 238.792 308.773 240.056 308.733 241.021C308.679 242.328 301.547 240.641 301.547 240.641C301.547 240.641 309.269 242.886 308.9 244.005C308.639 244.799 302.668 243.362 300.319 243.104C302.829 243.712 306.783 245.19 306.495 246.009C306.209 246.82 302.124 245.93 298.959 245.417C300.904 245.926 304.398 247.043 304.166 247.812C303.935 248.578 293.852 247.118 284.413 245.362" fill="#F6B6B7"/>
<path d="M210.931 189.383C210.931 189.383 212.009 192.198 217.888 192.198C221.996 192.198 223.542 190.009 223.542 190.009C223.542 190.009 225.055 191.388 241.234 212.99C244.659 217.564 243.92 227.431 238.195 235.965C236.839 244.529 236.334 254.513 236.865 265.479H190.04C190.04 265.479 189.223 231.254 192.462 212.588C194.377 201.548 202.515 192.771 210.931 189.383Z" fill="#654DF7"/>
<path d="M241.863 204.177C273.063 229.081 294.699 234.486 294.699 234.486L292.154 246.688C292.154 246.688 254.681 241.852 230.067 220.807" fill="#F6B6B7"/>
<path fill-rule="evenodd" clip-rule="evenodd" d="M223.743 190.833C231.747 192.203 244.032 204.188 244.032 204.188L230.994 223.657C230.994 223.657 225.46 219.758 217.957 213.2" fill="#9B8BFB"/>
<path d="M231.197 222.586C226.328 219.57 222.802 216.959 220.496 215.103C219.342 214.175 218.494 213.437 217.935 212.931C217.656 212.679 217.449 212.485 217.312 212.353C217.176 212.223 217.113 212.159 217.112 212.159L216.562 212.722C216.582 212.742 220.998 217.198 230.792 223.263L231.197 222.586Z" fill="#293A7B"/>
<path fill-rule="evenodd" clip-rule="evenodd" d="M227.238 168.287C230.493 173.761 231.84 179.235 227.279 182.042C222.718 184.849 215.384 186.244 210.721 178.451C207.451 172.986 208.524 166.265 213.085 163.458C217.646 160.651 223.983 162.813 227.238 168.287Z" fill="#F6B6B7"/>
<path d="M223.447 169.687C223.598 170.242 224.029 170.897 224.568 170.877C224.721 170.871 224.835 170.776 224.884 170.632C225.199 169.686 223.132 168.527 223.447 169.687Z" fill="#161A34"/>
<path d="M221.5 169.368C222.298 168.228 223.328 167.777 224.411 167.641C224.554 167.624 224.656 167.492 224.638 167.347C224.621 167.202 224.491 167.098 224.349 167.116C223.165 167.257 221.96 167.789 221.076 169.062C220.994 169.182 221.021 169.347 221.138 169.431C221.256 169.516 221.418 169.487 221.501 169.368" fill="#161A34"/>
<path d="M228.478 174.527L225.46 176.061C225.46 176.061 226.525 178.709 228.155 178.214C229.518 177.8 228.478 174.527 228.478 174.527Z" fill="white"/>
<path fill-rule="evenodd" clip-rule="evenodd" d="M223.743 190.833C223.743 190.833 221.136 192.282 217.887 192.198C213.177 192.079 210.931 190.163 210.931 190.163L214.037 176.659L225.46 177.507L223.743 190.833Z" fill="#F6B6B7"/>
<path fill-rule="evenodd" clip-rule="evenodd" d="M226.138 168.536C226.138 168.536 230.039 171.19 230.176 171.896C230.314 172.602 228.664 173.624 228.664 173.624" fill="#F6B6B7"/>
<path d="M215.224 159.688C214.803 159.905 213.348 159.505 212.82 159.505C212.078 159.506 211.335 159.56 210.605 159.697C206.256 160.503 203.008 164.165 200.96 167.932C199.616 170.406 198.485 173.154 196.038 174.724C190.659 178.174 183.599 176.939 177.572 179.003C171.439 181.103 166.741 187.434 168.387 194.19C168.924 196.402 170.066 198.413 170.738 200.587C172.172 205.225 171.501 210.623 174.24 214.608C174.974 215.677 175.922 216.58 176.944 217.369C181.523 220.907 187.752 222.126 193.296 220.566C198.838 219.006 203.566 214.704 205.707 209.275C208.141 203.102 207.38 195.747 210.931 190.163C212.589 187.554 215.065 185.564 216.712 182.948C218.217 180.557 219.01 176.06 219.19 173.181C219.231 172.517 218.061 166.987 218.412 166.987C221.228 166.987 224.836 165.205 226.501 163.512C224.38 158.774 218.963 157.761 215.224 159.688Z" fill="#161A34"/>
<path d="M218.265 173.902C218.265 173.902 216.629 172.749 215.554 174.384C214.164 176.497 217.511 179.166 219.122 179.289C220.732 179.413 220.691 177.633 220.691 177.633" fill="#F6B6B7"/>
<path d="M467.066 278.708H568.893V140.371H467.066V278.708Z" fill="#DDE7F7"/>
<path d="M568.893 278.708V278.179H467.586V140.9H568.373V278.708H568.893V278.179V278.708H569.413V139.842H466.546V279.237H569.413V278.708H568.893Z" fill="#6886CC"/>
<path d="M482.275 278.708H584.101V140.371H482.275V278.708Z" fill="white"/>
<path d="M584.102 278.708V278.179H482.795V140.9H583.582V278.708H584.102V278.179V278.708H584.622V139.842H481.755V279.237H584.622V278.708H584.102Z" fill="#6886CC"/>
<path d="M567.244 169.218H499.956C497.891 169.218 496.217 167.515 496.217 165.414V154.938C496.217 152.838 497.891 151.134 499.956 151.134H567.244C569.308 151.134 570.983 152.838 570.983 154.938V165.414C570.983 167.515 569.308 169.218 567.244 169.218Z" fill="#F1F5FC"/>
<path d="M535.509 267.297H499.956C497.891 267.297 496.217 265.594 496.217 263.494V220.262C496.217 218.161 497.891 216.458 499.956 216.458H535.509C537.574 216.458 539.247 218.161 539.247 220.262V263.494C539.247 265.594 537.574 267.297 535.509 267.297Z" fill="#F1F5FC"/>
<path d="M501.794 187.21C501.794 187.21 501.353 187.21 499.526 187.21C497.698 187.21 496.217 185.233 496.217 182.795C496.217 180.357 497.698 178.381 499.526 178.381C499.872 178.381 501.794 178.381 501.794 178.381V187.21Z" fill="#4EC292"/>
<path d="M505.103 182.795C505.103 185.233 503.622 187.21 501.794 187.21C499.967 187.21 498.486 185.233 498.486 182.795C498.486 180.357 499.967 178.381 501.794 178.381C503.622 178.381 505.103 180.357 505.103 182.795Z" fill="#E8F6EC"/>
<path d="M523.755 187.21C523.755 187.21 523.314 187.21 521.486 187.21C519.658 187.21 518.177 185.233 518.177 182.795C518.177 180.357 519.658 178.381 521.486 178.381C521.833 178.381 523.755 178.381 523.755 178.381V187.21Z" fill="#4EC292"/>
<path d="M527.063 182.795C527.063 185.233 525.582 187.21 523.755 187.21C521.927 187.21 520.446 185.233 520.446 182.795C520.446 180.357 521.927 178.381 523.755 178.381C525.582 178.381 527.063 180.357 527.063 182.795Z" fill="#E8F6EC"/>
<path d="M545.715 187.21C545.715 187.21 545.273 187.21 543.446 187.21C541.619 187.21 540.137 185.233 540.137 182.795C540.137 180.357 541.619 178.381 543.446 178.381C543.792 178.381 545.715 178.381 545.715 178.381V187.21Z" fill="#4EC292"/>
<path d="M549.022 182.795C549.022 185.233 547.542 187.21 545.715 187.21C543.887 187.21 542.406 185.233 542.406 182.795C542.406 180.357 543.887 178.381 545.715 178.381C547.542 178.381 549.022 180.357 549.022 182.795Z" fill="#E8F6EC"/>
<path d="M567.675 187.21C567.675 187.21 567.233 187.21 565.405 187.21C563.578 187.21 562.097 185.233 562.097 182.795C562.097 180.357 563.578 178.381 565.405 178.381C565.752 178.381 567.675 178.381 567.675 178.381V187.21Z" fill="#4EC292"/>
<path d="M570.983 182.795C570.983 185.233 569.502 187.21 567.675 187.21C565.846 187.21 564.365 185.233 564.365 182.795C564.365 180.357 565.846 178.381 567.675 178.381C569.502 178.381 570.983 180.357 570.983 182.795Z" fill="#E8F6EC"/>
<path d="M501.794 208.592C501.794 208.592 501.353 208.592 499.526 208.592C497.698 208.592 496.217 206.615 496.217 204.177C496.217 201.74 497.698 199.763 499.526 199.763C499.872 199.763 501.794 199.763 501.794 199.763V208.592Z" fill="#4EC292"/>
<path d="M505.103 204.177C505.103 206.615 503.622 208.592 501.794 208.592C499.967 208.592 498.486 206.615 498.486 204.177C498.486 201.74 499.967 199.763 501.794 199.763C503.622 199.763 505.103 201.74 505.103 204.177Z" fill="#E8F6EC"/>
<path d="M523.755 208.592C523.755 208.592 523.314 208.592 521.486 208.592C519.658 208.592 518.177 206.615 518.177 204.177C518.177 201.74 519.658 199.763 521.486 199.763C521.833 199.763 523.755 199.763 523.755 199.763V208.592Z" fill="#4EC292"/>
<path d="M527.063 204.177C527.063 206.615 525.582 208.592 523.755 208.592C521.927 208.592 520.446 206.615 520.446 204.177C520.446 201.74 521.927 199.763 523.755 199.763C525.582 199.763 527.063 201.74 527.063 204.177Z" fill="#E8F6EC"/>
<path d="M545.715 208.592C545.715 208.592 545.273 208.592 543.446 208.592C541.619 208.592 540.137 206.615 540.137 204.177C540.137 201.74 541.619 199.763 543.446 199.763C543.792 199.763 545.715 199.763 545.715 199.763V208.592Z" fill="#4EC292"/>
<path d="M549.022 204.177C549.022 206.615 547.542 208.592 545.715 208.592C543.887 208.592 542.406 206.615 542.406 204.177C542.406 201.74 543.887 199.763 545.715 199.763C547.542 199.763 549.022 201.74 549.022 204.177Z" fill="#E8F6EC"/>
<path d="M567.675 208.592C567.675 208.592 567.233 208.592 565.405 208.592C563.578 208.592 562.097 206.615 562.097 204.177C562.097 201.74 563.578 199.763 565.405 199.763C565.752 199.763 567.675 199.763 567.675 199.763V208.592Z" fill="#4EC292"/>
<path d="M570.983 204.177C570.983 206.615 569.502 208.592 567.675 208.592C565.846 208.592 564.365 206.615 564.365 204.177C564.365 201.74 565.846 199.763 567.675 199.763C569.502 199.763 570.983 201.74 570.983 204.177Z" fill="#E8F6EC"/>
<path d="M80.3953 447.786H253.204V313.077H123.879L80.3953 364.807V447.786Z" fill="white"/>
<path d="M80.3952 447.787V448.316H253.724V312.548H123.639L79.8752 364.611V448.316H80.3952V447.787H80.9152V365.003L124.118 313.606H252.684V447.258H80.3952V447.787H80.9152H80.3952Z" fill="#6886CC"/>
<path d="M204.148 447.787H267.82V313.077H246.753L204.148 364.807V447.787Z" fill="#DDE7F7"/>
<path d="M204.148 447.787V448.316H268.34V312.548H246.51L203.628 364.614V448.316H204.148V447.787H204.668V365L246.996 313.606H267.3V447.258H204.148V447.787H204.668H204.148Z" fill="#6886CC"/>
<path d="M80.3953 364.807H204.148V447.787H80.3953V364.807Z" fill="#DDE7F7"/>
<path d="M80.3952 364.807V365.336H203.628V447.258H80.9152V364.807H80.3952V365.336V364.807H79.8752V448.316H204.668V364.278H79.8752V364.807H80.3952Z" fill="#6886CC"/>
<path d="M215.22 328.183C216.404 329.287 218.828 328.545 220.633 326.524C222.437 324.506 222.94 321.975 221.755 320.872C220.951 320.123 219.301 318.585 219.301 318.585L212.764 325.898C212.764 325.898 214.034 327.08 215.22 328.183Z" fill="#4EC292"/>
<path d="M212.919 326.042C214.104 327.144 216.527 326.403 218.333 324.383C220.138 322.364 220.64 319.833 219.456 318.729C218.271 317.627 215.848 318.368 214.043 320.389C212.237 322.408 211.735 324.938 212.919 326.042Z" fill="#E8F6EC"/>
<path d="M195.956 328.183C197.14 329.287 199.565 328.545 201.369 326.524C203.174 324.506 203.677 321.975 202.492 320.872C201.688 320.123 200.038 318.585 200.038 318.585L193.501 325.898C193.501 325.898 194.771 327.08 195.956 328.183Z" fill="#4EC292"/>
<path d="M193.656 326.042C194.841 327.144 197.264 326.403 199.07 324.383C200.874 322.364 201.376 319.833 200.193 318.729C199.008 317.627 196.585 318.368 194.78 320.389C192.974 322.408 192.472 324.938 193.656 326.042Z" fill="#E8F6EC"/>
<path d="M156.306 328.183C157.491 329.287 159.915 328.545 161.72 326.524C163.525 324.506 164.027 321.975 162.842 320.872C162.038 320.123 160.388 318.585 160.388 318.585L153.852 325.898C153.852 325.898 155.121 327.08 156.306 328.183Z" fill="#4EC292"/>
<path d="M154.007 326.042C155.191 327.144 157.614 326.403 159.42 324.383C161.225 322.364 161.728 319.833 160.543 318.729C159.358 317.627 156.935 318.368 155.13 320.389C153.324 322.408 152.822 324.938 154.007 326.042Z" fill="#E8F6EC"/>
<path d="M135.88 328.183C137.065 329.287 139.489 328.545 141.294 326.524C143.098 324.506 143.601 321.975 142.417 320.872C141.613 320.123 139.961 318.585 139.961 318.585L133.426 325.898C133.426 325.898 134.696 327.08 135.88 328.183Z" fill="#4EC292"/>
<path d="M133.581 326.042C134.765 327.144 137.189 326.403 138.994 324.383C140.799 322.364 141.301 319.833 140.116 318.729C138.933 317.627 136.509 318.368 134.704 320.389C132.899 322.408 132.395 324.938 133.581 326.042Z" fill="#E8F6EC"/>
<path d="M202.673 355.379H97.1184L104.976 346.328H209.54L202.673 355.379Z" fill="#F1F5FC"/>
<path d="M317.793 292.448V404.95C317.793 407.527 316.768 409.854 315.109 411.543C313.448 413.231 311.16 414.274 308.627 414.275H247.107C244.575 414.274 242.287 413.231 240.627 411.543C238.967 409.854 237.943 407.527 237.943 404.95V401.725H236.903V404.95C236.903 410.684 241.472 415.332 247.107 415.333H308.627C314.264 415.332 318.833 410.684 318.833 404.95V292.448H317.793Z" fill="#6886CC"/>
<path d="M333.039 297.611V426.143C333.039 428.774 331.993 431.15 330.299 432.873C328.604 434.597 326.268 435.661 323.682 435.662H225.872C223.34 435.661 221.052 434.619 219.392 432.932C217.732 431.242 216.708 428.914 216.708 426.338V401.725H215.668V426.338C215.668 432.072 220.237 436.719 225.872 436.72H323.682C329.424 436.719 334.079 431.984 334.079 426.143V297.611H333.039Z" fill="#6886CC"/>
<path d="M360.716 295.459V370.026C360.716 375.759 365.285 380.407 370.92 380.407H447.319C452.954 380.407 457.524 375.759 457.524 370.026V242.285C457.524 239.709 458.549 237.382 460.208 235.693C461.868 234.004 464.156 232.962 466.689 232.962H498.189V231.904H466.689C461.053 231.904 456.484 236.551 456.484 242.285V370.026C456.484 372.602 455.459 374.93 453.8 376.619C452.139 378.307 449.851 379.349 447.319 379.349H370.92C368.388 379.349 366.1 378.307 364.44 376.619C362.78 374.93 361.756 372.602 361.756 370.026V295.459H360.716Z" fill="#6886CC"/>
<path d="M348.433 297.611V402.122C348.434 407.856 353.003 412.505 358.639 412.505H498.905C504.542 412.505 509.109 407.856 509.109 402.122V256.825H508.069V402.122C508.069 404.699 507.045 407.026 505.385 408.716C503.725 410.403 501.437 411.447 498.905 411.447H358.639C356.106 411.447 353.818 410.403 352.159 408.716C350.499 407.026 349.474 404.699 349.473 402.122V297.611H348.433Z" fill="#6886CC"/>
<path d="M248.869 134.072C248.869 82.8711 289.67 41.3637 340 41.3637C390.33 41.3637 431.131 82.8711 431.131 134.072C431.131 154.482 424.642 173.347 413.657 188.661C400.649 208.602 366.85 231.116 366.85 244.604V260.014C366.85 263.09 364.398 265.583 361.375 265.583H346.73H333.271H318.625C315.602 265.583 313.151 263.09 313.151 260.014V244.604C313.151 231.116 279.351 208.602 266.343 188.661C255.357 173.347 248.869 154.482 248.869 134.072Z" fill="#F8D208"/>
<path d="M298.934 137.066C296.83 137.066 294.872 137.594 293.151 138.641C288.52 141.459 285.9 149.491 287.058 157.328C289.13 171.347 300.718 186.199 326.61 189.995C325.134 174.517 322.605 160.353 318.374 151.943C314.762 144.765 309.014 139.433 302.998 137.677C301.6 137.268 300.239 137.066 298.934 137.066ZM381.067 137.066C379.761 137.066 378.4 137.268 377.002 137.677C370.986 139.433 365.237 144.765 361.626 151.943C357.395 160.353 354.866 174.517 353.389 189.995C379.282 186.199 390.871 171.347 392.942 157.328C394.1 149.491 391.481 141.459 386.85 138.641C385.128 137.594 383.172 137.066 381.067 137.066ZM350.348 264.048C350.242 261.724 348.61 224.509 351.54 191.894C347.951 192.327 344.107 192.556 340 192.556C335.892 192.556 332.05 192.327 328.461 191.894C331.39 224.509 329.758 261.724 329.651 264.048L328.044 263.97C328.07 263.398 329.76 224.906 326.766 191.672C299.738 187.849 287.639 172.271 285.467 157.57C284.198 148.978 287.082 140.426 292.325 137.236C295.507 135.301 299.351 134.909 303.442 136.103C309.879 137.982 315.996 143.625 319.806 151.197C324.206 159.942 326.807 174.462 328.306 190.225C331.932 190.678 335.825 190.92 340 190.92C344.177 190.92 348.069 190.678 351.693 190.225C353.194 174.462 355.794 159.942 360.195 151.197C364.004 143.625 370.122 137.982 376.558 136.103C380.65 134.91 384.494 135.301 387.676 137.236C392.918 140.426 395.803 148.978 394.534 157.57C392.361 172.271 380.263 187.849 353.234 191.672C350.24 224.906 351.93 263.398 351.956 263.97L350.348 264.048Z" fill="white"/>
<path d="M415.959 139.392C413.072 139.392 410.731 137.01 410.731 134.072C410.731 101.085 388.807 72.399 357.418 64.3148C354.618 63.5944 352.923 60.7007 353.631 57.8526C354.341 55.0034 357.183 53.2778 359.984 54.0014C396.02 63.2822 421.187 96.2083 421.187 134.072C421.187 137.01 418.846 139.392 415.959 139.392Z" fill="#FCF181"/>
<path d="M338.245 56.6528C338.245 59.5909 340.586 61.9724 343.473 61.9724C346.361 61.9724 348.701 59.5909 348.701 56.6528C348.701 53.7147 346.361 51.3342 343.473 51.3342C340.586 51.3342 338.245 53.7147 338.245 56.6528Z" fill="#FCF181"/>
<path d="M396.836 207.953C403.37 201.509 409.55 194.957 413.657 188.661C413.678 188.632 413.697 188.603 413.718 188.575C413.697 188.603 413.678 188.632 413.657 188.661C409.55 194.957 403.37 201.509 396.836 207.953Z" fill="#E2CB82"/>
<path d="M313.151 244.604C313.151 231.116 279.351 208.602 266.343 188.661C266.323 188.633 266.302 188.605 266.283 188.576C266.302 188.605 266.323 188.633 266.343 188.661C279.351 208.602 313.151 231.116 313.151 244.604Z" fill="#FCDA83"/>
<path d="M413.74 188.545C413.754 188.526 413.767 188.507 413.781 188.488C413.767 188.507 413.754 188.526 413.74 188.545Z" fill="#E2CB82"/>
<path d="M266.253 188.531C266.244 188.518 266.233 188.503 266.222 188.49C266.233 188.503 266.243 188.518 266.253 188.531Z" fill="#FCDA83"/>
<path d="M413.808 188.45C413.82 188.435 413.831 188.42 413.842 188.403C413.831 188.418 413.819 188.435 413.808 188.45Z" fill="#E2CB82"/>
<path d="M266.183 188.436C266.177 188.428 266.17 188.418 266.164 188.41C266.17 188.418 266.177 188.428 266.183 188.436Z" fill="#FCDA83"/>
<path d="M413.872 188.36C413.882 188.346 413.891 188.332 413.901 188.319C413.892 188.332 413.882 188.347 413.872 188.36Z" fill="#E2CB82"/>
<path d="M266.12 188.345C266.116 188.339 266.111 188.331 266.106 188.325C266.111 188.331 266.116 188.338 266.12 188.345Z" fill="#FCDA83"/>
<path d="M413.937 188.269C413.945 188.259 413.952 188.248 413.96 188.237C413.952 188.247 413.945 188.259 413.937 188.269Z" fill="#E2CB82"/>
<path d="M266.057 188.256C266.054 188.254 266.051 188.25 266.049 188.246C266.051 188.25 266.054 188.254 266.057 188.256Z" fill="#FCDA83"/>
<path d="M413.998 188.182C414.004 188.174 414.011 188.165 414.016 188.157C414.011 188.165 414.004 188.174 413.998 188.182ZM414.062 188.092C414.065 188.088 414.068 188.083 414.07 188.079C414.068 188.083 414.065 188.088 414.062 188.092Z" fill="#E2CB82"/>
<path d="M361.375 265.583H318.625C315.602 265.583 313.151 263.09 313.151 260.014V244.604C313.151 231.116 279.351 208.602 266.343 188.661C266.323 188.633 266.302 188.604 266.283 188.576C266.271 188.561 266.262 188.547 266.25 188.531C266.241 188.519 266.232 188.505 266.222 188.492C266.21 188.473 266.196 188.455 266.183 188.436C266.177 188.428 266.17 188.418 266.164 188.41C266.149 188.388 266.134 188.367 266.117 188.345C266.114 188.339 266.11 188.334 266.106 188.328C266.089 188.304 266.072 188.281 266.055 188.256C266.053 188.254 266.051 188.251 266.049 188.248C256.227 174.397 250.085 157.674 249.045 139.555C254.751 173.086 280.122 210.935 328.213 216.282C329.035 241.415 328.064 263.537 328.044 263.97L329.651 264.048C329.731 262.302 330.673 240.852 329.893 216.454C333.158 216.763 336.528 216.923 340 216.923C343.467 216.923 346.837 216.771 350.107 216.476C349.328 240.862 350.268 262.302 350.348 264.048L351.956 263.97C351.936 263.537 350.965 241.431 351.786 216.311C400.025 211.194 426.292 174.798 430.955 139.555C429.918 157.6 423.823 174.261 414.07 188.08C414.068 188.084 414.065 188.088 414.061 188.092C414.047 188.114 414.031 188.136 414.016 188.157C414.011 188.165 414.004 188.174 413.998 188.182C413.985 188.2 413.972 188.219 413.959 188.238C413.951 188.249 413.944 188.26 413.937 188.269C413.924 188.287 413.912 188.304 413.899 188.321C413.89 188.334 413.882 188.346 413.872 188.36C413.861 188.375 413.85 188.39 413.84 188.405C413.83 188.42 413.819 188.435 413.808 188.45C413.798 188.464 413.789 188.475 413.78 188.489C413.766 188.508 413.754 188.526 413.74 188.545C413.733 188.555 413.726 188.565 413.718 188.575C413.697 188.603 413.678 188.632 413.657 188.661C409.55 194.957 403.37 201.509 396.836 207.953C382.675 221.919 366.85 235.374 366.85 244.604V260.014C366.85 263.09 364.398 265.583 361.375 265.583Z" fill="#F9AF0B"/>
<path d="M350.348 264.048C350.268 262.302 349.328 240.862 350.107 216.476C350.668 216.426 351.231 216.371 351.786 216.311C350.965 241.431 351.936 263.537 351.956 263.97L350.348 264.048ZM329.651 264.048L328.044 263.97C328.064 263.537 329.035 241.415 328.213 216.282C328.769 216.344 329.33 216.401 329.893 216.454C330.673 240.852 329.731 262.302 329.651 264.048Z" fill="#FCDA83"/>
<path d="M369.004 251.184H310.997V279.308C310.997 283.901 312.282 288.398 314.701 292.276C319.274 299.606 327.215 304.045 335.749 304.045H344.253C352.786 304.045 360.726 299.606 365.299 292.276C367.718 288.398 369.004 283.901 369.004 279.308V251.184Z" fill="#273148"/>
<path d="M310.992 270.15C311.159 270.155 311.325 270.15 311.495 270.132L369.501 264.015C371.481 263.806 372.863 261.995 372.588 259.971C372.314 257.947 370.483 256.473 368.506 256.685L310.5 262.802C308.52 263.011 307.137 264.821 307.413 266.845C307.662 268.696 309.214 270.086 310.992 270.15Z" fill="#49C09C"/>
<path d="M310.992 283.021C311.159 283.027 311.325 283.021 311.495 283.003L369.501 276.886C371.481 276.678 372.863 274.867 372.588 272.842C372.314 270.819 370.483 269.348 368.506 269.556L310.5 275.674C308.52 275.882 307.137 277.692 307.413 279.716C307.662 281.569 309.214 282.958 310.992 283.021Z" fill="#49C09C"/>
<path d="M313.31 295.762C313.475 295.768 313.642 295.762 313.811 295.745L368.794 289.945C370.774 289.736 372.156 287.926 371.881 285.902C371.608 283.878 369.773 282.404 367.798 282.615L312.817 288.414C310.836 288.622 309.453 290.433 309.729 292.458C309.979 294.309 311.531 295.699 313.31 295.762Z" fill="#49C09C"/>
<path d="M338.44 2.00717V31.1403C338.44 32.0163 339.139 32.7273 340 32.7273C340.861 32.7273 341.56 32.0163 341.56 31.1403V2.00717C341.56 1.13115 340.861 0.42017 340 0.42017C339.139 0.42017 338.44 1.13115 338.44 2.00717Z" fill="#FAB92C"/>
<path d="M391.643 13.6112L380.077 40.2622L391.643 13.6112Z" fill="#FBC941"/>
<path d="M390.216 12.97L378.651 39.621C378.302 40.423 378.659 41.3604 379.447 41.7137C380.236 42.0682 381.157 41.7053 381.504 40.9033L393.07 14.2512C393.419 13.4503 393.062 12.5129 392.274 12.1585C391.485 11.8051 390.565 12.168 390.216 12.97Z" fill="#FAB92C"/>
<path d="M435.17 45.8443L414.01 65.4734L435.17 45.8443Z" fill="#FBC941"/>
<path d="M434.119 44.6711L412.958 64.3002C412.322 64.8905 412.276 65.8946 412.857 66.5421C413.437 67.1896 414.424 67.2361 415.061 66.6457L436.221 47.0166C436.858 46.4263 436.903 45.4222 436.323 44.7748C435.742 44.1273 434.755 44.0807 434.119 44.6711Z" fill="#FAB92C"/>
<path d="M288.357 13.6112L299.923 40.2622L288.357 13.6112Z" fill="#FBC941"/>
<path d="M286.93 14.2514L298.496 40.9035C298.843 41.7044 299.764 42.0683 300.553 41.7139C301.341 41.3605 301.698 40.4231 301.349 39.6211L289.784 12.9701C289.436 12.1682 288.515 11.8053 287.726 12.1587C286.939 12.5131 286.581 13.4505 286.93 14.2514Z" fill="#FAB92C"/>
<path d="M244.83 45.8443L265.99 65.4734L244.83 45.8443Z" fill="#FBC941"/>
<path d="M243.778 47.0166L264.939 66.6457C265.576 67.2361 266.563 67.1896 267.143 66.5421C267.723 65.8946 267.678 64.8905 267.042 64.3002L245.88 44.6711C245.244 44.0807 244.257 44.1273 243.676 44.7748C243.096 45.4233 243.142 46.4263 243.778 47.0166Z" fill="#FAB92C"/>
<path d="M218.16 401.876C218.16 402.984 217.277 403.883 216.188 403.883C215.098 403.883 214.215 402.984 214.215 401.876C214.215 400.767 215.098 399.869 216.188 399.869C217.277 399.869 218.16 400.767 218.16 401.876Z" fill="#6886CC"/>
<path d="M239.396 401.876C239.396 402.984 238.513 403.883 237.423 403.883C236.333 403.883 235.45 402.984 235.45 401.876C235.45 400.767 236.333 399.869 237.423 399.869C238.513 399.869 239.396 400.767 239.396 401.876Z" fill="#6886CC"/>
<path d="M510.563 256.825C510.563 257.934 509.679 258.833 508.589 258.833C507.5 258.833 506.617 257.934 506.617 256.825C506.617 255.719 507.5 254.819 508.589 254.819C509.679 254.819 510.563 255.719 510.563 256.825Z" fill="#6886CC"/>
<path d="M521.678 256.825C521.678 257.934 520.795 258.833 519.705 258.833C518.616 258.833 517.732 257.934 517.732 256.825C517.732 255.719 518.616 254.819 519.705 254.819C520.795 254.819 521.678 255.719 521.678 256.825Z" fill="#6886CC"/>
<path d="M532.793 256.825C532.793 257.934 531.91 258.833 530.82 258.833C529.731 258.833 528.847 257.934 528.847 256.825C528.847 255.719 529.731 254.819 530.82 254.819C531.91 254.819 532.793 255.719 532.793 256.825Z" fill="#6886CC"/>
<path d="M500.163 232.433C500.163 233.542 499.279 234.439 498.189 234.439C497.1 234.439 496.217 233.542 496.217 232.433C496.217 231.324 497.1 230.425 498.189 230.425C499.279 230.425 500.163 231.324 500.163 232.433Z" fill="#6886CC"/>
<path d="M396.725 349.925C396.725 372.792 414.946 391.328 437.424 391.328C459.902 391.328 478.125 372.792 478.125 349.925C478.125 327.057 459.902 308.52 437.424 308.52C414.946 308.52 396.725 327.057 396.725 349.925Z" fill="#ED6C6C"/>
<path d="M407.98 349.925C407.98 366.467 421.163 379.878 437.424 379.878C453.686 379.878 466.869 366.467 466.869 349.925C466.869 333.381 453.686 319.97 437.424 319.97C421.163 319.97 407.98 333.381 407.98 349.925Z" fill="white"/>
<path d="M417.199 349.925C417.199 361.288 426.255 370.499 437.424 370.499C448.594 370.499 457.649 361.288 457.649 349.925C457.649 338.561 448.594 329.349 437.424 329.349C426.255 329.349 417.199 338.561 417.199 349.925Z" fill="#ED6C6C"/>
<path d="M426.829 349.925C426.829 355.876 431.573 360.703 437.424 360.703C443.276 360.703 448.019 355.876 448.019 349.925C448.019 343.972 443.276 339.146 437.424 339.146C431.573 339.146 426.829 343.972 426.829 349.925Z" fill="white"/>
<path d="M435.785 351.593H442.437L435.785 344.824V351.593Z" fill="#1A3453"/>
<path d="M478.923 307.708H486.535V305.755H480.842V299.963H478.923V307.708Z" fill="#1A3453"/>
<path d="M482.408 304.164H490.02V302.211H484.326V296.419H482.408V304.164Z" fill="#1A3453"/>
<path d="M438.33 350.382L484.361 303.555L483.004 302.175L436.973 349.002L438.33 350.382Z" fill="#1A3453"/>
<path d="M124.414 276.048L119.394 285.747C119.394 285.747 115.969 285.747 111.245 283.374C106.553 281.019 105.187 277.773 105.187 277.773L113.674 266.351" fill="#F6B6B7"/>
<path d="M135.088 257.73C139.756 260.528 132.045 278.251 127.832 279.373C123.619 280.494 115.253 272.12 112.76 265.025C110.267 257.93 118.289 254.05 123.006 252.608C127.723 251.167 135.088 257.73 135.088 257.73Z" fill="#F6B6B7"/>
<path d="M131.625 266.321C131.466 266.603 131.318 266.893 131.182 267.187C131.014 267.55 131.545 267.869 131.713 267.504C131.86 267.185 131.995 266.861 132.115 266.532C132.222 266.237 131.773 266.059 131.625 266.321Z" fill="#243169"/>
<path d="M134.535 264.373C134.502 264.314 133.636 263.063 131.585 263.065C131.229 263.065 130.839 263.102 130.414 263.188C130.203 263.232 130.066 263.44 130.108 263.656C130.15 263.871 130.356 264.009 130.567 263.967C130.945 263.891 131.283 263.859 131.585 263.859C132.449 263.86 133.022 264.114 133.389 264.358C133.572 264.481 133.701 264.603 133.782 264.689L133.868 264.79L133.886 264.813C134.005 264.996 134.248 265.045 134.426 264.923C134.605 264.802 134.654 264.555 134.535 264.373Z" fill="#243169"/>
<path d="M127.52 273.218L130.49 275.375C130.49 275.375 129.329 277.659 128.268 276.771C127.208 275.882 127.52 273.218 127.52 273.218Z" fill="white"/>
<path d="M139.28 261.613C137.159 260.919 134.829 259.605 133.223 258.785C131.077 259.236 128.848 261.284 128.791 263.603C128.778 264.124 128.726 264.834 128.217 264.906C127.867 264.957 127.578 264.608 127.479 264.262C127.381 263.916 127.394 263.538 127.254 263.208C126.972 262.536 126.102 262.267 125.422 262.505C124.743 262.742 124.255 263.367 123.977 264.041C123.268 265.764 122.636 267.849 124.253 269.296C124.505 269.519 124.799 269.714 124.961 270.012C125.313 270.661 124.898 271.448 124.483 272.054C123.196 273.935 121.262 276.048 117.468 276.048C114.8 276.048 110.369 272.47 110.077 270.682C110.051 270.522 107.498 259.566 112.236 252.598C114.777 248.86 119.251 246.137 123.916 246.535C126.798 246.78 129.314 248.507 130.725 249.626C138.505 251.08 140.173 259.238 139.28 261.613Z" fill="#202131"/>
<path d="M134.786 268.083C134.786 268.083 135.475 273.397 134.445 273.977C133.415 274.559 131.243 273.045 131.243 273.045" fill="#F6B6B7"/>
<path d="M136.93 411.942L133.122 436.956L132.924 444.488L161.955 444.338C162.664 444.334 163.235 443.746 163.232 443.026C163.229 442.485 162.899 442.003 162.403 441.811L149.883 435.954L154.835 409.969" fill="#F6B6B7"/>
<path d="M164.502 444.02C164.206 443.074 163.661 442.012 163.112 441.771L149.836 435.954C142.518 438.973 133.045 436.665 133.045 436.665L131.356 446.834C131.357 447.171 131.628 447.441 131.958 447.44L164.28 447.272C164.931 447.268 164.512 444.049 164.502 444.02Z" fill="#49C09C"/>
<path d="M152.4 436.295C151.637 437.306 150.993 438.408 150.481 439.571L151.193 439.895C151.68 438.789 152.294 437.739 153.019 436.778L152.4 436.295Z" fill="#293A7B"/>
<path d="M154.065 437.32C153.28 438.423 152.949 439.097 152.489 440.105L153.196 440.439C153.656 439.435 153.94 438.854 154.697 437.784L154.065 437.32Z" fill="#293A7B"/>
<path d="M155.481 438.059C154.929 438.813 154.413 439.814 154.005 440.605L154.696 440.973C155.1 440.186 155.61 439.207 156.106 438.533L155.481 438.059Z" fill="#293A7B"/>
<path d="M131.529 445.641L164.641 445.469L164.636 444.676L131.525 444.848" fill="#293A7B"/>
<path d="M132.439 440.669C132.439 440.669 132.55 440.671 132.757 440.684C133.484 440.73 135.336 440.915 137.04 441.586C137.892 441.92 138.703 442.374 139.322 442.974C139.942 443.575 140.374 444.308 140.508 445.256L141.28 445.144C141.1 443.843 140.419 442.84 139.539 442.112C138.217 441.015 136.453 440.473 135.018 440.185C133.582 439.898 132.469 439.876 132.455 439.875L132.439 440.669Z" fill="#293A7B"/>
<path d="M160.072 440.35C160.07 440.354 159.531 441.133 158.935 442.097C158.339 443.067 157.691 444.193 157.45 444.995L158.197 445.223C158.378 444.596 159.014 443.456 159.595 442.519C159.888 442.047 160.166 441.618 160.372 441.308C160.578 440.998 160.709 440.807 160.709 440.807L160.072 440.35Z" fill="#293A7B"/>
<path d="M46.8127 418.497L22.5892 415.562L15.1848 415.359L15.3327 444.893C15.3368 445.615 15.9145 446.197 16.6229 446.193C17.1544 446.189 17.6288 445.854 17.817 445.349L23.5743 432.612L48.6777 435.488" fill="#F6B6B7"/>
<path d="M15.6456 447.484C16.5752 447.183 17.62 446.628 17.8565 446.071L23.574 432.564C20.608 425.12 22.8749 415.483 22.8749 415.483L12.8794 413.765C12.5488 413.766 12.2823 414.041 12.2839 414.377L12.4489 447.259C12.4525 447.92 15.616 447.494 15.6456 447.484Z" fill="#49C09C"/>
<path d="M23.2393 435.173C22.2456 434.397 21.1617 433.741 20.0177 433.222L19.7 433.946C20.7879 434.44 21.8194 435.064 22.7643 435.802L23.2393 435.173Z" fill="#293A7B"/>
<path d="M22.2309 436.866C21.1478 436.068 20.4856 435.731 19.4948 435.262L19.1658 435.983C20.1534 436.45 20.7237 436.738 21.7739 437.51L22.2309 436.866Z" fill="#293A7B"/>
<path d="M21.5059 438.306C20.764 437.746 19.7805 437.222 19.0017 436.806L18.6401 437.51C19.414 437.921 20.3757 438.439 21.0402 438.943L21.5059 438.307" fill="#293A7B"/>
<path d="M14.0515 413.94L14.2213 447.626L15.0013 447.622L14.8315 413.936" fill="#293A7B"/>
<path d="M18.9403 414.866C18.9403 414.866 18.9382 414.978 18.9248 415.19C18.8802 415.929 18.6977 417.814 18.0384 419.547C17.7102 420.413 17.2633 421.238 16.6742 421.868C16.0827 422.498 15.3624 422.938 14.4304 423.075L14.541 423.86C15.8203 423.677 16.8049 422.984 17.5216 422.089C18.5994 420.744 19.1319 418.95 19.416 417.49C19.6971 416.029 19.7194 414.897 19.7203 414.882L18.9403 414.866Z" fill="#293A7B"/>
<path d="M19.2528 442.978C19.249 442.975 18.4829 442.427 17.536 441.822C16.5825 441.215 15.4754 440.555 14.6873 440.31L14.4626 441.071C15.0798 441.255 16.1993 441.901 17.1212 442.494C17.585 442.79 18.0068 443.074 18.3119 443.283C18.6165 443.492 18.803 443.627 18.8034 443.627L19.2528 442.978Z" fill="#293A7B"/>
<path d="M61.2209 349.834C56.0157 363.992 64.5114 384.546 64.5114 384.546L68.9897 417.653L26.5137 415.751L26.9341 444.488C26.9341 444.488 72.4945 447.787 83.5154 447.787C94.5352 447.787 98.795 445.277 102.029 438.709C106.848 428.923 99.9224 374.818 99.9224 373.921L92.3605 339.167" fill="#212228"/>
<path d="M31.2217 415.983L31.541 444.849L32.321 444.839L32.0017 415.975" fill="#40444D"/>
<path d="M75.9544 357.489C75.9544 357.489 71.133 382.556 95.6104 387.942C106.549 390.35 134.363 391.141 134.363 391.141L129.613 429.866H157.388C157.388 429.866 163.142 400.688 164.874 381.171C166.027 368.186 160.537 362.38 150.218 361.079C141.482 359.976 115.211 358.238 115.211 358.238L110.795 352.599" fill="#212228"/>
<path d="M101.117 388.443H101.094C101.021 388.444 95.9183 388.428 90.2618 385.533C84.6052 382.633 78.3829 376.9 75.9503 365.336L75.188 365.501C77.6559 377.294 84.0862 383.271 89.9123 386.242C95.7374 389.219 100.948 389.234 101.094 389.236V388.874L101.077 389.235L101.094 389.236V388.874L101.077 389.235L101.117 388.443Z" fill="#40444D"/>
<path d="M86.366 363.595C86.3826 363.598 90.1308 364.327 95.493 364.327C96.689 364.327 97.9651 364.291 99.2994 364.202L99.2484 363.409C97.9328 363.497 96.6734 363.533 95.493 363.533C92.8462 363.533 90.5967 363.353 89.0117 363.173C88.2182 363.082 87.5921 362.993 87.1647 362.926C86.7362 362.858 86.5137 362.815 86.5126 362.815L86.366 363.595Z" fill="#40444D"/>
<path d="M59.4309 360.265C59.4486 360.267 64.8129 361.84 68.4779 361.846L68.6016 361.845L68.5954 361.051L68.4779 361.052C66.7473 361.053 64.5259 360.667 62.7516 360.278C61.8635 360.084 61.0856 359.889 60.5302 359.745C59.9748 359.599 59.6462 359.502 59.6452 359.502L59.4309 360.265Z" fill="#40444D"/>
<path d="M131.449 425.222H158.415V424.428H131.449V425.222Z" fill="#40444D"/>
<path d="M189.115 342.512H186.904V317.928H189.115V342.512Z" fill="#6886CC"/>
<path d="M192.085 315.44C192.085 317.729 190.261 319.586 188.009 319.586C185.759 319.586 183.935 317.729 183.935 315.44C183.935 313.15 185.759 311.293 188.009 311.293C190.261 311.293 192.085 313.15 192.085 315.44Z" fill="#6886CC"/>
<path d="M167.555 322.497L175.756 323.113C175.756 323.113 182.058 320.95 184.569 320.895C186.108 320.861 186.904 321.687 186.904 321.687C186.904 321.687 186.904 322.529 186.904 324.207C186.904 325.886 189.115 326.626 189.115 325.486V324.099C189.141 324.192 193.655 326.375 191.01 328.453C192.251 328.714 192.911 330.489 190.555 331.706C191.302 332.226 192.167 333.665 190.44 334.82C191.206 336.005 189.647 337.313 188.409 337.585C186.064 338.101 167.306 337.701 167.306 337.701" fill="#F6B6B7"/>
<path d="M119.709 284.837C133.178 303.791 125.943 309.935 116.263 358.286C83.9303 358.286 59.1846 352.599 59.1846 352.599C59.1846 352.599 66.8847 327.222 81.1556 298.983C87.9603 285.518 99.2734 278.814 105.676 277.102" fill="#FA7228"/>
<path d="M99.2734 306.148C99.2734 306.148 120.087 339.31 129.978 340.781C145.683 343.116 171.654 342.461 171.654 342.461L173.204 319.131C173.204 319.131 139.82 317.414 138.442 316.617C133.97 314.03 119.709 284.837 119.709 284.837" fill="#FA7228"/>
<path d="M121.684 334.425C121.684 334.424 121.499 334.269 121.153 333.958C118.725 331.786 108.518 322.164 101.443 308.225L100.75 308.589C108.922 324.681 121.165 335.016 121.186 335.036L121.684 334.425Z" fill="#293A7B"/>
<path d="M168.001 318.84L166.034 342.512L166.811 342.578L168.778 318.907" fill="#293A7B"/>
<path d="M610.073 282.263C609.568 286.795 605.99 299.68 606.739 300.218C607.489 300.758 608.807 296.242 609.341 296.802C609.875 297.362 608.311 304.448 609.201 304.783C610.407 305.237 611.628 297.892 611.628 297.892C611.628 297.892 610.685 306.005 611.843 306.091C612.665 306.151 613.663 299.994 614.335 297.688C613.919 300.281 613.735 304.562 614.588 304.608C615.435 304.652 616.202 300.473 616.959 297.304C616.668 299.327 616.335 303.037 617.121 303.115C617.906 303.195 620.47 293.168 622.518 283.631" fill="#F6B6B7"/>
<path d="M624.573 220.097C624.573 220.097 631.782 233.123 632.824 241.118C635.387 260.814 619.323 294.177 619.323 294.177C619.323 294.177 607.649 290.938 607.649 289.447C607.649 287.957 615.786 252.9 615.786 252.9L604.117 225.5" fill="#F6B6B7"/>
<path d="M589.522 177.321L591.088 192.009C591.088 192.009 582.431 199.475 574.772 191.111L575.709 181.443L589.522 177.321Z" fill="#F6B6B7"/>
<path d="M577.446 162.607C577.446 162.607 568.074 175.735 571.901 180.656C574.726 184.286 582.136 184.7 584.425 183.272C584.918 180.583 590.992 171.697 590.017 169.72C586.296 162.164 577.446 162.607 577.446 162.607Z" fill="#F6B6B7"/>
<path d="M592.031 164.878C591.728 159.915 586.917 158.462 577.684 159.023C576.448 159.097 574.248 158.243 573.676 159.36C572.926 160.83 572.793 163.802 574.242 165.14C575.211 166.033 575.859 166.227 577.131 166.528C578.805 166.926 580.509 168.547 579.619 170.33C579.386 170.796 578.833 171.589 579.182 171.974C579.36 172.168 579.956 172.383 580.185 172.508C580.851 172.87 580.808 173.897 580.394 174.538C579.98 175.179 580.166 175.889 579.748 176.528C578.761 178.041 579.932 180.83 581.468 181.756C582.827 182.575 587.283 183.942 590.544 182.22C593.374 180.729 595.074 176.668 595.096 169.366C595.105 166.566 593.058 164.687 592.031 164.878Z" fill="#202131"/>
<path d="M578.465 172.376C579.987 170.413 581.219 170.725 581.891 171.803C582.788 173.24 580.99 176.227 580.153 176.737C578.455 177.77 577.081 177.661 576.95 176.26" fill="#F6B6B7"/>
<path d="M574.711 169.37C574.275 169.739 573.868 170.408 574.108 170.9C574.176 171.038 574.308 171.105 574.456 171.09C575.434 170.993 575.62 168.6 574.711 169.37Z" fill="#273148"/>
<path d="M574.702 167.924C574.971 168.02 575.347 168.204 575.679 168.445C576.014 168.686 576.302 168.986 576.438 169.284L577.144 168.947C576.918 168.463 576.532 168.09 576.131 167.798C575.727 167.507 575.303 167.3 574.963 167.176L574.702 167.924Z" fill="#273148"/>
<path d="M574.815 176.372L572.676 175.207C572.676 175.207 571.27 177.882 572.266 178.446C573.369 179.07 574.815 176.372 574.815 176.372Z" fill="white"/>
<path d="M542.536 447.787L576.343 447.759L576.341 446.22L542.535 446.246L542.536 447.787Z" fill="#3143A0"/>
<path d="M571.531 433.523L574.455 434.224C574.455 434.224 575.575 438.111 576.005 440.818C576.434 443.524 576.341 446.22 576.341 446.22L542.535 446.246C542.535 446.246 543.419 443.265 551.485 438.459C554.663 436.564 556.281 434.397 556.281 434.397L571.531 433.523Z" fill="#212228"/>
<path d="M575.012 421.149L574.456 434.224C574.456 434.224 573.037 435.971 567.296 435.976C561.554 435.978 556.282 434.397 556.282 434.397L555.148 416.756" fill="#F2A581"/>
<path d="M590.687 447.787L624.495 447.759L624.493 446.22L590.687 446.246V447.787Z" fill="#3143A0"/>
<path d="M619.683 433.523L622.608 434.224C622.608 434.224 623.727 438.111 624.157 440.818C624.587 443.524 624.493 446.22 624.493 446.22L590.687 446.246C590.687 446.246 591.571 443.265 599.636 438.459C602.815 436.564 604.434 434.397 604.434 434.397L619.683 433.523Z" fill="#212228"/>
<path d="M621.469 420.616L622.608 434.224C622.608 434.224 621.189 435.971 615.448 435.976C609.706 435.978 604.434 434.397 604.434 434.397L601.828 416.756" fill="#F2A581"/>
<path d="M616.015 285.302C616.015 285.302 621.289 296.473 617.052 317.846C619.208 365.568 624.817 429.72 624.817 429.72L592.608 429.605C592.608 429.605 586.04 360.645 582.136 326.279C577.787 287.998 575.066 241.118 575.066 241.118" fill="#399B77"/>
<path d="M598.196 429.567C598.196 429.566 591.628 360.607 587.724 326.233L586.949 326.324C588.9 343.503 591.518 369.334 593.648 390.869C594.713 401.637 595.655 411.33 596.332 418.332C596.67 421.833 596.942 424.661 597.13 426.613C597.317 428.566 597.419 429.64 597.419 429.643L598.196 429.567Z" fill="#243267"/>
<path d="M554.511 287.441C554.511 287.441 551.088 337.75 551.088 361.892C551.088 386.037 549.563 429.72 549.563 429.72H582.121L594.234 315.528C604.155 303.44 603.431 277.208 601.04 266.994L568.757 258.026L554.511 287.441Z" fill="#399B77"/>
<path d="M587.969 378.276L594.622 315.571L594.234 315.529L594.524 315.793C602.953 306.222 602.941 294.22 602.945 294.177H602.165C602.165 294.178 602.165 294.351 602.15 294.688C602.041 297.054 601.131 307.121 593.944 315.263L593.86 315.358L587.195 378.191L587.969 378.276Z" fill="#243267"/>
<path d="M560.916 282.368L553.21 429.7L553.989 429.742L561.695 282.409" fill="#243267"/>
<path d="M582.681 296.06L598.494 296.383L598.51 295.589L582.697 295.267" fill="#243267"/>
<path d="M609.781 295.553L615.793 295.427L615.778 294.633L609.766 294.76" fill="#243267"/>
<path d="M527.063 210.809C522.649 205.728 510.803 186.41 509.472 186.715C508.141 187.019 511.727 192.997 510.587 193.039C509.449 193.082 503.319 184.264 502.067 184.93C500.373 185.832 507.127 194.521 507.127 194.521C507.127 194.521 504.482 190.829 503.235 192.045C502.351 192.906 502.818 194.713 504.649 197.763C503.422 196.202 502.262 195.926 501.362 196.839C500.471 197.745 501.353 199.41 502.452 201.092C501.586 199.989 500.32 199.435 499.996 200.584C499.571 202.088 503.154 209.885 511.631 222.601" fill="#F6B6B7"/>
<path d="M590.928 190.513C590.928 190.513 609.583 191.31 615.178 212.908C617.7 222.646 619.323 289.423 619.323 289.423L551.158 288.959C551.158 288.959 552.066 228.589 553.591 215.518C556.377 191.63 574.866 190.141 574.866 190.141C574.866 190.141 575.709 192.253 582.934 192.253C590.159 192.253 590.928 190.513 590.928 190.513Z" fill="#D8C7BA"/>
<path d="M590.928 190.513C613.069 190.513 626.702 221.453 626.702 221.453L612.779 228.565" fill="#D8C7BA"/>
<path d="M561.68 234.413C561.68 234.413 549.865 251.708 540.326 252.647C527.504 253.91 504.692 210.483 504.692 210.483L519.081 200.596L538.79 225.812L545.511 215.592" fill="#F6B6B7"/>
<path d="M574.866 190.141C555.803 191.207 541.851 220.097 541.851 220.097L564.172 236.396L576.84 219.584" fill="#D8C7BA"/>
<path d="M563.695 236.063L574.492 221.777L573.873 221.294L563.077 235.58" fill="#7E6064"/>
<path d="M617.438 226.33C616.192 217.185 613.148 209.41 613.142 209.393L612.418 209.686C612.418 209.687 612.463 209.804 612.548 210.031C613.139 211.623 615.59 218.534 616.665 226.438L617.438 226.33Z" fill="#7E6064"/>
<path d="M573.904 170.474C573.904 170.474 570.835 171.975 570.988 172.547C571.142 173.119 572.064 174.504 572.064 174.504" fill="#F6B6B7"/>
<path d="M549.563 422.938H582.688V422.144H549.563V422.938Z" fill="#243267"/>
<path d="M591.93 423.223H624.148V422.43H591.93V423.223Z" fill="#243267"/>
</svg>
